999
"DXF R12 Output" (www.mydxf.blogspot.com)
 0 
SECTION
 2 
HEADER
 9 
$ACADVER
 1 
AC1009
 9 
$EXTMIN
 10 
 0 
 20 
 0 
 9 
$EXTMAX
 10 
 8.5 
 20 
 11 
 0 
ENDSEC
 0 
SECTION
 2 
ENTITIES
0
POLYLINE
8
0
62
10
70
0
10
0.000000
20
0.000000
66
1
0
VERTEX
8
0
10
270.220500
20
400.330876
70
0
0
VERTEX
8
0
10
270.133957
20
400.983169
70
0
0
VERTEX
8
0
10
269.885557
20
401.580873
70
0
0
VERTEX
8
0
10
269.492127
20
402.094844
70
0
0
VERTEX
8
0
10
268.970495
20
402.495934
70
0
0
VERTEX
8
0
10
268.362324
20
402.747136
70
0
0
VERTEX
8
0
10
267.720498
20
402.830870
70
0
0
VERTEX
8
0
10
267.078673
20
402.747136
70
0
0
VERTEX
8
0
10
266.470501
20
402.495934
70
0
0
VERTEX
8
0
10
265.948868
20
402.094844
70
0
0
VERTEX
8
0
10
265.555439
20
401.580873
70
0
0
VERTEX
8
0
10
265.307043
20
400.983169
70
0
0
VERTEX
8
0
10
265.220504
20
400.330876
70
0
0
VERTEX
8
0
10
265.307047
20
399.678584
70
0
0
VERTEX
8
0
10
265.555447
20
399.080879
70
0
0
VERTEX
8
0
10
265.948876
20
398.566908
70
0
0
VERTEX
8
0
10
266.470509
20
398.165818
70
0
0
VERTEX
8
0
10
267.078680
20
397.914616
70
0
0
VERTEX
8
0
10
267.720506
20
397.830882
70
0
0
VERTEX
8
0
10
268.362332
20
397.914616
70
0
0
VERTEX
8
0
10
268.970503
20
398.165818
70
0
0
VERTEX
8
0
10
269.492135
20
398.566908
70
0
0
VERTEX
8
0
10
269.885564
20
399.080879
70
0
0
VERTEX
8
0
10
270.133962
20
399.678584
70
0
0
VERTEX
8
0
10
270.220500
20
400.330876
70
0
0
VERTEX
8
0
10
270.220500
20
400.330876
70
0
0
SEQEND
8
0
0
POLYLINE
8
0
62
10
70
0
10
0.000000
20
0.000000
66
1
0
VERTEX
8
0
10
170.220749
20
400.330876
70
0
0
VERTEX
8
0
10
170.134210
20
400.983169
70
0
0
VERTEX
8
0
10
169.885813
20
401.580873
70
0
0
VERTEX
8
0
10
169.492383
20
402.094844
70
0
0
VERTEX
8
0
10
168.970751
20
402.495934
70
0
0
VERTEX
8
0
10
168.362580
20
402.747136
70
0
0
VERTEX
8
0
10
167.720755
20
402.830870
70
0
0
VERTEX
8
0
10
167.078928
20
402.747136
70
0
0
VERTEX
8
0
10
166.470757
20
402.495934
70
0
0
VERTEX
8
0
10
165.949125
20
402.094844
70
0
0
VERTEX
8
0
10
165.555695
20
401.580873
70
0
0
VERTEX
8
0
10
165.307299
20
400.983169
70
0
0
VERTEX
8
0
10
165.220760
20
400.330876
70
0
0
VERTEX
8
0
10
165.307299
20
399.678584
70
0
0
VERTEX
8
0
10
165.555695
20
399.080879
70
0
0
VERTEX
8
0
10
165.949125
20
398.566908
70
0
0
VERTEX
8
0
10
166.470757
20
398.165818
70
0
0
VERTEX
8
0
10
167.078928
20
397.914616
70
0
0
VERTEX
8
0
10
167.720755
20
397.830882
70
0
0
VERTEX
8
0
10
168.362580
20
397.914616
70
0
0
VERTEX
8
0
10
168.970751
20
398.165818
70
0
0
VERTEX
8
0
10
169.492383
20
398.566908
70
0
0
VERTEX
8
0
10
169.885813
20
399.080879
70
0
0
VERTEX
8
0
10
170.134210
20
399.678584
70
0
0
VERTEX
8
0
10
170.220749
20
400.330876
70
0
0
VERTEX
8
0
10
170.220749
20
400.330876
70
0
0
SEQEND
8
0
0
POLYLINE
8
0
62
10
70
0
10
0.000000
20
0.000000
66
1
0
VERTEX
8
0
10
370.220234
20
400.330876
70
0
0
VERTEX
8
0
10
370.022331
20
401.302376
70
0
0
VERTEX
8
0
10
369.486234
20
402.095397
70
0
0
VERTEX
8
0
10
368.692140
20
402.629902
70
0
0
VERTEX
8
0
10
367.720245
20
402.825857
70
0
0
VERTEX
8
0
10
366.748350
20
402.629902
70
0
0
VERTEX
8
0
10
365.954255
20
402.095397
70
0
0
VERTEX
8
0
10
365.418159
20
401.302376
70
0
0
VERTEX
8
0
10
365.220256
20
400.330876
70
0
0
VERTEX
8
0
10
365.418159
20
399.359376
70
0
0
VERTEX
8
0
10
365.954255
20
398.566355
70
0
0
VERTEX
8
0
10
366.748350
20
398.031850
70
0
0
VERTEX
8
0
10
367.720245
20
397.835896
70
0
0
VERTEX
8
0
10
368.692140
20
398.031850
70
0
0
VERTEX
8
0
10
369.486234
20
398.566355
70
0
0
VERTEX
8
0
10
370.022331
20
399.359376
70
0
0
VERTEX
8
0
10
370.220234
20
400.330876
70
0
0
VERTEX
8
0
10
370.220234
20
400.330876
70
0
0
SEQEND
8
0
0
POLYLINE
8
0
62
10
70
0
10
0.000000
20
0.000000
66
1
0
VERTEX
8
0
10
270.220500
20
480.330673
70
0
0
VERTEX
8
0
10
270.133957
20
480.982966
70
0
0
VERTEX
8
0
10
269.885557
20
481.580671
70
0
0
VERTEX
8
0
10
269.492127
20
482.094641
70
0
0
VERTEX
8
0
10
268.970495
20
482.495731
70
0
0
VERTEX
8
0
10
268.362324
20
482.746933
70
0
0
VERTEX
8
0
10
267.720498
20
482.830667
70
0
0
VERTEX
8
0
10
267.078673
20
482.746933
70
0
0
VERTEX
8
0
10
266.470501
20
482.495731
70
0
0
VERTEX
8
0
10
265.948868
20
482.094641
70
0
0
VERTEX
8
0
10
265.555439
20
481.580671
70
0
0
VERTEX
8
0
10
265.307043
20
480.982966
70
0
0
VERTEX
8
0
10
265.220504
20
480.330673
70
0
0
VERTEX
8
0
10
265.307047
20
479.678381
70
0
0
VERTEX
8
0
10
265.555447
20
479.080677
70
0
0
VERTEX
8
0
10
265.948876
20
478.566705
70
0
0
VERTEX
8
0
10
266.470509
20
478.165615
70
0
0
VERTEX
8
0
10
267.078680
20
477.914413
70
0
0
VERTEX
8
0
10
267.720506
20
477.830679
70
0
0
VERTEX
8
0
10
268.362332
20
477.914413
70
0
0
VERTEX
8
0
10
268.970503
20
478.165615
70
0
0
VERTEX
8
0
10
269.492135
20
478.566705
70
0
0
VERTEX
8
0
10
269.885564
20
479.080677
70
0
0
VERTEX
8
0
10
270.133962
20
479.678381
70
0
0
VERTEX
8
0
10
270.220500
20
480.330673
70
0
0
VERTEX
8
0
10
270.220500
20
480.330673
70
0
0
SEQEND
8
0
0
POLYLINE
8
0
62
10
70
0
10
0.000000
20
0.000000
66
1
0
VERTEX
8
0
10
170.220749
20
480.330673
70
0
0
VERTEX
8
0
10
170.134210
20
480.982966
70
0
0
VERTEX
8
0
10
169.885813
20
481.580671
70
0
0
VERTEX
8
0
10
169.492383
20
482.094641
70
0
0
VERTEX
8
0
10
168.970751
20
482.495731
70
0
0
VERTEX
8
0
10
168.362580
20
482.746933
70
0
0
VERTEX
8
0
10
167.720755
20
482.830667
70
0
0
VERTEX
8
0
10
167.078928
20
482.746933
70
0
0
VERTEX
8
0
10
166.470757
20
482.495731
70
0
0
VERTEX
8
0
10
165.949125
20
482.094641
70
0
0
VERTEX
8
0
10
165.555695
20
481.580671
70
0
0
VERTEX
8
0
10
165.307299
20
480.982966
70
0
0
VERTEX
8
0
10
165.220760
20
480.330673
70
0
0
VERTEX
8
0
10
165.307299
20
479.678381
70
0
0
VERTEX
8
0
10
165.555695
20
479.080677
70
0
0
VERTEX
8
0
10
165.949125
20
478.566705
70
0
0
VERTEX
8
0
10
166.470757
20
478.165615
70
0
0
VERTEX
8
0
10
167.078928
20
477.914413
70
0
0
VERTEX
8
0
10
167.720755
20
477.830679
70
0
0
VERTEX
8
0
10
168.362580
20
477.914413
70
0
0
VERTEX
8
0
10
168.970751
20
478.165615
70
0
0
VERTEX
8
0
10
169.492383
20
478.566705
70
0
0
VERTEX
8
0
10
169.885813
20
479.080677
70
0
0
VERTEX
8
0
10
170.134210
20
479.678381
70
0
0
VERTEX
8
0
10
170.220749
20
480.330673
70
0
0
VERTEX
8
0
10
170.220749
20
480.330673
70
0
0
SEQEND
8
0
0
POLYLINE
8
0
62
10
70
0
10
0.000000
20
0.000000
66
1
0
VERTEX
8
0
10
370.220234
20
480.330673
70
0
0
VERTEX
8
0
10
370.022331
20
481.302173
70
0
0
VERTEX
8
0
10
369.486234
20
482.095194
70
0
0
VERTEX
8
0
10
368.692140
20
482.629699
70
0
0
VERTEX
8
0
10
367.720245
20
482.825653
70
0
0
VERTEX
8
0
10
366.748350
20
482.629699
70
0
0
VERTEX
8
0
10
365.954255
20
482.095194
70
0
0
VERTEX
8
0
10
365.418159
20
481.302173
70
0
0
VERTEX
8
0
10
365.220256
20
480.330673
70
0
0
VERTEX
8
0
10
365.418159
20
479.359173
70
0
0
VERTEX
8
0
10
365.954255
20
478.566152
70
0
0
VERTEX
8
0
10
366.748350
20
478.031647
70
0
0
VERTEX
8
0
10
367.720245
20
477.835693
70
0
0
VERTEX
8
0
10
368.692140
20
478.031647
70
0
0
VERTEX
8
0
10
369.486234
20
478.566152
70
0
0
VERTEX
8
0
10
370.022331
20
479.359173
70
0
0
VERTEX
8
0
10
370.220234
20
480.330673
70
0
0
VERTEX
8
0
10
370.220234
20
480.330673
70
0
0
SEQEND
8
0
0
POLYLINE
8
0
62
10
70
0
10
0.000000
20
0.000000
66
1
0
VERTEX
8
0
10
270.220500
20
440.330774
70
0
0
VERTEX
8
0
10
270.133957
20
440.983068
70
0
0
VERTEX
8
0
10
269.885557
20
441.580772
70
0
0
VERTEX
8
0
10
269.492127
20
442.094742
70
0
0
VERTEX
8
0
10
268.970495
20
442.495833
70
0
0
VERTEX
8
0
10
268.362324
20
442.747034
70
0
0
VERTEX
8
0
10
267.720498
20
442.830768
70
0
0
VERTEX
8
0
10
267.078673
20
442.747034
70
0
0
VERTEX
8
0
10
266.470501
20
442.495833
70
0
0
VERTEX
8
0
10
265.948868
20
442.094742
70
0
0
VERTEX
8
0
10
265.555439
20
441.580772
70
0
0
VERTEX
8
0
10
265.307043
20
440.983068
70
0
0
VERTEX
8
0
10
265.220504
20
440.330774
70
0
0
VERTEX
8
0
10
265.307047
20
439.678482
70
0
0
VERTEX
8
0
10
265.555447
20
439.080778
70
0
0
VERTEX
8
0
10
265.948876
20
438.566807
70
0
0
VERTEX
8
0
10
266.470509
20
438.165716
70
0
0
VERTEX
8
0
10
267.078680
20
437.914514
70
0
0
VERTEX
8
0
10
267.720506
20
437.830781
70
0
0
VERTEX
8
0
10
268.362332
20
437.914514
70
0
0
VERTEX
8
0
10
268.970503
20
438.165716
70
0
0
VERTEX
8
0
10
269.492135
20
438.566807
70
0
0
VERTEX
8
0
10
269.885564
20
439.080778
70
0
0
VERTEX
8
0
10
270.133962
20
439.678482
70
0
0
VERTEX
8
0
10
270.220500
20
440.330774
70
0
0
VERTEX
8
0
10
270.220500
20
440.330774
70
0
0
SEQEND
8
0
0
POLYLINE
8
0
62
10
70
0
10
0.000000
20
0.000000
66
1
0
VERTEX
8
0
10
170.220749
20
440.330774
70
0
0
VERTEX
8
0
10
170.134210
20
440.983068
70
0
0
VERTEX
8
0
10
169.885813
20
441.580772
70
0
0
VERTEX
8
0
10
169.492383
20
442.094742
70
0
0
VERTEX
8
0
10
168.970751
20
442.495833
70
0
0
VERTEX
8
0
10
168.362580
20
442.747034
70
0
0
VERTEX
8
0
10
167.720755
20
442.830768
70
0
0
VERTEX
8
0
10
167.078928
20
442.747034
70
0
0
VERTEX
8
0
10
166.470757
20
442.495833
70
0
0
VERTEX
8
0
10
165.949125
20
442.094742
70
0
0
VERTEX
8
0
10
165.555695
20
441.580772
70
0
0
VERTEX
8
0
10
165.307299
20
440.983068
70
0
0
VERTEX
8
0
10
165.220760
20
440.330774
70
0
0
VERTEX
8
0
10
165.307299
20
439.678482
70
0
0
VERTEX
8
0
10
165.555695
20
439.080778
70
0
0
VERTEX
8
0
10
165.949125
20
438.566807
70
0
0
VERTEX
8
0
10
166.470757
20
438.165716
70
0
0
VERTEX
8
0
10
167.078928
20
437.914514
70
0
0
VERTEX
8
0
10
167.720755
20
437.830781
70
0
0
VERTEX
8
0
10
168.362580
20
437.914514
70
0
0
VERTEX
8
0
10
168.970751
20
438.165716
70
0
0
VERTEX
8
0
10
169.492383
20
438.566807
70
0
0
VERTEX
8
0
10
169.885813
20
439.080778
70
0
0
VERTEX
8
0
10
170.134210
20
439.678482
70
0
0
VERTEX
8
0
10
170.220749
20
440.330774
70
0
0
VERTEX
8
0
10
170.220749
20
440.330774
70
0
0
SEQEND
8
0
0
POLYLINE
8
0
62
10
70
0
10
0.000000
20
0.000000
66
1
0
VERTEX
8
0
10
370.220234
20
440.330774
70
0
0
VERTEX
8
0
10
370.022331
20
441.302274
70
0
0
VERTEX
8
0
10
369.486234
20
442.095295
70
0
0
VERTEX
8
0
10
368.692140
20
442.629801
70
0
0
VERTEX
8
0
10
367.720245
20
442.825755
70
0
0
VERTEX
8
0
10
366.748350
20
442.629801
70
0
0
VERTEX
8
0
10
365.954255
20
442.095295
70
0
0
VERTEX
8
0
10
365.418159
20
441.302274
70
0
0
VERTEX
8
0
10
365.220256
20
440.330774
70
0
0
VERTEX
8
0
10
365.418159
20
439.359275
70
0
0
VERTEX
8
0
10
365.954255
20
438.566254
70
0
0
VERTEX
8
0
10
366.748350
20
438.031748
70
0
0
VERTEX
8
0
10
367.720245
20
437.835794
70
0
0
VERTEX
8
0
10
368.692140
20
438.031748
70
0
0
VERTEX
8
0
10
369.486234
20
438.566254
70
0
0
VERTEX
8
0
10
370.022331
20
439.359275
70
0
0
VERTEX
8
0
10
370.220234
20
440.330774
70
0
0
VERTEX
8
0
10
370.220234
20
440.330774
70
0
0
SEQEND
8
0
0
POLYLINE
8
0
62
10
70
0
10
0.000000
20
0.000000
66
1
0
VERTEX
8
0
10
520.219873
20
488.330653
70
0
0
VERTEX
8
0
10
520.133330
20
488.982945
70
0
0
VERTEX
8
0
10
519.884930
20
489.580649
70
0
0
VERTEX
8
0
10
519.491501
20
490.094621
70
0
0
VERTEX
8
0
10
518.969868
20
490.495711
70
0
0
VERTEX
8
0
10
518.361697
20
490.746913
70
0
0
VERTEX
8
0
10
517.719871
20
490.830647
70
0
0
VERTEX
8
0
10
517.078045
20
490.746913
70
0
0
VERTEX
8
0
10
516.469873
20
490.495711
70
0
0
VERTEX
8
0
10
515.948241
20
490.094621
70
0
0
VERTEX
8
0
10
515.554813
20
489.580649
70
0
0
VERTEX
8
0
10
515.306416
20
488.982945
70
0
0
VERTEX
8
0
10
515.219877
20
488.330653
70
0
0
VERTEX
8
0
10
515.306420
20
487.678361
70
0
0
VERTEX
8
0
10
515.554819
20
487.080656
70
0
0
VERTEX
8
0
10
515.948249
20
486.566685
70
0
0
VERTEX
8
0
10
516.469881
20
486.165595
70
0
0
VERTEX
8
0
10
517.078053
20
485.914393
70
0
0
VERTEX
8
0
10
517.719879
20
485.830659
70
0
0
VERTEX
8
0
10
518.361705
20
485.914393
70
0
0
VERTEX
8
0
10
518.969876
20
486.165595
70
0
0
VERTEX
8
0
10
519.491509
20
486.566685
70
0
0
VERTEX
8
0
10
519.884937
20
487.080656
70
0
0
VERTEX
8
0
10
520.133335
20
487.678361
70
0
0
VERTEX
8
0
10
520.219873
20
488.330653
70
0
0
VERTEX
8
0
10
520.219873
20
488.330653
70
0
0
SEQEND
8
0
0
POLYLINE
8
0
62
10
70
0
10
0.000000
20
0.000000
66
1
0
VERTEX
8
0
10
420.220113
20
488.330653
70
0
0
VERTEX
8
0
10
420.022210
20
489.302153
70
0
0
VERTEX
8
0
10
419.486113
20
490.095174
70
0
0
VERTEX
8
0
10
418.692019
20
490.629679
70
0
0
VERTEX
8
0
10
417.720125
20
490.825633
70
0
0
VERTEX
8
0
10
416.748229
20
490.629679
70
0
0
VERTEX
8
0
10
415.954135
20
490.095174
70
0
0
VERTEX
8
0
10
415.418039
20
489.302153
70
0
0
VERTEX
8
0
10
415.220136
20
488.330653
70
0
0
VERTEX
8
0
10
415.418039
20
487.359153
70
0
0
VERTEX
8
0
10
415.954135
20
486.566132
70
0
0
VERTEX
8
0
10
416.748229
20
486.031627
70
0
0
VERTEX
8
0
10
417.720125
20
485.835673
70
0
0
VERTEX
8
0
10
418.692019
20
486.031627
70
0
0
VERTEX
8
0
10
419.486113
20
486.566132
70
0
0
VERTEX
8
0
10
420.022210
20
487.359153
70
0
0
VERTEX
8
0
10
420.220113
20
488.330653
70
0
0
VERTEX
8
0
10
420.220113
20
488.330653
70
0
0
SEQEND
8
0
0
POLYLINE
8
0
62
10
70
0
10
0.000000
20
0.000000
66
1
0
VERTEX
8
0
10
620.219606
20
488.330653
70
0
0
VERTEX
8
0
10
620.021703
20
489.302153
70
0
0
VERTEX
8
0
10
619.485607
20
490.095174
70
0
0
VERTEX
8
0
10
618.691512
20
490.629679
70
0
0
VERTEX
8
0
10
617.719618
20
490.825633
70
0
0
VERTEX
8
0
10
616.747722
20
490.629679
70
0
0
VERTEX
8
0
10
615.953628
20
490.095174
70
0
0
VERTEX
8
0
10
615.417532
20
489.302153
70
0
0
VERTEX
8
0
10
615.219629
20
488.330653
70
0
0
VERTEX
8
0
10
615.417532
20
487.359153
70
0
0
VERTEX
8
0
10
615.953628
20
486.566132
70
0
0
VERTEX
8
0
10
616.747722
20
486.031627
70
0
0
VERTEX
8
0
10
617.719618
20
485.835673
70
0
0
VERTEX
8
0
10
618.691512
20
486.031627
70
0
0
VERTEX
8
0
10
619.485607
20
486.566132
70
0
0
VERTEX
8
0
10
620.021703
20
487.359153
70
0
0
VERTEX
8
0
10
620.219606
20
488.330653
70
0
0
VERTEX
8
0
10
620.219606
20
488.330653
70
0
0
SEQEND
8
0
0
POLYLINE
8
0
62
10
70
0
10
0.000000
20
0.000000
66
1
0
VERTEX
8
0
10
270.220500
20
460.330724
70
0
0
VERTEX
8
0
10
270.133957
20
460.983017
70
0
0
VERTEX
8
0
10
269.885557
20
461.580721
70
0
0
VERTEX
8
0
10
269.492127
20
462.094691
70
0
0
VERTEX
8
0
10
268.970495
20
462.495783
70
0
0
VERTEX
8
0
10
268.362324
20
462.746984
70
0
0
VERTEX
8
0
10
267.720498
20
462.830718
70
0
0
VERTEX
8
0
10
267.078673
20
462.746984
70
0
0
VERTEX
8
0
10
266.470501
20
462.495783
70
0
0
VERTEX
8
0
10
265.948868
20
462.094691
70
0
0
VERTEX
8
0
10
265.555439
20
461.580721
70
0
0
VERTEX
8
0
10
265.307043
20
460.983017
70
0
0
VERTEX
8
0
10
265.220504
20
460.330724
70
0
0
VERTEX
8
0
10
265.307047
20
459.678431
70
0
0
VERTEX
8
0
10
265.555447
20
459.080727
70
0
0
VERTEX
8
0
10
265.948876
20
458.566756
70
0
0
VERTEX
8
0
10
266.470509
20
458.165666
70
0
0
VERTEX
8
0
10
267.078680
20
457.914464
70
0
0
VERTEX
8
0
10
267.720506
20
457.830729
70
0
0
VERTEX
8
0
10
268.362332
20
457.914464
70
0
0
VERTEX
8
0
10
268.970503
20
458.165666
70
0
0
VERTEX
8
0
10
269.492135
20
458.566756
70
0
0
VERTEX
8
0
10
269.885564
20
459.080727
70
0
0
VERTEX
8
0
10
270.133962
20
459.678431
70
0
0
VERTEX
8
0
10
270.220500
20
460.330724
70
0
0
VERTEX
8
0
10
270.220500
20
460.330724
70
0
0
SEQEND
8
0
0
POLYLINE
8
0
62
10
70
0
10
0.000000
20
0.000000
66
1
0
VERTEX
8
0
10
170.220749
20
460.330724
70
0
0
VERTEX
8
0
10
170.134210
20
460.983017
70
0
0
VERTEX
8
0
10
169.885813
20
461.580721
70
0
0
VERTEX
8
0
10
169.492383
20
462.094691
70
0
0
VERTEX
8
0
10
168.970751
20
462.495783
70
0
0
VERTEX
8
0
10
168.362580
20
462.746984
70
0
0
VERTEX
8
0
10
167.720755
20
462.830718
70
0
0
VERTEX
8
0
10
167.078928
20
462.746984
70
0
0
VERTEX
8
0
10
166.470757
20
462.495783
70
0
0
VERTEX
8
0
10
165.949125
20
462.094691
70
0
0
VERTEX
8
0
10
165.555695
20
461.580721
70
0
0
VERTEX
8
0
10
165.307299
20
460.983017
70
0
0
VERTEX
8
0
10
165.220760
20
460.330724
70
0
0
VERTEX
8
0
10
165.307299
20
459.678431
70
0
0
VERTEX
8
0
10
165.555695
20
459.080727
70
0
0
VERTEX
8
0
10
165.949125
20
458.566756
70
0
0
VERTEX
8
0
10
166.470757
20
458.165666
70
0
0
VERTEX
8
0
10
167.078928
20
457.914464
70
0
0
VERTEX
8
0
10
167.720755
20
457.830729
70
0
0
VERTEX
8
0
10
168.362580
20
457.914464
70
0
0
VERTEX
8
0
10
168.970751
20
458.165666
70
0
0
VERTEX
8
0
10
169.492383
20
458.566756
70
0
0
VERTEX
8
0
10
169.885813
20
459.080727
70
0
0
VERTEX
8
0
10
170.134210
20
459.678431
70
0
0
VERTEX
8
0
10
170.220749
20
460.330724
70
0
0
VERTEX
8
0
10
170.220749
20
460.330724
70
0
0
SEQEND
8
0
0
POLYLINE
8
0
62
10
70
0
10
0.000000
20
0.000000
66
1
0
VERTEX
8
0
10
370.220234
20
460.330724
70
0
0
VERTEX
8
0
10
370.022331
20
461.302224
70
0
0
VERTEX
8
0
10
369.486234
20
462.095245
70
0
0
VERTEX
8
0
10
368.692140
20
462.629750
70
0
0
VERTEX
8
0
10
367.720245
20
462.825704
70
0
0
VERTEX
8
0
10
366.748350
20
462.629750
70
0
0
VERTEX
8
0
10
365.954255
20
462.095245
70
0
0
VERTEX
8
0
10
365.418159
20
461.302224
70
0
0
VERTEX
8
0
10
365.220256
20
460.330724
70
0
0
VERTEX
8
0
10
365.418159
20
459.359224
70
0
0
VERTEX
8
0
10
365.954255
20
458.566203
70
0
0
VERTEX
8
0
10
366.748350
20
458.031698
70
0
0
VERTEX
8
0
10
367.720245
20
457.835743
70
0
0
VERTEX
8
0
10
368.692140
20
458.031698
70
0
0
VERTEX
8
0
10
369.486234
20
458.566203
70
0
0
VERTEX
8
0
10
370.022331
20
459.359224
70
0
0
VERTEX
8
0
10
370.220234
20
460.330724
70
0
0
VERTEX
8
0
10
370.220234
20
460.330724
70
0
0
SEQEND
8
0
0
POLYLINE
8
0
62
10
70
0
10
0.000000
20
0.000000
66
1
0
VERTEX
8
0
10
270.220500
20
420.330826
70
0
0
VERTEX
8
0
10
270.133957
20
420.983118
70
0
0
VERTEX
8
0
10
269.885557
20
421.580822
70
0
0
VERTEX
8
0
10
269.492127
20
422.094792
70
0
0
VERTEX
8
0
10
268.970495
20
422.495884
70
0
0
VERTEX
8
0
10
268.362324
20
422.747086
70
0
0
VERTEX
8
0
10
267.720498
20
422.830819
70
0
0
VERTEX
8
0
10
267.078673
20
422.747086
70
0
0
VERTEX
8
0
10
266.470501
20
422.495884
70
0
0
VERTEX
8
0
10
265.948868
20
422.094792
70
0
0
VERTEX
8
0
10
265.555439
20
421.580822
70
0
0
VERTEX
8
0
10
265.307043
20
420.983118
70
0
0
VERTEX
8
0
10
265.220504
20
420.330826
70
0
0
VERTEX
8
0
10
265.307047
20
419.678532
70
0
0
VERTEX
8
0
10
265.555447
20
419.080828
70
0
0
VERTEX
8
0
10
265.948876
20
418.566858
70
0
0
VERTEX
8
0
10
266.470509
20
418.165767
70
0
0
VERTEX
8
0
10
267.078680
20
417.914566
70
0
0
VERTEX
8
0
10
267.720506
20
417.830832
70
0
0
VERTEX
8
0
10
268.362332
20
417.914566
70
0
0
VERTEX
8
0
10
268.970503
20
418.165767
70
0
0
VERTEX
8
0
10
269.492135
20
418.566858
70
0
0
VERTEX
8
0
10
269.885564
20
419.080828
70
0
0
VERTEX
8
0
10
270.133962
20
419.678532
70
0
0
VERTEX
8
0
10
270.220500
20
420.330826
70
0
0
VERTEX
8
0
10
270.220500
20
420.330826
70
0
0
SEQEND
8
0
0
POLYLINE
8
0
62
10
70
0
10
0.000000
20
0.000000
66
1
0
VERTEX
8
0
10
170.220749
20
420.330826
70
0
0
VERTEX
8
0
10
170.134210
20
420.983118
70
0
0
VERTEX
8
0
10
169.885813
20
421.580822
70
0
0
VERTEX
8
0
10
169.492383
20
422.094792
70
0
0
VERTEX
8
0
10
168.970751
20
422.495884
70
0
0
VERTEX
8
0
10
168.362580
20
422.747086
70
0
0
VERTEX
8
0
10
167.720755
20
422.830819
70
0
0
VERTEX
8
0
10
167.078928
20
422.747086
70
0
0
VERTEX
8
0
10
166.470757
20
422.495884
70
0
0
VERTEX
8
0
10
165.949125
20
422.094792
70
0
0
VERTEX
8
0
10
165.555695
20
421.580822
70
0
0
VERTEX
8
0
10
165.307299
20
420.983118
70
0
0
VERTEX
8
0
10
165.220760
20
420.330826
70
0
0
VERTEX
8
0
10
165.307299
20
419.678532
70
0
0
VERTEX
8
0
10
165.555695
20
419.080828
70
0
0
VERTEX
8
0
10
165.949125
20
418.566858
70
0
0
VERTEX
8
0
10
166.470757
20
418.165767
70
0
0
VERTEX
8
0
10
167.078928
20
417.914566
70
0
0
VERTEX
8
0
10
167.720755
20
417.830832
70
0
0
VERTEX
8
0
10
168.362580
20
417.914566
70
0
0
VERTEX
8
0
10
168.970751
20
418.165767
70
0
0
VERTEX
8
0
10
169.492383
20
418.566858
70
0
0
VERTEX
8
0
10
169.885813
20
419.080828
70
0
0
VERTEX
8
0
10
170.134210
20
419.678532
70
0
0
VERTEX
8
0
10
170.220749
20
420.330826
70
0
0
VERTEX
8
0
10
170.220749
20
420.330826
70
0
0
SEQEND
8
0
0
POLYLINE
8
0
62
10
70
0
10
0.000000
20
0.000000
66
1
0
VERTEX
8
0
10
370.220234
20
420.330826
70
0
0
VERTEX
8
0
10
370.022331
20
421.302325
70
0
0
VERTEX
8
0
10
369.486234
20
422.095346
70
0
0
VERTEX
8
0
10
368.692140
20
422.629852
70
0
0
VERTEX
8
0
10
367.720245
20
422.825806
70
0
0
VERTEX
8
0
10
366.748350
20
422.629852
70
0
0
VERTEX
8
0
10
365.954255
20
422.095346
70
0
0
VERTEX
8
0
10
365.418159
20
421.302325
70
0
0
VERTEX
8
0
10
365.220256
20
420.330826
70
0
0
VERTEX
8
0
10
365.418159
20
419.359325
70
0
0
VERTEX
8
0
10
365.954255
20
418.566305
70
0
0
VERTEX
8
0
10
366.748350
20
418.031799
70
0
0
VERTEX
8
0
10
367.720245
20
417.835845
70
0
0
VERTEX
8
0
10
368.692140
20
418.031799
70
0
0
VERTEX
8
0
10
369.486234
20
418.566305
70
0
0
VERTEX
8
0
10
370.022331
20
419.359325
70
0
0
VERTEX
8
0
10
370.220234
20
420.330826
70
0
0
VERTEX
8
0
10
370.220234
20
420.330826
70
0
0
SEQEND
8
0
0
POLYLINE
8
0
62
50
70
0
10
0.000000
20
0.000000
66
1
0
VERTEX
8
0
10
810.718861
20
508.330548
70
0
0
VERTEX
8
0
10
10.721421
20
508.330548
70
0
0
SEQEND
8
0
0
POLYLINE
8
0
62
50
70
0
10
0.000000
20
0.000000
66
1
0
VERTEX
8
0
10
810.718861
20
8.332270
70
0
0
VERTEX
8
0
10
810.718861
20
508.330548
70
0
0
SEQEND
8
0
0
POLYLINE
8
0
62
50
70
0
10
0.000000
20
0.000000
66
1
0
VERTEX
8
0
10
10.721421
20
508.330548
70
0
0
VERTEX
8
0
10
10.721421
20
8.332270
70
0
0
SEQEND
8
0
0
POLYLINE
8
0
62
50
70
0
10
0.000000
20
0.000000
66
1
0
VERTEX
8
0
10
10.721421
20
8.332270
70
0
0
VERTEX
8
0
10
810.718861
20
8.332270
70
0
0
SEQEND
8
0
0
POLYLINE
8
0
62
170
70
0
10
0.000000
20
0.000000
66
1
0
VERTEX
8
0
10
392.720184
20
8.332270
70
0
0
VERTEX
8
0
10
392.720184
20
498.330646
70
0
0
SEQEND
8
0
0
POLYLINE
8
0
62
170
70
0
10
0.000000
20
0.000000
66
1
0
VERTEX
8
0
10
695.720652
20
8.332270
70
0
0
VERTEX
8
0
10
695.720652
20
478.330578
70
0
0
SEQEND
8
0
0
POLYLINE
8
0
62
170
70
0
10
0.000000
20
0.000000
66
1
0
VERTEX
8
0
10
392.720184
20
171.331067
70
0
0
VERTEX
8
0
10
695.720652
20
171.331067
70
0
0
SEQEND
8
0
0
POLYLINE
8
0
62
170
70
0
10
0.000000
20
0.000000
66
1
0
VERTEX
8
0
10
695.720652
20
274.330463
70
0
0
VERTEX
8
0
10
392.720184
20
274.330463
70
0
0
SEQEND
8
0
0
POLYLINE
8
0
62
170
70
0
10
0.000000
20
0.000000
66
1
0
VERTEX
8
0
10
10.721421
20
390.330913
70
0
0
VERTEX
8
0
10
392.720184
20
8.332270
70
0
0
SEQEND
8
0
0
POLYLINE
8
0
62
170
70
0
10
0.000000
20
0.000000
66
1
0
VERTEX
8
0
10
392.720184
20
390.330913
70
0
0
VERTEX
8
0
10
10.721421
20
390.330913
70
0
0
SEQEND
8
0
0
POLYLINE
8
0
62
170
70
0
10
0.000000
20
0.000000
66
1
0
VERTEX
8
0
10
392.720184
20
376.331051
70
0
0
VERTEX
8
0
10
695.720652
20
376.331051
70
0
0
SEQEND
8
0
0
POLYLINE
8
0
62
170
70
0
10
0.000000
20
0.000000
66
1
0
VERTEX
8
0
10
695.720652
20
478.330578
70
0
0
VERTEX
8
0
10
392.720184
20
478.330578
70
0
0
SEQEND
8
0
0
POLYLINE
8
0
62
170
70
0
10
0.000000
20
0.000000
66
1
0
VERTEX
8
0
10
802.717882
20
311.331027
70
0
0
VERTEX
8
0
10
695.720652
20
311.331027
70
0
0
SEQEND
8
0
0
POLYLINE
8
0
62
170
70
0
10
0.000000
20
0.000000
66
1
0
VERTEX
8
0
10
802.717882
20
8.332270
70
0
0
VERTEX
8
0
10
802.717882
20
311.331027
70
0
0
SEQEND
8
0
0
POLYLINE
8
0
62
170
70
0
10
0.000000
20
0.000000
66
1
0
VERTEX
8
0
10
142.721714
20
410.330981
70
0
0
VERTEX
8
0
10
392.720184
20
410.330981
70
0
0
SEQEND
8
0
0
POLYLINE
8
0
62
170
70
0
10
0.000000
20
0.000000
66
1
0
VERTEX
8
0
10
142.721714
20
490.330725
70
0
0
VERTEX
8
0
10
392.720184
20
490.330725
70
0
0
SEQEND
8
0
0
POLYLINE
8
0
62
170
70
0
10
0.000000
20
0.000000
66
1
0
VERTEX
8
0
10
142.721714
20
470.330658
70
0
0
VERTEX
8
0
10
392.720184
20
470.330658
70
0
0
SEQEND
8
0
0
POLYLINE
8
0
62
170
70
0
10
0.000000
20
0.000000
66
1
0
VERTEX
8
0
10
142.721714
20
390.330913
70
0
0
VERTEX
8
0
10
142.721714
20
490.330725
70
0
0
SEQEND
8
0
0
POLYLINE
8
0
62
170
70
0
10
0.000000
20
0.000000
66
1
0
VERTEX
8
0
10
142.721714
20
450.330854
70
0
0
VERTEX
8
0
10
392.720184
20
450.330854
70
0
0
SEQEND
8
0
0
POLYLINE
8
0
62
170
70
0
10
0.000000
20
0.000000
66
1
0
VERTEX
8
0
10
142.721714
20
430.330785
70
0
0
VERTEX
8
0
10
392.720184
20
430.330785
70
0
0
SEQEND
8
0
0
POLYLINE
8
0
62
170
70
0
10
0.000000
20
0.000000
66
1
0
VERTEX
8
0
10
392.720184
20
498.330646
70
0
0
VERTEX
8
0
10
642.719451
20
498.330646
70
0
0
SEQEND
8
0
0
POLYLINE
8
0
62
170
70
0
10
0.000000
20
0.000000
66
1
0
VERTEX
8
0
10
642.719451
20
498.330646
70
0
0
VERTEX
8
0
10
642.719451
20
478.330578
70
0
0
SEQEND
8
0
 0 
ENDSEC
 0 
EOF