999
"DXF R12 Output" (www.mydxf.blogspot.com)
 0 
SECTION
 2 
HEADER
 9 
$ACADVER
 1 
AC1009
 9 
$EXTMIN
 10 
 0 
 20 
 0 
 9 
$EXTMAX
 10 
 8.5 
 20 
 11 
 0 
ENDSEC
 0 
SECTION
 2 
ENTITIES
0
POLYLINE
8
0
62
10
70
0
10
0.000000
20
0.000000
66
1
0
VERTEX
8
0
10
631.590710
20
33.056737
70
0
0
VERTEX
8
0
10
631.392769
20
34.028197
70
0
0
VERTEX
8
0
10
630.856663
20
34.821176
70
0
0
VERTEX
8
0
10
630.062582
20
35.355649
70
0
0
VERTEX
8
0
10
629.090718
20
35.551591
70
0
0
VERTEX
8
0
10
628.118853
20
35.355649
70
0
0
VERTEX
8
0
10
627.324772
20
34.821176
70
0
0
VERTEX
8
0
10
626.788666
20
34.028197
70
0
0
VERTEX
8
0
10
626.590726
20
33.056737
70
0
0
VERTEX
8
0
10
626.788666
20
32.085278
70
0
0
VERTEX
8
0
10
627.324772
20
31.292298
70
0
0
VERTEX
8
0
10
628.118853
20
30.757825
70
0
0
VERTEX
8
0
10
629.090718
20
30.561884
70
0
0
VERTEX
8
0
10
630.062582
20
30.757825
70
0
0
VERTEX
8
0
10
630.856663
20
31.292298
70
0
0
VERTEX
8
0
10
631.392769
20
32.085278
70
0
0
VERTEX
8
0
10
631.590710
20
33.056737
70
0
0
VERTEX
8
0
10
631.590710
20
33.056737
70
0
0
SEQEND
8
0
0
POLYLINE
8
0
62
10
70
0
10
0.000000
20
0.000000
66
1
0
VERTEX
8
0
10
787.590513
20
99.056649
70
0
0
VERTEX
8
0
10
787.503974
20
99.708945
70
0
0
VERTEX
8
0
10
787.255576
20
100.306652
70
0
0
VERTEX
8
0
10
786.862146
20
100.820624
70
0
0
VERTEX
8
0
10
786.340511
20
101.221717
70
0
0
VERTEX
8
0
10
785.732337
20
101.472920
70
0
0
VERTEX
8
0
10
785.090508
20
101.556654
70
0
0
VERTEX
8
0
10
784.448679
20
101.472920
70
0
0
VERTEX
8
0
10
783.840506
20
101.221717
70
0
0
VERTEX
8
0
10
783.318871
20
100.820624
70
0
0
VERTEX
8
0
10
782.925440
20
100.306652
70
0
0
VERTEX
8
0
10
782.677042
20
99.708945
70
0
0
VERTEX
8
0
10
782.590503
20
99.056649
70
0
0
VERTEX
8
0
10
782.677042
20
98.404354
70
0
0
VERTEX
8
0
10
782.925440
20
97.806647
70
0
0
VERTEX
8
0
10
783.318871
20
97.292674
70
0
0
VERTEX
8
0
10
783.840506
20
96.891581
70
0
0
VERTEX
8
0
10
784.448679
20
96.640378
70
0
0
VERTEX
8
0
10
785.090508
20
96.556644
70
0
0
VERTEX
8
0
10
785.732337
20
96.640378
70
0
0
VERTEX
8
0
10
786.340511
20
96.891581
70
0
0
VERTEX
8
0
10
786.862146
20
97.292674
70
0
0
VERTEX
8
0
10
787.255576
20
97.806647
70
0
0
VERTEX
8
0
10
787.503974
20
98.404354
70
0
0
VERTEX
8
0
10
787.590513
20
99.056649
70
0
0
VERTEX
8
0
10
787.590513
20
99.056649
70
0
0
SEQEND
8
0
0
POLYLINE
8
0
62
10
70
0
10
0.000000
20
0.000000
66
1
0
VERTEX
8
0
10
731.590569
20
33.056737
70
0
0
VERTEX
8
0
10
731.392666
20
34.028238
70
0
0
VERTEX
8
0
10
730.856568
20
34.821260
70
0
0
VERTEX
8
0
10
730.062473
20
35.355766
70
0
0
VERTEX
8
0
10
729.090577
20
35.551721
70
0
0
VERTEX
8
0
10
728.118681
20
35.355766
70
0
0
VERTEX
8
0
10
727.324586
20
34.821260
70
0
0
VERTEX
8
0
10
726.788488
20
34.028238
70
0
0
VERTEX
8
0
10
726.590585
20
33.056737
70
0
0
VERTEX
8
0
10
726.788488
20
32.085236
70
0
0
VERTEX
8
0
10
727.324586
20
31.292214
70
0
0
VERTEX
8
0
10
728.118681
20
30.757708
70
0
0
VERTEX
8
0
10
729.090577
20
30.561754
70
0
0
VERTEX
8
0
10
730.062473
20
30.757708
70
0
0
VERTEX
8
0
10
730.856568
20
31.292214
70
0
0
VERTEX
8
0
10
731.392666
20
32.085236
70
0
0
VERTEX
8
0
10
731.590569
20
33.056737
70
0
0
VERTEX
8
0
10
731.590569
20
33.056737
70
0
0
SEQEND
8
0
0
POLYLINE
8
0
62
10
70
0
10
0.000000
20
0.000000
66
1
0
VERTEX
8
0
10
575.590792
20
99.056649
70
0
0
VERTEX
8
0
10
575.504253
20
99.708945
70
0
0
VERTEX
8
0
10
575.255854
20
100.306652
70
0
0
VERTEX
8
0
10
574.862424
20
100.820624
70
0
0
VERTEX
8
0
10
574.340789
20
101.221717
70
0
0
VERTEX
8
0
10
573.732615
20
101.472920
70
0
0
VERTEX
8
0
10
573.090786
20
101.556654
70
0
0
VERTEX
8
0
10
572.448958
20
101.472920
70
0
0
VERTEX
8
0
10
571.840784
20
101.221717
70
0
0
VERTEX
8
0
10
571.319149
20
100.820624
70
0
0
VERTEX
8
0
10
570.925719
20
100.306652
70
0
0
VERTEX
8
0
10
570.677320
20
99.708945
70
0
0
VERTEX
8
0
10
570.590781
20
99.056649
70
0
0
VERTEX
8
0
10
570.677320
20
98.404354
70
0
0
VERTEX
8
0
10
570.925719
20
97.806647
70
0
0
VERTEX
8
0
10
571.319149
20
97.292674
70
0
0
VERTEX
8
0
10
571.840784
20
96.891581
70
0
0
VERTEX
8
0
10
572.448958
20
96.640378
70
0
0
VERTEX
8
0
10
573.090786
20
96.556644
70
0
0
VERTEX
8
0
10
573.732615
20
96.640378
70
0
0
VERTEX
8
0
10
574.340789
20
96.891581
70
0
0
VERTEX
8
0
10
574.862424
20
97.292674
70
0
0
VERTEX
8
0
10
575.255854
20
97.806647
70
0
0
VERTEX
8
0
10
575.504253
20
98.404354
70
0
0
VERTEX
8
0
10
575.590792
20
99.056649
70
0
0
VERTEX
8
0
10
575.590792
20
99.056649
70
0
0
SEQEND
8
0
0
POLYLINE
8
0
62
10
70
0
10
0.000000
20
0.000000
66
1
0
VERTEX
8
0
10
575.590792
20
319.056392
70
0
0
VERTEX
8
0
10
575.504253
20
319.708688
70
0
0
VERTEX
8
0
10
575.255854
20
320.306395
70
0
0
VERTEX
8
0
10
574.862424
20
320.820368
70
0
0
VERTEX
8
0
10
574.340789
20
321.221460
70
0
0
VERTEX
8
0
10
573.732615
20
321.472663
70
0
0
VERTEX
8
0
10
573.090786
20
321.556397
70
0
0
VERTEX
8
0
10
572.448958
20
321.472663
70
0
0
VERTEX
8
0
10
571.840784
20
321.221460
70
0
0
VERTEX
8
0
10
571.319149
20
320.820368
70
0
0
VERTEX
8
0
10
570.925719
20
320.306395
70
0
0
VERTEX
8
0
10
570.677320
20
319.708688
70
0
0
VERTEX
8
0
10
570.590781
20
319.056392
70
0
0
VERTEX
8
0
10
570.677320
20
318.404097
70
0
0
VERTEX
8
0
10
570.925719
20
317.806390
70
0
0
VERTEX
8
0
10
571.319149
20
317.292417
70
0
0
VERTEX
8
0
10
571.840784
20
316.891324
70
0
0
VERTEX
8
0
10
572.448958
20
316.640121
70
0
0
VERTEX
8
0
10
573.090786
20
316.556387
70
0
0
VERTEX
8
0
10
573.732615
20
316.640121
70
0
0
VERTEX
8
0
10
574.340789
20
316.891324
70
0
0
VERTEX
8
0
10
574.862424
20
317.292417
70
0
0
VERTEX
8
0
10
575.255854
20
317.806390
70
0
0
VERTEX
8
0
10
575.504253
20
318.404097
70
0
0
VERTEX
8
0
10
575.590792
20
319.056392
70
0
0
VERTEX
8
0
10
575.590792
20
319.056392
70
0
0
SEQEND
8
0
0
POLYLINE
8
0
62
10
70
0
10
0.000000
20
0.000000
66
1
0
VERTEX
8
0
10
631.590710
20
385.056304
70
0
0
VERTEX
8
0
10
631.392769
20
386.027764
70
0
0
VERTEX
8
0
10
630.856663
20
386.820743
70
0
0
VERTEX
8
0
10
630.062582
20
387.355216
70
0
0
VERTEX
8
0
10
629.090718
20
387.551158
70
0
0
VERTEX
8
0
10
628.118853
20
387.355216
70
0
0
VERTEX
8
0
10
627.324772
20
386.820743
70
0
0
VERTEX
8
0
10
626.788666
20
386.027764
70
0
0
VERTEX
8
0
10
626.590726
20
385.056304
70
0
0
VERTEX
8
0
10
626.788666
20
384.084845
70
0
0
VERTEX
8
0
10
627.324772
20
383.291865
70
0
0
VERTEX
8
0
10
628.118853
20
382.757392
70
0
0
VERTEX
8
0
10
629.090718
20
382.561451
70
0
0
VERTEX
8
0
10
630.062582
20
382.757392
70
0
0
VERTEX
8
0
10
630.856663
20
383.291865
70
0
0
VERTEX
8
0
10
631.392769
20
384.084845
70
0
0
VERTEX
8
0
10
631.590710
20
385.056304
70
0
0
VERTEX
8
0
10
631.590710
20
385.056304
70
0
0
SEQEND
8
0
0
POLYLINE
8
0
62
10
70
0
10
0.000000
20
0.000000
66
1
0
VERTEX
8
0
10
731.590569
20
385.056304
70
0
0
VERTEX
8
0
10
731.392666
20
386.027805
70
0
0
VERTEX
8
0
10
730.856568
20
386.820827
70
0
0
VERTEX
8
0
10
730.062473
20
387.355333
70
0
0
VERTEX
8
0
10
729.090577
20
387.551287
70
0
0
VERTEX
8
0
10
728.118681
20
387.355333
70
0
0
VERTEX
8
0
10
727.324586
20
386.820827
70
0
0
VERTEX
8
0
10
726.788488
20
386.027805
70
0
0
VERTEX
8
0
10
726.590585
20
385.056304
70
0
0
VERTEX
8
0
10
726.788488
20
384.084803
70
0
0
VERTEX
8
0
10
727.324586
20
383.291781
70
0
0
VERTEX
8
0
10
728.118681
20
382.757275
70
0
0
VERTEX
8
0
10
729.090577
20
382.561321
70
0
0
VERTEX
8
0
10
730.062473
20
382.757275
70
0
0
VERTEX
8
0
10
730.856568
20
383.291781
70
0
0
VERTEX
8
0
10
731.392666
20
384.084803
70
0
0
VERTEX
8
0
10
731.590569
20
385.056304
70
0
0
VERTEX
8
0
10
731.590569
20
385.056304
70
0
0
SEQEND
8
0
0
POLYLINE
8
0
62
10
70
0
10
0.000000
20
0.000000
66
1
0
VERTEX
8
0
10
787.590513
20
319.056392
70
0
0
VERTEX
8
0
10
787.503974
20
319.708688
70
0
0
VERTEX
8
0
10
787.255576
20
320.306395
70
0
0
VERTEX
8
0
10
786.862146
20
320.820368
70
0
0
VERTEX
8
0
10
786.340511
20
321.221460
70
0
0
VERTEX
8
0
10
785.732337
20
321.472663
70
0
0
VERTEX
8
0
10
785.090508
20
321.556397
70
0
0
VERTEX
8
0
10
784.448679
20
321.472663
70
0
0
VERTEX
8
0
10
783.840506
20
321.221460
70
0
0
VERTEX
8
0
10
783.318871
20
320.820368
70
0
0
VERTEX
8
0
10
782.925440
20
320.306395
70
0
0
VERTEX
8
0
10
782.677042
20
319.708688
70
0
0
VERTEX
8
0
10
782.590503
20
319.056392
70
0
0
VERTEX
8
0
10
782.677042
20
318.404097
70
0
0
VERTEX
8
0
10
782.925440
20
317.806390
70
0
0
VERTEX
8
0
10
783.318871
20
317.292417
70
0
0
VERTEX
8
0
10
783.840506
20
316.891324
70
0
0
VERTEX
8
0
10
784.448679
20
316.640121
70
0
0
VERTEX
8
0
10
785.090508
20
316.556387
70
0
0
VERTEX
8
0
10
785.732337
20
316.640121
70
0
0
VERTEX
8
0
10
786.340511
20
316.891324
70
0
0
VERTEX
8
0
10
786.862146
20
317.292417
70
0
0
VERTEX
8
0
10
787.255576
20
317.806390
70
0
0
VERTEX
8
0
10
787.503974
20
318.404097
70
0
0
VERTEX
8
0
10
787.590513
20
319.056392
70
0
0
VERTEX
8
0
10
787.590513
20
319.056392
70
0
0
SEQEND
8
0
0
POLYLINE
8
0
62
10
70
0
10
0.000000
20
0.000000
66
1
0
VERTEX
8
0
10
315.591110
20
309.056398
70
0
0
VERTEX
8
0
10
315.393207
20
310.027900
70
0
0
VERTEX
8
0
10
314.857109
20
310.820921
70
0
0
VERTEX
8
0
10
314.063014
20
311.355427
70
0
0
VERTEX
8
0
10
313.091118
20
311.551382
70
0
0
VERTEX
8
0
10
312.119222
20
311.355427
70
0
0
VERTEX
8
0
10
311.325127
20
310.820921
70
0
0
VERTEX
8
0
10
310.789029
20
310.027900
70
0
0
VERTEX
8
0
10
310.591126
20
309.056398
70
0
0
VERTEX
8
0
10
310.789029
20
308.084897
70
0
0
VERTEX
8
0
10
311.325127
20
307.291876
70
0
0
VERTEX
8
0
10
312.119222
20
306.757370
70
0
0
VERTEX
8
0
10
313.091118
20
306.561415
70
0
0
VERTEX
8
0
10
314.063014
20
306.757370
70
0
0
VERTEX
8
0
10
314.857109
20
307.291876
70
0
0
VERTEX
8
0
10
315.393207
20
308.084897
70
0
0
VERTEX
8
0
10
315.591110
20
309.056398
70
0
0
VERTEX
8
0
10
315.591110
20
309.056398
70
0
0
SEQEND
8
0
0
POLYLINE
8
0
62
10
70
0
10
0.000000
20
0.000000
66
1
0
VERTEX
8
0
10
315.591110
20
109.056643
70
0
0
VERTEX
8
0
10
315.393207
20
110.028144
70
0
0
VERTEX
8
0
10
314.857109
20
110.821166
70
0
0
VERTEX
8
0
10
314.063014
20
111.355672
70
0
0
VERTEX
8
0
10
313.091118
20
111.551626
70
0
0
VERTEX
8
0
10
312.119222
20
111.355672
70
0
0
VERTEX
8
0
10
311.325127
20
110.821166
70
0
0
VERTEX
8
0
10
310.789029
20
110.028144
70
0
0
VERTEX
8
0
10
310.591126
20
109.056643
70
0
0
VERTEX
8
0
10
310.789029
20
108.085142
70
0
0
VERTEX
8
0
10
311.325127
20
107.292120
70
0
0
VERTEX
8
0
10
312.119222
20
106.757614
70
0
0
VERTEX
8
0
10
313.091118
20
106.561660
70
0
0
VERTEX
8
0
10
314.063014
20
106.757614
70
0
0
VERTEX
8
0
10
314.857109
20
107.292120
70
0
0
VERTEX
8
0
10
315.393207
20
108.085142
70
0
0
VERTEX
8
0
10
315.591110
20
109.056643
70
0
0
VERTEX
8
0
10
315.591110
20
109.056643
70
0
0
SEQEND
8
0
0
POLYLINE
8
0
62
10
70
0
10
0.000000
20
0.000000
66
1
0
VERTEX
8
0
10
381.591022
20
33.056737
70
0
0
VERTEX
8
0
10
381.393081
20
34.028197
70
0
0
VERTEX
8
0
10
380.856975
20
34.821176
70
0
0
VERTEX
8
0
10
380.062895
20
35.355649
70
0
0
VERTEX
8
0
10
379.091030
20
35.551591
70
0
0
VERTEX
8
0
10
378.119165
20
35.355649
70
0
0
VERTEX
8
0
10
377.325085
20
34.821176
70
0
0
VERTEX
8
0
10
376.788979
20
34.028197
70
0
0
VERTEX
8
0
10
376.591038
20
33.056737
70
0
0
VERTEX
8
0
10
376.788979
20
32.085278
70
0
0
VERTEX
8
0
10
377.325085
20
31.292298
70
0
0
VERTEX
8
0
10
378.119165
20
30.757825
70
0
0
VERTEX
8
0
10
379.091030
20
30.561884
70
0
0
VERTEX
8
0
10
380.062895
20
30.757825
70
0
0
VERTEX
8
0
10
380.856975
20
31.292298
70
0
0
VERTEX
8
0
10
381.393081
20
32.085278
70
0
0
VERTEX
8
0
10
381.591022
20
33.056737
70
0
0
VERTEX
8
0
10
381.591022
20
33.056737
70
0
0
SEQEND
8
0
0
POLYLINE
8
0
62
10
70
0
10
0.000000
20
0.000000
66
1
0
VERTEX
8
0
10
461.590920
20
33.056737
70
0
0
VERTEX
8
0
10
461.392979
20
34.028197
70
0
0
VERTEX
8
0
10
460.856873
20
34.821176
70
0
0
VERTEX
8
0
10
460.062793
20
35.355649
70
0
0
VERTEX
8
0
10
459.090928
20
35.551591
70
0
0
VERTEX
8
0
10
458.119063
20
35.355649
70
0
0
VERTEX
8
0
10
457.324982
20
34.821176
70
0
0
VERTEX
8
0
10
456.788877
20
34.028197
70
0
0
VERTEX
8
0
10
456.590936
20
33.056737
70
0
0
VERTEX
8
0
10
456.788877
20
32.085278
70
0
0
VERTEX
8
0
10
457.324982
20
31.292298
70
0
0
VERTEX
8
0
10
458.119063
20
30.757825
70
0
0
VERTEX
8
0
10
459.090928
20
30.561884
70
0
0
VERTEX
8
0
10
460.062793
20
30.757825
70
0
0
VERTEX
8
0
10
460.856873
20
31.292298
70
0
0
VERTEX
8
0
10
461.392979
20
32.085278
70
0
0
VERTEX
8
0
10
461.590920
20
33.056737
70
0
0
VERTEX
8
0
10
461.590920
20
33.056737
70
0
0
SEQEND
8
0
0
POLYLINE
8
0
62
10
70
0
10
0.000000
20
0.000000
66
1
0
VERTEX
8
0
10
527.590832
20
109.056643
70
0
0
VERTEX
8
0
10
527.392891
20
110.028102
70
0
0
VERTEX
8
0
10
526.856785
20
110.821082
70
0
0
VERTEX
8
0
10
526.062704
20
111.355555
70
0
0
VERTEX
8
0
10
525.090840
20
111.551496
70
0
0
VERTEX
8
0
10
524.118975
20
111.355555
70
0
0
VERTEX
8
0
10
523.324894
20
110.821082
70
0
0
VERTEX
8
0
10
522.788788
20
110.028102
70
0
0
VERTEX
8
0
10
522.590848
20
109.056643
70
0
0
VERTEX
8
0
10
522.788788
20
108.085183
70
0
0
VERTEX
8
0
10
523.324894
20
107.292204
70
0
0
VERTEX
8
0
10
524.118975
20
106.757731
70
0
0
VERTEX
8
0
10
525.090840
20
106.561790
70
0
0
VERTEX
8
0
10
526.062704
20
106.757731
70
0
0
VERTEX
8
0
10
526.856785
20
107.292204
70
0
0
VERTEX
8
0
10
527.392891
20
108.085183
70
0
0
VERTEX
8
0
10
527.590832
20
109.056643
70
0
0
VERTEX
8
0
10
527.590832
20
109.056643
70
0
0
SEQEND
8
0
0
POLYLINE
8
0
62
10
70
0
10
0.000000
20
0.000000
66
1
0
VERTEX
8
0
10
527.590832
20
309.056398
70
0
0
VERTEX
8
0
10
527.392891
20
310.027858
70
0
0
VERTEX
8
0
10
526.856785
20
310.820837
70
0
0
VERTEX
8
0
10
526.062704
20
311.355311
70
0
0
VERTEX
8
0
10
525.090840
20
311.551252
70
0
0
VERTEX
8
0
10
524.118975
20
311.355311
70
0
0
VERTEX
8
0
10
523.324894
20
310.820837
70
0
0
VERTEX
8
0
10
522.788788
20
310.027858
70
0
0
VERTEX
8
0
10
522.590848
20
309.056398
70
0
0
VERTEX
8
0
10
522.788788
20
308.084939
70
0
0
VERTEX
8
0
10
523.324894
20
307.291960
70
0
0
VERTEX
8
0
10
524.118975
20
306.757486
70
0
0
VERTEX
8
0
10
525.090840
20
306.561545
70
0
0
VERTEX
8
0
10
526.062704
20
306.757486
70
0
0
VERTEX
8
0
10
526.856785
20
307.291960
70
0
0
VERTEX
8
0
10
527.392891
20
308.084939
70
0
0
VERTEX
8
0
10
527.590832
20
309.056398
70
0
0
VERTEX
8
0
10
527.590832
20
309.056398
70
0
0
SEQEND
8
0
0
POLYLINE
8
0
62
10
70
0
10
0.000000
20
0.000000
66
1
0
VERTEX
8
0
10
461.590920
20
385.056304
70
0
0
VERTEX
8
0
10
461.392979
20
386.027764
70
0
0
VERTEX
8
0
10
460.856873
20
386.820743
70
0
0
VERTEX
8
0
10
460.062793
20
387.355216
70
0
0
VERTEX
8
0
10
459.090928
20
387.551158
70
0
0
VERTEX
8
0
10
458.119063
20
387.355216
70
0
0
VERTEX
8
0
10
457.324982
20
386.820743
70
0
0
VERTEX
8
0
10
456.788877
20
386.027764
70
0
0
VERTEX
8
0
10
456.590936
20
385.056304
70
0
0
VERTEX
8
0
10
456.788877
20
384.084845
70
0
0
VERTEX
8
0
10
457.324982
20
383.291865
70
0
0
VERTEX
8
0
10
458.119063
20
382.757392
70
0
0
VERTEX
8
0
10
459.090928
20
382.561451
70
0
0
VERTEX
8
0
10
460.062793
20
382.757392
70
0
0
VERTEX
8
0
10
460.856873
20
383.291865
70
0
0
VERTEX
8
0
10
461.392979
20
384.084845
70
0
0
VERTEX
8
0
10
461.590920
20
385.056304
70
0
0
VERTEX
8
0
10
461.590920
20
385.056304
70
0
0
SEQEND
8
0
0
POLYLINE
8
0
62
10
70
0
10
0.000000
20
0.000000
66
1
0
VERTEX
8
0
10
381.591022
20
385.056304
70
0
0
VERTEX
8
0
10
381.393081
20
386.027764
70
0
0
VERTEX
8
0
10
380.856975
20
386.820743
70
0
0
VERTEX
8
0
10
380.062895
20
387.355216
70
0
0
VERTEX
8
0
10
379.091030
20
387.551158
70
0
0
VERTEX
8
0
10
378.119165
20
387.355216
70
0
0
VERTEX
8
0
10
377.325085
20
386.820743
70
0
0
VERTEX
8
0
10
376.788979
20
386.027764
70
0
0
VERTEX
8
0
10
376.591038
20
385.056304
70
0
0
VERTEX
8
0
10
376.788979
20
384.084845
70
0
0
VERTEX
8
0
10
377.325085
20
383.291865
70
0
0
VERTEX
8
0
10
378.119165
20
382.757392
70
0
0
VERTEX
8
0
10
379.091030
20
382.561451
70
0
0
VERTEX
8
0
10
380.062895
20
382.757392
70
0
0
VERTEX
8
0
10
380.856975
20
383.291865
70
0
0
VERTEX
8
0
10
381.393081
20
384.084845
70
0
0
VERTEX
8
0
10
381.591022
20
385.056304
70
0
0
VERTEX
8
0
10
381.591022
20
385.056304
70
0
0
SEQEND
8
0
0
POLYLINE
8
0
62
10
70
0
10
0.000000
20
0.000000
66
1
0
VERTEX
8
0
10
494.590876
20
162.556569
70
0
0
VERTEX
8
0
10
494.392935
20
163.528029
70
0
0
VERTEX
8
0
10
493.856829
20
164.321008
70
0
0
VERTEX
8
0
10
493.062748
20
164.855481
70
0
0
VERTEX
8
0
10
492.090884
20
165.051422
70
0
0
VERTEX
8
0
10
491.119019
20
164.855481
70
0
0
VERTEX
8
0
10
490.324938
20
164.321008
70
0
0
VERTEX
8
0
10
489.788832
20
163.528029
70
0
0
VERTEX
8
0
10
489.590892
20
162.556569
70
0
0
VERTEX
8
0
10
489.788832
20
161.585110
70
0
0
VERTEX
8
0
10
490.324938
20
160.792130
70
0
0
VERTEX
8
0
10
491.119019
20
160.257657
70
0
0
VERTEX
8
0
10
492.090884
20
160.061716
70
0
0
VERTEX
8
0
10
493.062748
20
160.257657
70
0
0
VERTEX
8
0
10
493.856829
20
160.792130
70
0
0
VERTEX
8
0
10
494.392935
20
161.585110
70
0
0
VERTEX
8
0
10
494.590876
20
162.556569
70
0
0
VERTEX
8
0
10
494.590876
20
162.556569
70
0
0
SEQEND
8
0
0
POLYLINE
8
0
62
10
70
0
10
0.000000
20
0.000000
66
1
0
VERTEX
8
0
10
494.590876
20
255.556470
70
0
0
VERTEX
8
0
10
494.392935
20
256.527929
70
0
0
VERTEX
8
0
10
493.856829
20
257.320908
70
0
0
VERTEX
8
0
10
493.062748
20
257.855382
70
0
0
VERTEX
8
0
10
492.090884
20
258.051323
70
0
0
VERTEX
8
0
10
491.119019
20
257.855382
70
0
0
VERTEX
8
0
10
490.324938
20
257.320908
70
0
0
VERTEX
8
0
10
489.788832
20
256.527929
70
0
0
VERTEX
8
0
10
489.590892
20
255.556470
70
0
0
VERTEX
8
0
10
489.788832
20
254.585010
70
0
0
VERTEX
8
0
10
490.324938
20
253.792031
70
0
0
VERTEX
8
0
10
491.119019
20
253.257558
70
0
0
VERTEX
8
0
10
492.090884
20
253.061616
70
0
0
VERTEX
8
0
10
493.062748
20
253.257558
70
0
0
VERTEX
8
0
10
493.856829
20
253.792031
70
0
0
VERTEX
8
0
10
494.392935
20
254.585010
70
0
0
VERTEX
8
0
10
494.590876
20
255.556470
70
0
0
VERTEX
8
0
10
494.590876
20
255.556470
70
0
0
SEQEND
8
0
0
POLYLINE
8
0
62
10
70
0
10
0.000000
20
0.000000
66
1
0
VERTEX
8
0
10
121.591330
20
421.056261
70
0
0
VERTEX
8
0
10
121.393426
20
422.027762
70
0
0
VERTEX
8
0
10
120.857329
20
422.820784
70
0
0
VERTEX
8
0
10
120.063234
20
423.355290
70
0
0
VERTEX
8
0
10
119.091338
20
423.551244
70
0
0
VERTEX
8
0
10
118.119442
20
423.355290
70
0
0
VERTEX
8
0
10
117.325346
20
422.820784
70
0
0
VERTEX
8
0
10
116.789249
20
422.027762
70
0
0
VERTEX
8
0
10
116.591346
20
421.056261
70
0
0
VERTEX
8
0
10
116.789249
20
420.084760
70
0
0
VERTEX
8
0
10
117.325346
20
419.291738
70
0
0
VERTEX
8
0
10
118.119442
20
418.757232
70
0
0
VERTEX
8
0
10
119.091338
20
418.561277
70
0
0
VERTEX
8
0
10
120.063234
20
418.757232
70
0
0
VERTEX
8
0
10
120.857329
20
419.291738
70
0
0
VERTEX
8
0
10
121.393426
20
420.084760
70
0
0
VERTEX
8
0
10
121.591330
20
421.056261
70
0
0
VERTEX
8
0
10
121.591330
20
421.056261
70
0
0
SEQEND
8
0
0
POLYLINE
8
0
62
10
70
0
10
0.000000
20
0.000000
66
1
0
VERTEX
8
0
10
201.591235
20
421.056261
70
0
0
VERTEX
8
0
10
201.504697
20
421.708554
70
0
0
VERTEX
8
0
10
201.256299
20
422.306259
70
0
0
VERTEX
8
0
10
200.862870
20
422.820231
70
0
0
VERTEX
8
0
10
200.341237
20
423.221322
70
0
0
VERTEX
8
0
10
199.733065
20
423.472524
70
0
0
VERTEX
8
0
10
199.091238
20
423.556258
70
0
0
VERTEX
8
0
10
198.449412
20
423.472524
70
0
0
VERTEX
8
0
10
197.841240
20
423.221322
70
0
0
VERTEX
8
0
10
197.319606
20
422.820231
70
0
0
VERTEX
8
0
10
196.926177
20
422.306259
70
0
0
VERTEX
8
0
10
196.677780
20
421.708554
70
0
0
VERTEX
8
0
10
196.591241
20
421.056261
70
0
0
VERTEX
8
0
10
196.677780
20
420.403967
70
0
0
VERTEX
8
0
10
196.926177
20
419.806262
70
0
0
VERTEX
8
0
10
197.319606
20
419.292291
70
0
0
VERTEX
8
0
10
197.841240
20
418.891200
70
0
0
VERTEX
8
0
10
198.449412
20
418.639998
70
0
0
VERTEX
8
0
10
199.091238
20
418.556264
70
0
0
VERTEX
8
0
10
199.733065
20
418.639998
70
0
0
VERTEX
8
0
10
200.341237
20
418.891200
70
0
0
VERTEX
8
0
10
200.862870
20
419.292291
70
0
0
VERTEX
8
0
10
201.256299
20
419.806262
70
0
0
VERTEX
8
0
10
201.504697
20
420.403967
70
0
0
VERTEX
8
0
10
201.591235
20
421.056261
70
0
0
VERTEX
8
0
10
201.591235
20
421.056261
70
0
0
SEQEND
8
0
0
POLYLINE
8
0
62
10
70
0
10
0.000000
20
0.000000
66
1
0
VERTEX
8
0
10
88.591374
20
198.556526
70
0
0
VERTEX
8
0
10
88.393471
20
199.528027
70
0
0
VERTEX
8
0
10
87.857373
20
200.321049
70
0
0
VERTEX
8
0
10
87.063278
20
200.855555
70
0
0
VERTEX
8
0
10
86.091382
20
201.051509
70
0
0
VERTEX
8
0
10
85.119486
20
200.855555
70
0
0
VERTEX
8
0
10
84.325390
20
200.321049
70
0
0
VERTEX
8
0
10
83.789293
20
199.528027
70
0
0
VERTEX
8
0
10
83.591390
20
198.556526
70
0
0
VERTEX
8
0
10
83.789293
20
197.585025
70
0
0
VERTEX
8
0
10
84.325390
20
196.792003
70
0
0
VERTEX
8
0
10
85.119486
20
196.257497
70
0
0
VERTEX
8
0
10
86.091382
20
196.061542
70
0
0
VERTEX
8
0
10
87.063278
20
196.257497
70
0
0
VERTEX
8
0
10
87.857373
20
196.792003
70
0
0
VERTEX
8
0
10
88.393471
20
197.585025
70
0
0
VERTEX
8
0
10
88.591374
20
198.556526
70
0
0
VERTEX
8
0
10
88.591374
20
198.556526
70
0
0
SEQEND
8
0
0
POLYLINE
8
0
62
10
70
0
10
0.000000
20
0.000000
66
1
0
VERTEX
8
0
10
121.591330
20
69.056694
70
0
0
VERTEX
8
0
10
121.393426
20
70.028195
70
0
0
VERTEX
8
0
10
120.857329
20
70.821217
70
0
0
VERTEX
8
0
10
120.063234
20
71.355723
70
0
0
VERTEX
8
0
10
119.091338
20
71.551677
70
0
0
VERTEX
8
0
10
118.119442
20
71.355723
70
0
0
VERTEX
8
0
10
117.325346
20
70.821217
70
0
0
VERTEX
8
0
10
116.789249
20
70.028195
70
0
0
VERTEX
8
0
10
116.591346
20
69.056694
70
0
0
VERTEX
8
0
10
116.789249
20
68.085193
70
0
0
VERTEX
8
0
10
117.325346
20
67.292171
70
0
0
VERTEX
8
0
10
118.119442
20
66.757665
70
0
0
VERTEX
8
0
10
119.091338
20
66.561711
70
0
0
VERTEX
8
0
10
120.063234
20
66.757665
70
0
0
VERTEX
8
0
10
120.857329
20
67.292171
70
0
0
VERTEX
8
0
10
121.393426
20
68.085193
70
0
0
VERTEX
8
0
10
121.591330
20
69.056694
70
0
0
VERTEX
8
0
10
121.591330
20
69.056694
70
0
0
SEQEND
8
0
0
POLYLINE
8
0
62
10
70
0
10
0.000000
20
0.000000
66
1
0
VERTEX
8
0
10
55.591418
20
145.056600
70
0
0
VERTEX
8
0
10
55.393515
20
146.028101
70
0
0
VERTEX
8
0
10
54.857417
20
146.821123
70
0
0
VERTEX
8
0
10
54.063322
20
147.355629
70
0
0
VERTEX
8
0
10
53.091426
20
147.551583
70
0
0
VERTEX
8
0
10
52.119530
20
147.355629
70
0
0
VERTEX
8
0
10
51.325435
20
146.821123
70
0
0
VERTEX
8
0
10
50.789337
20
146.028101
70
0
0
VERTEX
8
0
10
50.591434
20
145.056600
70
0
0
VERTEX
8
0
10
50.789337
20
144.085098
70
0
0
VERTEX
8
0
10
51.325435
20
143.292077
70
0
0
VERTEX
8
0
10
52.119530
20
142.757571
70
0
0
VERTEX
8
0
10
53.091426
20
142.561616
70
0
0
VERTEX
8
0
10
54.063322
20
142.757571
70
0
0
VERTEX
8
0
10
54.857417
20
143.292077
70
0
0
VERTEX
8
0
10
55.393515
20
144.085098
70
0
0
VERTEX
8
0
10
55.591418
20
145.056600
70
0
0
VERTEX
8
0
10
55.591418
20
145.056600
70
0
0
SEQEND
8
0
0
POLYLINE
8
0
62
10
70
0
10
0.000000
20
0.000000
66
1
0
VERTEX
8
0
10
55.591418
20
345.056355
70
0
0
VERTEX
8
0
10
55.393515
20
346.027856
70
0
0
VERTEX
8
0
10
54.857417
20
346.820878
70
0
0
VERTEX
8
0
10
54.063322
20
347.355384
70
0
0
VERTEX
8
0
10
53.091426
20
347.551339
70
0
0
VERTEX
8
0
10
52.119530
20
347.355384
70
0
0
VERTEX
8
0
10
51.325435
20
346.820878
70
0
0
VERTEX
8
0
10
50.789337
20
346.027856
70
0
0
VERTEX
8
0
10
50.591434
20
345.056355
70
0
0
VERTEX
8
0
10
50.789337
20
344.084854
70
0
0
VERTEX
8
0
10
51.325435
20
343.291832
70
0
0
VERTEX
8
0
10
52.119530
20
342.757326
70
0
0
VERTEX
8
0
10
53.091426
20
342.561372
70
0
0
VERTEX
8
0
10
54.063322
20
342.757326
70
0
0
VERTEX
8
0
10
54.857417
20
343.291832
70
0
0
VERTEX
8
0
10
55.393515
20
344.084854
70
0
0
VERTEX
8
0
10
55.591418
20
345.056355
70
0
0
VERTEX
8
0
10
55.591418
20
345.056355
70
0
0
SEQEND
8
0
0
POLYLINE
8
0
62
10
70
0
10
0.000000
20
0.000000
66
1
0
VERTEX
8
0
10
88.591374
20
291.556429
70
0
0
VERTEX
8
0
10
88.393471
20
292.527930
70
0
0
VERTEX
8
0
10
87.857373
20
293.320952
70
0
0
VERTEX
8
0
10
87.063278
20
293.855458
70
0
0
VERTEX
8
0
10
86.091382
20
294.051412
70
0
0
VERTEX
8
0
10
85.119486
20
293.855458
70
0
0
VERTEX
8
0
10
84.325390
20
293.320952
70
0
0
VERTEX
8
0
10
83.789293
20
292.527930
70
0
0
VERTEX
8
0
10
83.591390
20
291.556429
70
0
0
VERTEX
8
0
10
83.789293
20
290.584928
70
0
0
VERTEX
8
0
10
84.325390
20
289.791906
70
0
0
VERTEX
8
0
10
85.119486
20
289.257400
70
0
0
VERTEX
8
0
10
86.091382
20
289.061446
70
0
0
VERTEX
8
0
10
87.063278
20
289.257400
70
0
0
VERTEX
8
0
10
87.857373
20
289.791906
70
0
0
VERTEX
8
0
10
88.393471
20
290.584928
70
0
0
VERTEX
8
0
10
88.591374
20
291.556429
70
0
0
VERTEX
8
0
10
88.591374
20
291.556429
70
0
0
SEQEND
8
0
0
POLYLINE
8
0
62
10
70
0
10
0.000000
20
0.000000
66
1
0
VERTEX
8
0
10
267.591176
20
145.056600
70
0
0
VERTEX
8
0
10
267.504635
20
145.708895
70
0
0
VERTEX
8
0
10
267.256236
20
146.306602
70
0
0
VERTEX
8
0
10
266.862805
20
146.820575
70
0
0
VERTEX
8
0
10
266.341170
20
147.221668
70
0
0
VERTEX
8
0
10
265.732996
20
147.472870
70
0
0
VERTEX
8
0
10
265.091167
20
147.556605
70
0
0
VERTEX
8
0
10
264.449339
20
147.472870
70
0
0
VERTEX
8
0
10
263.841165
20
147.221668
70
0
0
VERTEX
8
0
10
263.319530
20
146.820575
70
0
0
VERTEX
8
0
10
262.926099
20
146.306602
70
0
0
VERTEX
8
0
10
262.677701
20
145.708895
70
0
0
VERTEX
8
0
10
262.591162
20
145.056600
70
0
0
VERTEX
8
0
10
262.677703
20
144.404304
70
0
0
VERTEX
8
0
10
262.926103
20
143.806597
70
0
0
VERTEX
8
0
10
263.319534
20
143.292624
70
0
0
VERTEX
8
0
10
263.841169
20
142.891532
70
0
0
VERTEX
8
0
10
264.449343
20
142.640329
70
0
0
VERTEX
8
0
10
265.091171
20
142.556595
70
0
0
VERTEX
8
0
10
265.733000
20
142.640329
70
0
0
VERTEX
8
0
10
266.341174
20
142.891532
70
0
0
VERTEX
8
0
10
266.862809
20
143.292624
70
0
0
VERTEX
8
0
10
267.256239
20
143.806597
70
0
0
VERTEX
8
0
10
267.504638
20
144.404304
70
0
0
VERTEX
8
0
10
267.591176
20
145.056600
70
0
0
VERTEX
8
0
10
267.591176
20
145.056600
70
0
0
SEQEND
8
0
0
POLYLINE
8
0
62
10
70
0
10
0.000000
20
0.000000
66
1
0
VERTEX
8
0
10
267.591176
20
345.056355
70
0
0
VERTEX
8
0
10
267.504635
20
345.708651
70
0
0
VERTEX
8
0
10
267.256236
20
346.306358
70
0
0
VERTEX
8
0
10
266.862805
20
346.820330
70
0
0
VERTEX
8
0
10
266.341170
20
347.221423
70
0
0
VERTEX
8
0
10
265.732996
20
347.472626
70
0
0
VERTEX
8
0
10
265.091167
20
347.556360
70
0
0
VERTEX
8
0
10
264.449339
20
347.472626
70
0
0
VERTEX
8
0
10
263.841165
20
347.221423
70
0
0
VERTEX
8
0
10
263.319530
20
346.820330
70
0
0
VERTEX
8
0
10
262.926099
20
346.306358
70
0
0
VERTEX
8
0
10
262.677701
20
345.708651
70
0
0
VERTEX
8
0
10
262.591162
20
345.056355
70
0
0
VERTEX
8
0
10
262.677703
20
344.404060
70
0
0
VERTEX
8
0
10
262.926103
20
343.806353
70
0
0
VERTEX
8
0
10
263.319534
20
343.292380
70
0
0
VERTEX
8
0
10
263.841169
20
342.891287
70
0
0
VERTEX
8
0
10
264.449343
20
342.640084
70
0
0
VERTEX
8
0
10
265.091171
20
342.556350
70
0
0
VERTEX
8
0
10
265.733000
20
342.640084
70
0
0
VERTEX
8
0
10
266.341174
20
342.891287
70
0
0
VERTEX
8
0
10
266.862809
20
343.292380
70
0
0
VERTEX
8
0
10
267.256239
20
343.806353
70
0
0
VERTEX
8
0
10
267.504638
20
344.404060
70
0
0
VERTEX
8
0
10
267.591176
20
345.056355
70
0
0
VERTEX
8
0
10
267.591176
20
345.056355
70
0
0
SEQEND
8
0
0
POLYLINE
8
0
62
10
70
0
10
0.000000
20
0.000000
66
1
0
VERTEX
8
0
10
201.591235
20
69.056694
70
0
0
VERTEX
8
0
10
201.504697
20
69.708987
70
0
0
VERTEX
8
0
10
201.256299
20
70.306693
70
0
0
VERTEX
8
0
10
200.862870
20
70.820664
70
0
0
VERTEX
8
0
10
200.341237
20
71.221755
70
0
0
VERTEX
8
0
10
199.733065
20
71.472957
70
0
0
VERTEX
8
0
10
199.091238
20
71.556691
70
0
0
VERTEX
8
0
10
198.449412
20
71.472957
70
0
0
VERTEX
8
0
10
197.841240
20
71.221755
70
0
0
VERTEX
8
0
10
197.319606
20
70.820664
70
0
0
VERTEX
8
0
10
196.926177
20
70.306693
70
0
0
VERTEX
8
0
10
196.677780
20
69.708987
70
0
0
VERTEX
8
0
10
196.591241
20
69.056694
70
0
0
VERTEX
8
0
10
196.677780
20
68.404401
70
0
0
VERTEX
8
0
10
196.926177
20
67.806695
70
0
0
VERTEX
8
0
10
197.319606
20
67.292724
70
0
0
VERTEX
8
0
10
197.841240
20
66.891633
70
0
0
VERTEX
8
0
10
198.449412
20
66.640431
70
0
0
VERTEX
8
0
10
199.091238
20
66.556697
70
0
0
VERTEX
8
0
10
199.733065
20
66.640431
70
0
0
VERTEX
8
0
10
200.341237
20
66.891633
70
0
0
VERTEX
8
0
10
200.862870
20
67.292724
70
0
0
VERTEX
8
0
10
201.256299
20
67.806695
70
0
0
VERTEX
8
0
10
201.504697
20
68.404401
70
0
0
VERTEX
8
0
10
201.591235
20
69.056694
70
0
0
VERTEX
8
0
10
201.591235
20
69.056694
70
0
0
SEQEND
8
0
0
POLYLINE
8
0
62
50
70
0
10
0.000000
20
0.000000
66
1
0
VERTEX
8
0
10
9.091749
20
509.057414
70
0
0
VERTEX
8
0
10
9.091749
20
9.056387
70
0
0
SEQEND
8
0
0
POLYLINE
8
0
62
50
70
0
10
0.000000
20
0.000000
66
1
0
VERTEX
8
0
10
809.090210
20
9.056387
70
0
0
VERTEX
8
0
10
809.090210
20
509.057414
70
0
0
SEQEND
8
0
0
POLYLINE
8
0
62
50
70
0
10
0.000000
20
0.000000
66
1
0
VERTEX
8
0
10
809.090210
20
509.057414
70
0
0
VERTEX
8
0
10
9.091749
20
509.057414
70
0
0
SEQEND
8
0
0
POLYLINE
8
0
62
170
70
0
10
0.000000
20
0.000000
66
1
0
VERTEX
8
0
10
549.090846
20
9.056387
70
0
0
VERTEX
8
0
10
549.090846
20
409.055623
70
0
0
SEQEND
8
0
0
POLYLINE
8
0
62
170
70
0
10
0.000000
20
0.000000
66
1
0
VERTEX
8
0
10
809.090210
20
409.055623
70
0
0
VERTEX
8
0
10
289.091217
20
409.055623
70
0
0
SEQEND
8
0
0
POLYLINE
8
0
62
50
70
0
10
0.000000
20
0.000000
66
1
0
VERTEX
8
0
10
9.091749
20
9.056387
70
0
0
VERTEX
8
0
10
809.090210
20
9.056387
70
0
0
SEQEND
8
0
0
POLYLINE
8
0
62
170
70
0
10
0.000000
20
0.000000
66
1
0
VERTEX
8
0
10
289.091217
20
481.056594
70
0
0
VERTEX
8
0
10
289.091217
20
9.056387
70
0
0
SEQEND
8
0
0
POLYLINE
8
0
62
170
70
0
10
0.000000
20
0.000000
66
1
0
VERTEX
8
0
10
19.090341
20
481.056594
70
0
0
VERTEX
8
0
10
289.091217
20
481.056594
70
0
0
SEQEND
8
0
0
POLYLINE
8
0
62
170
70
0
10
0.000000
20
0.000000
66
1
0
VERTEX
8
0
10
19.090341
20
9.056387
70
0
0
VERTEX
8
0
10
19.090341
20
481.056594
70
0
0
SEQEND
8
0
 0 
ENDSEC
 0 
EOF