999
"DXF R12 Output" (www.mydxf.blogspot.com)
 0 
SECTION
 2 
HEADER
 9 
$ACADVER
 1 
AC1009
 9 
$EXTMIN
 10 
 0 
 20 
 0 
 9 
$EXTMAX
 10 
 8.5 
 20 
 11 
 0 
ENDSEC
 0 
SECTION
 2 
ENTITIES
0
POLYLINE
8
0
62
10
70
0
10
0.000000
20
0.000000
66
1
0
VERTEX
8
0
10
680.008684
20
65.067491
70
0
0
VERTEX
8
0
10
679.810781
20
66.038992
70
0
0
VERTEX
8
0
10
679.274684
20
66.832013
70
0
0
VERTEX
8
0
10
678.480588
20
67.366519
70
0
0
VERTEX
8
0
10
677.508692
20
67.562474
70
0
0
VERTEX
8
0
10
676.536796
20
67.366519
70
0
0
VERTEX
8
0
10
675.742701
20
66.832013
70
0
0
VERTEX
8
0
10
675.206604
20
66.038992
70
0
0
VERTEX
8
0
10
675.008700
20
65.067491
70
0
0
VERTEX
8
0
10
675.206604
20
64.095989
70
0
0
VERTEX
8
0
10
675.742701
20
63.302968
70
0
0
VERTEX
8
0
10
676.536796
20
62.768462
70
0
0
VERTEX
8
0
10
677.508692
20
62.572507
70
0
0
VERTEX
8
0
10
678.480588
20
62.768462
70
0
0
VERTEX
8
0
10
679.274684
20
63.302968
70
0
0
VERTEX
8
0
10
679.810781
20
64.095989
70
0
0
VERTEX
8
0
10
680.008684
20
65.067491
70
0
0
VERTEX
8
0
10
680.008684
20
65.067491
70
0
0
SEQEND
8
0
0
POLYLINE
8
0
62
10
70
0
10
0.000000
20
0.000000
66
1
0
VERTEX
8
0
10
760.008609
20
417.067068
70
0
0
VERTEX
8
0
10
759.922070
20
417.719363
70
0
0
VERTEX
8
0
10
759.673671
20
418.317071
70
0
0
VERTEX
8
0
10
759.280241
20
418.831043
70
0
0
VERTEX
8
0
10
758.758606
20
419.232136
70
0
0
VERTEX
8
0
10
758.150432
20
419.483339
70
0
0
VERTEX
8
0
10
757.508603
20
419.567073
70
0
0
VERTEX
8
0
10
756.866775
20
419.483339
70
0
0
VERTEX
8
0
10
756.258601
20
419.232136
70
0
0
VERTEX
8
0
10
755.736966
20
418.831043
70
0
0
VERTEX
8
0
10
755.343536
20
418.317071
70
0
0
VERTEX
8
0
10
755.095137
20
417.719363
70
0
0
VERTEX
8
0
10
755.008598
20
417.067068
70
0
0
VERTEX
8
0
10
755.095137
20
416.414773
70
0
0
VERTEX
8
0
10
755.343536
20
415.817065
70
0
0
VERTEX
8
0
10
755.736966
20
415.303093
70
0
0
VERTEX
8
0
10
756.258601
20
414.902000
70
0
0
VERTEX
8
0
10
756.866775
20
414.650797
70
0
0
VERTEX
8
0
10
757.508603
20
414.567063
70
0
0
VERTEX
8
0
10
758.150432
20
414.650797
70
0
0
VERTEX
8
0
10
758.758606
20
414.902000
70
0
0
VERTEX
8
0
10
759.280241
20
415.303093
70
0
0
VERTEX
8
0
10
759.673671
20
415.817065
70
0
0
VERTEX
8
0
10
759.922070
20
416.414773
70
0
0
VERTEX
8
0
10
760.008609
20
417.067068
70
0
0
VERTEX
8
0
10
760.008609
20
417.067068
70
0
0
SEQEND
8
0
0
POLYLINE
8
0
62
10
70
0
10
0.000000
20
0.000000
66
1
0
VERTEX
8
0
10
796.008539
20
341.067162
70
0
0
VERTEX
8
0
10
795.810636
20
342.038664
70
0
0
VERTEX
8
0
10
795.274538
20
342.831685
70
0
0
VERTEX
8
0
10
794.480443
20
343.366191
70
0
0
VERTEX
8
0
10
793.508547
20
343.562146
70
0
0
VERTEX
8
0
10
792.536651
20
343.366191
70
0
0
VERTEX
8
0
10
791.742556
20
342.831685
70
0
0
VERTEX
8
0
10
791.206458
20
342.038664
70
0
0
VERTEX
8
0
10
791.008555
20
341.067162
70
0
0
VERTEX
8
0
10
791.206458
20
340.095661
70
0
0
VERTEX
8
0
10
791.742556
20
339.302639
70
0
0
VERTEX
8
0
10
792.536651
20
338.768133
70
0
0
VERTEX
8
0
10
793.508547
20
338.572179
70
0
0
VERTEX
8
0
10
794.480443
20
338.768133
70
0
0
VERTEX
8
0
10
795.274538
20
339.302639
70
0
0
VERTEX
8
0
10
795.810636
20
340.095661
70
0
0
VERTEX
8
0
10
796.008539
20
341.067162
70
0
0
VERTEX
8
0
10
796.008539
20
341.067162
70
0
0
SEQEND
8
0
0
POLYLINE
8
0
62
10
70
0
10
0.000000
20
0.000000
66
1
0
VERTEX
8
0
10
796.008539
20
141.067396
70
0
0
VERTEX
8
0
10
795.810636
20
142.038898
70
0
0
VERTEX
8
0
10
795.274538
20
142.831919
70
0
0
VERTEX
8
0
10
794.480443
20
143.366425
70
0
0
VERTEX
8
0
10
793.508547
20
143.562380
70
0
0
VERTEX
8
0
10
792.536651
20
143.366425
70
0
0
VERTEX
8
0
10
791.742556
20
142.831919
70
0
0
VERTEX
8
0
10
791.206458
20
142.038898
70
0
0
VERTEX
8
0
10
791.008555
20
141.067396
70
0
0
VERTEX
8
0
10
791.206458
20
140.095895
70
0
0
VERTEX
8
0
10
791.742556
20
139.302873
70
0
0
VERTEX
8
0
10
792.536651
20
138.768367
70
0
0
VERTEX
8
0
10
793.508547
20
138.572413
70
0
0
VERTEX
8
0
10
794.480443
20
138.768367
70
0
0
VERTEX
8
0
10
795.274538
20
139.302873
70
0
0
VERTEX
8
0
10
795.810636
20
140.095895
70
0
0
VERTEX
8
0
10
796.008539
20
141.067396
70
0
0
VERTEX
8
0
10
796.008539
20
141.067396
70
0
0
SEQEND
8
0
0
POLYLINE
8
0
62
10
70
0
10
0.000000
20
0.000000
66
1
0
VERTEX
8
0
10
644.008727
20
141.067396
70
0
0
VERTEX
8
0
10
643.810787
20
142.038856
70
0
0
VERTEX
8
0
10
643.274681
20
142.831835
70
0
0
VERTEX
8
0
10
642.480600
20
143.366308
70
0
0
VERTEX
8
0
10
641.508736
20
143.562250
70
0
0
VERTEX
8
0
10
640.536871
20
143.366308
70
0
0
VERTEX
8
0
10
639.742790
20
142.831835
70
0
0
VERTEX
8
0
10
639.206684
20
142.038856
70
0
0
VERTEX
8
0
10
639.008744
20
141.067396
70
0
0
VERTEX
8
0
10
639.206684
20
140.095937
70
0
0
VERTEX
8
0
10
639.742790
20
139.302957
70
0
0
VERTEX
8
0
10
640.536871
20
138.768484
70
0
0
VERTEX
8
0
10
641.508736
20
138.572543
70
0
0
VERTEX
8
0
10
642.480600
20
138.768484
70
0
0
VERTEX
8
0
10
643.274681
20
139.302957
70
0
0
VERTEX
8
0
10
643.810787
20
140.095937
70
0
0
VERTEX
8
0
10
644.008727
20
141.067396
70
0
0
VERTEX
8
0
10
644.008727
20
141.067396
70
0
0
SEQEND
8
0
0
POLYLINE
8
0
62
10
70
0
10
0.000000
20
0.000000
66
1
0
VERTEX
8
0
10
798.008548
20
241.067282
70
0
0
VERTEX
8
0
10
797.915806
20
241.973014
70
0
0
VERTEX
8
0
10
797.652743
20
242.816455
70
0
0
VERTEX
8
0
10
797.237411
20
243.579581
70
0
0
VERTEX
8
0
10
796.687863
20
244.244370
70
0
0
VERTEX
8
0
10
796.022151
20
244.792801
70
0
0
VERTEX
8
0
10
795.258328
20
245.206850
70
0
0
VERTEX
8
0
10
794.414447
20
245.468496
70
0
0
VERTEX
8
0
10
793.508560
20
245.559717
70
0
0
VERTEX
8
0
10
792.602673
20
245.468496
70
0
0
VERTEX
8
0
10
791.758792
20
245.206850
70
0
0
VERTEX
8
0
10
790.994969
20
244.792801
70
0
0
VERTEX
8
0
10
790.329258
20
244.244370
70
0
0
VERTEX
8
0
10
789.779709
20
243.579581
70
0
0
VERTEX
8
0
10
789.364377
20
242.816455
70
0
0
VERTEX
8
0
10
789.101314
20
241.973014
70
0
0
VERTEX
8
0
10
789.008572
20
241.067282
70
0
0
VERTEX
8
0
10
789.101314
20
240.161549
70
0
0
VERTEX
8
0
10
789.364377
20
239.318109
70
0
0
VERTEX
8
0
10
789.779709
20
238.554983
70
0
0
VERTEX
8
0
10
790.329258
20
237.890194
70
0
0
VERTEX
8
0
10
790.994969
20
237.341763
70
0
0
VERTEX
8
0
10
791.758792
20
236.927714
70
0
0
VERTEX
8
0
10
792.602673
20
236.666068
70
0
0
VERTEX
8
0
10
793.508560
20
236.574847
70
0
0
VERTEX
8
0
10
794.414447
20
236.666068
70
0
0
VERTEX
8
0
10
795.258328
20
236.927714
70
0
0
VERTEX
8
0
10
796.022151
20
237.341763
70
0
0
VERTEX
8
0
10
796.687863
20
237.890194
70
0
0
VERTEX
8
0
10
797.237411
20
238.554983
70
0
0
VERTEX
8
0
10
797.652743
20
239.318109
70
0
0
VERTEX
8
0
10
797.915806
20
240.161549
70
0
0
VERTEX
8
0
10
798.008548
20
241.067282
70
0
0
VERTEX
8
0
10
798.008548
20
241.067282
70
0
0
SEQEND
8
0
0
POLYLINE
8
0
62
10
70
0
10
0.000000
20
0.000000
66
1
0
VERTEX
8
0
10
760.008609
20
65.067491
70
0
0
VERTEX
8
0
10
759.922070
20
65.719786
70
0
0
VERTEX
8
0
10
759.673671
20
66.317493
70
0
0
VERTEX
8
0
10
759.280241
20
66.831466
70
0
0
VERTEX
8
0
10
758.758606
20
67.232558
70
0
0
VERTEX
8
0
10
758.150432
20
67.483761
70
0
0
VERTEX
8
0
10
757.508603
20
67.567496
70
0
0
VERTEX
8
0
10
756.866775
20
67.483761
70
0
0
VERTEX
8
0
10
756.258601
20
67.232558
70
0
0
VERTEX
8
0
10
755.736966
20
66.831466
70
0
0
VERTEX
8
0
10
755.343536
20
66.317493
70
0
0
VERTEX
8
0
10
755.095137
20
65.719786
70
0
0
VERTEX
8
0
10
755.008598
20
65.067491
70
0
0
VERTEX
8
0
10
755.095137
20
64.415195
70
0
0
VERTEX
8
0
10
755.343536
20
63.817488
70
0
0
VERTEX
8
0
10
755.736966
20
63.303515
70
0
0
VERTEX
8
0
10
756.258601
20
62.902423
70
0
0
VERTEX
8
0
10
756.866775
20
62.651220
70
0
0
VERTEX
8
0
10
757.508603
20
62.567485
70
0
0
VERTEX
8
0
10
758.150432
20
62.651220
70
0
0
VERTEX
8
0
10
758.758606
20
62.902423
70
0
0
VERTEX
8
0
10
759.280241
20
63.303515
70
0
0
VERTEX
8
0
10
759.673671
20
63.817488
70
0
0
VERTEX
8
0
10
759.922070
20
64.415195
70
0
0
VERTEX
8
0
10
760.008609
20
65.067491
70
0
0
VERTEX
8
0
10
760.008609
20
65.067491
70
0
0
SEQEND
8
0
0
POLYLINE
8
0
62
10
70
0
10
0.000000
20
0.000000
66
1
0
VERTEX
8
0
10
680.008684
20
417.067068
70
0
0
VERTEX
8
0
10
679.810781
20
418.038569
70
0
0
VERTEX
8
0
10
679.274684
20
418.831591
70
0
0
VERTEX
8
0
10
678.480588
20
419.366097
70
0
0
VERTEX
8
0
10
677.508692
20
419.562051
70
0
0
VERTEX
8
0
10
676.536796
20
419.366097
70
0
0
VERTEX
8
0
10
675.742701
20
418.831591
70
0
0
VERTEX
8
0
10
675.206604
20
418.038569
70
0
0
VERTEX
8
0
10
675.008700
20
417.067068
70
0
0
VERTEX
8
0
10
675.206604
20
416.095567
70
0
0
VERTEX
8
0
10
675.742701
20
415.302545
70
0
0
VERTEX
8
0
10
676.536796
20
414.768039
70
0
0
VERTEX
8
0
10
677.508692
20
414.572085
70
0
0
VERTEX
8
0
10
678.480588
20
414.768039
70
0
0
VERTEX
8
0
10
679.274684
20
415.302545
70
0
0
VERTEX
8
0
10
679.810781
20
416.095567
70
0
0
VERTEX
8
0
10
680.008684
20
417.067068
70
0
0
VERTEX
8
0
10
680.008684
20
417.067068
70
0
0
SEQEND
8
0
0
POLYLINE
8
0
62
10
70
0
10
0.000000
20
0.000000
66
1
0
VERTEX
8
0
10
644.008727
20
341.067162
70
0
0
VERTEX
8
0
10
643.810787
20
342.038622
70
0
0
VERTEX
8
0
10
643.274681
20
342.831601
70
0
0
VERTEX
8
0
10
642.480600
20
343.366074
70
0
0
VERTEX
8
0
10
641.508736
20
343.562016
70
0
0
VERTEX
8
0
10
640.536871
20
343.366074
70
0
0
VERTEX
8
0
10
639.742790
20
342.831601
70
0
0
VERTEX
8
0
10
639.206684
20
342.038622
70
0
0
VERTEX
8
0
10
639.008744
20
341.067162
70
0
0
VERTEX
8
0
10
639.206684
20
340.095703
70
0
0
VERTEX
8
0
10
639.742790
20
339.302723
70
0
0
VERTEX
8
0
10
640.536871
20
338.768250
70
0
0
VERTEX
8
0
10
641.508736
20
338.572309
70
0
0
VERTEX
8
0
10
642.480600
20
338.768250
70
0
0
VERTEX
8
0
10
643.274681
20
339.302723
70
0
0
VERTEX
8
0
10
643.810787
20
340.095703
70
0
0
VERTEX
8
0
10
644.008727
20
341.067162
70
0
0
VERTEX
8
0
10
644.008727
20
341.067162
70
0
0
SEQEND
8
0
0
POLYLINE
8
0
62
10
70
0
10
0.000000
20
0.000000
66
1
0
VERTEX
8
0
10
438.008981
20
105.067440
70
0
0
VERTEX
8
0
10
437.811078
20
106.038941
70
0
0
VERTEX
8
0
10
437.274980
20
106.831962
70
0
0
VERTEX
8
0
10
436.480885
20
107.366468
70
0
0
VERTEX
8
0
10
435.508989
20
107.562423
70
0
0
VERTEX
8
0
10
434.537093
20
107.366468
70
0
0
VERTEX
8
0
10
433.742998
20
106.831962
70
0
0
VERTEX
8
0
10
433.206900
20
106.038941
70
0
0
VERTEX
8
0
10
433.008997
20
105.067440
70
0
0
VERTEX
8
0
10
433.206900
20
104.095938
70
0
0
VERTEX
8
0
10
433.742998
20
103.302917
70
0
0
VERTEX
8
0
10
434.537093
20
102.768411
70
0
0
VERTEX
8
0
10
435.508989
20
102.572456
70
0
0
VERTEX
8
0
10
436.480885
20
102.768411
70
0
0
VERTEX
8
0
10
437.274980
20
103.302917
70
0
0
VERTEX
8
0
10
437.811078
20
104.095938
70
0
0
VERTEX
8
0
10
438.008981
20
105.067440
70
0
0
VERTEX
8
0
10
438.008981
20
105.067440
70
0
0
SEQEND
8
0
0
POLYLINE
8
0
62
10
70
0
10
0.000000
20
0.000000
66
1
0
VERTEX
8
0
10
554.008836
20
381.067111
70
0
0
VERTEX
8
0
10
553.810895
20
382.038571
70
0
0
VERTEX
8
0
10
553.274789
20
382.831550
70
0
0
VERTEX
8
0
10
552.480708
20
383.366023
70
0
0
VERTEX
8
0
10
551.508844
20
383.561965
70
0
0
VERTEX
8
0
10
550.536979
20
383.366023
70
0
0
VERTEX
8
0
10
549.742898
20
382.831550
70
0
0
VERTEX
8
0
10
549.206792
20
382.038571
70
0
0
VERTEX
8
0
10
549.008852
20
381.067111
70
0
0
VERTEX
8
0
10
549.206792
20
380.095652
70
0
0
VERTEX
8
0
10
549.742898
20
379.302672
70
0
0
VERTEX
8
0
10
550.536979
20
378.768199
70
0
0
VERTEX
8
0
10
551.508844
20
378.572258
70
0
0
VERTEX
8
0
10
552.480708
20
378.768199
70
0
0
VERTEX
8
0
10
553.274789
20
379.302672
70
0
0
VERTEX
8
0
10
553.810895
20
380.095652
70
0
0
VERTEX
8
0
10
554.008836
20
381.067111
70
0
0
VERTEX
8
0
10
554.008836
20
381.067111
70
0
0
SEQEND
8
0
0
POLYLINE
8
0
62
10
70
0
10
0.000000
20
0.000000
66
1
0
VERTEX
8
0
10
474.008938
20
29.067534
70
0
0
VERTEX
8
0
10
473.810997
20
30.038993
70
0
0
VERTEX
8
0
10
473.274891
20
30.831973
70
0
0
VERTEX
8
0
10
472.480810
20
31.366446
70
0
0
VERTEX
8
0
10
471.508946
20
31.562387
70
0
0
VERTEX
8
0
10
470.537081
20
31.366446
70
0
0
VERTEX
8
0
10
469.743000
20
30.831973
70
0
0
VERTEX
8
0
10
469.206894
20
30.038993
70
0
0
VERTEX
8
0
10
469.008954
20
29.067534
70
0
0
VERTEX
8
0
10
469.206894
20
28.096074
70
0
0
VERTEX
8
0
10
469.743000
20
27.303095
70
0
0
VERTEX
8
0
10
470.537081
20
26.768622
70
0
0
VERTEX
8
0
10
471.508946
20
26.572680
70
0
0
VERTEX
8
0
10
472.480810
20
26.768622
70
0
0
VERTEX
8
0
10
473.274891
20
27.303095
70
0
0
VERTEX
8
0
10
473.810997
20
28.096074
70
0
0
VERTEX
8
0
10
474.008938
20
29.067534
70
0
0
VERTEX
8
0
10
474.008938
20
29.067534
70
0
0
SEQEND
8
0
0
POLYLINE
8
0
62
10
70
0
10
0.000000
20
0.000000
66
1
0
VERTEX
8
0
10
474.008938
20
381.067111
70
0
0
VERTEX
8
0
10
473.810997
20
382.038571
70
0
0
VERTEX
8
0
10
473.274891
20
382.831550
70
0
0
VERTEX
8
0
10
472.480810
20
383.366023
70
0
0
VERTEX
8
0
10
471.508946
20
383.561965
70
0
0
VERTEX
8
0
10
470.537081
20
383.366023
70
0
0
VERTEX
8
0
10
469.743000
20
382.831550
70
0
0
VERTEX
8
0
10
469.206894
20
382.038571
70
0
0
VERTEX
8
0
10
469.008954
20
381.067111
70
0
0
VERTEX
8
0
10
469.206894
20
380.095652
70
0
0
VERTEX
8
0
10
469.743000
20
379.302672
70
0
0
VERTEX
8
0
10
470.537081
20
378.768199
70
0
0
VERTEX
8
0
10
471.508946
20
378.572258
70
0
0
VERTEX
8
0
10
472.480810
20
378.768199
70
0
0
VERTEX
8
0
10
473.274891
20
379.302672
70
0
0
VERTEX
8
0
10
473.810997
20
380.095652
70
0
0
VERTEX
8
0
10
474.008938
20
381.067111
70
0
0
VERTEX
8
0
10
474.008938
20
381.067111
70
0
0
SEQEND
8
0
0
POLYLINE
8
0
62
10
70
0
10
0.000000
20
0.000000
66
1
0
VERTEX
8
0
10
554.008836
20
29.067534
70
0
0
VERTEX
8
0
10
553.810895
20
30.038993
70
0
0
VERTEX
8
0
10
553.274789
20
30.831973
70
0
0
VERTEX
8
0
10
552.480708
20
31.366446
70
0
0
VERTEX
8
0
10
551.508844
20
31.562387
70
0
0
VERTEX
8
0
10
550.536979
20
31.366446
70
0
0
VERTEX
8
0
10
549.742898
20
30.831973
70
0
0
VERTEX
8
0
10
549.206792
20
30.038993
70
0
0
VERTEX
8
0
10
549.008852
20
29.067534
70
0
0
VERTEX
8
0
10
549.206792
20
28.096074
70
0
0
VERTEX
8
0
10
549.742898
20
27.303095
70
0
0
VERTEX
8
0
10
550.536979
20
26.768622
70
0
0
VERTEX
8
0
10
551.508844
20
26.572680
70
0
0
VERTEX
8
0
10
552.480708
20
26.768622
70
0
0
VERTEX
8
0
10
553.274789
20
27.303095
70
0
0
VERTEX
8
0
10
553.810895
20
28.096074
70
0
0
VERTEX
8
0
10
554.008836
20
29.067534
70
0
0
VERTEX
8
0
10
554.008836
20
29.067534
70
0
0
SEQEND
8
0
0
POLYLINE
8
0
62
10
70
0
10
0.000000
20
0.000000
66
1
0
VERTEX
8
0
10
590.008792
20
105.067440
70
0
0
VERTEX
8
0
10
589.810852
20
106.038899
70
0
0
VERTEX
8
0
10
589.274746
20
106.831878
70
0
0
VERTEX
8
0
10
588.480665
20
107.366352
70
0
0
VERTEX
8
0
10
587.508800
20
107.562293
70
0
0
VERTEX
8
0
10
586.536936
20
107.366352
70
0
0
VERTEX
8
0
10
585.742855
20
106.831878
70
0
0
VERTEX
8
0
10
585.206749
20
106.038899
70
0
0
VERTEX
8
0
10
585.008809
20
105.067440
70
0
0
VERTEX
8
0
10
585.206749
20
104.095980
70
0
0
VERTEX
8
0
10
585.742855
20
103.303001
70
0
0
VERTEX
8
0
10
586.536936
20
102.768527
70
0
0
VERTEX
8
0
10
587.508800
20
102.572586
70
0
0
VERTEX
8
0
10
588.480665
20
102.768527
70
0
0
VERTEX
8
0
10
589.274746
20
103.303001
70
0
0
VERTEX
8
0
10
589.810852
20
104.095980
70
0
0
VERTEX
8
0
10
590.008792
20
105.067440
70
0
0
VERTEX
8
0
10
590.008792
20
105.067440
70
0
0
SEQEND
8
0
0
POLYLINE
8
0
62
10
70
0
10
0.000000
20
0.000000
66
1
0
VERTEX
8
0
10
590.008792
20
305.067206
70
0
0
VERTEX
8
0
10
589.810852
20
306.038665
70
0
0
VERTEX
8
0
10
589.274746
20
306.831644
70
0
0
VERTEX
8
0
10
588.480665
20
307.366118
70
0
0
VERTEX
8
0
10
587.508800
20
307.562059
70
0
0
VERTEX
8
0
10
586.536936
20
307.366118
70
0
0
VERTEX
8
0
10
585.742855
20
306.831644
70
0
0
VERTEX
8
0
10
585.206749
20
306.038665
70
0
0
VERTEX
8
0
10
585.008809
20
305.067206
70
0
0
VERTEX
8
0
10
585.206749
20
304.095746
70
0
0
VERTEX
8
0
10
585.742855
20
303.302767
70
0
0
VERTEX
8
0
10
586.536936
20
302.768294
70
0
0
VERTEX
8
0
10
587.508800
20
302.572352
70
0
0
VERTEX
8
0
10
588.480665
20
302.768294
70
0
0
VERTEX
8
0
10
589.274746
20
303.302767
70
0
0
VERTEX
8
0
10
589.810852
20
304.095746
70
0
0
VERTEX
8
0
10
590.008792
20
305.067206
70
0
0
VERTEX
8
0
10
590.008792
20
305.067206
70
0
0
SEQEND
8
0
0
POLYLINE
8
0
62
10
70
0
10
0.000000
20
0.000000
66
1
0
VERTEX
8
0
10
438.008981
20
305.067206
70
0
0
VERTEX
8
0
10
437.811078
20
306.038707
70
0
0
VERTEX
8
0
10
437.274980
20
306.831728
70
0
0
VERTEX
8
0
10
436.480885
20
307.366235
70
0
0
VERTEX
8
0
10
435.508989
20
307.562189
70
0
0
VERTEX
8
0
10
434.537093
20
307.366235
70
0
0
VERTEX
8
0
10
433.742998
20
306.831728
70
0
0
VERTEX
8
0
10
433.206900
20
306.038707
70
0
0
VERTEX
8
0
10
433.008997
20
305.067206
70
0
0
VERTEX
8
0
10
433.206900
20
304.095704
70
0
0
VERTEX
8
0
10
433.742998
20
303.302683
70
0
0
VERTEX
8
0
10
434.537093
20
302.768177
70
0
0
VERTEX
8
0
10
435.508989
20
302.572222
70
0
0
VERTEX
8
0
10
436.480885
20
302.768177
70
0
0
VERTEX
8
0
10
437.274980
20
303.302683
70
0
0
VERTEX
8
0
10
437.811078
20
304.095704
70
0
0
VERTEX
8
0
10
438.008981
20
305.067206
70
0
0
VERTEX
8
0
10
438.008981
20
305.067206
70
0
0
SEQEND
8
0
0
POLYLINE
8
0
62
10
70
0
10
0.000000
20
0.000000
66
1
0
VERTEX
8
0
10
592.008802
20
205.067325
70
0
0
VERTEX
8
0
10
591.853032
20
206.241455
70
0
0
VERTEX
8
0
10
591.405916
20
207.317326
70
0
0
VERTEX
8
0
10
590.697742
20
208.242475
70
0
0
VERTEX
8
0
10
589.758801
20
208.964441
70
0
0
VERTEX
8
0
10
588.664090
20
209.416605
70
0
0
VERTEX
8
0
10
587.508800
20
209.567326
70
0
0
VERTEX
8
0
10
586.353511
20
209.416605
70
0
0
VERTEX
8
0
10
585.258800
20
208.964441
70
0
0
VERTEX
8
0
10
584.319858
20
208.242475
70
0
0
VERTEX
8
0
10
583.611685
20
207.317326
70
0
0
VERTEX
8
0
10
583.164569
20
206.241455
70
0
0
VERTEX
8
0
10
583.008799
20
205.067325
70
0
0
VERTEX
8
0
10
583.164569
20
203.893195
70
0
0
VERTEX
8
0
10
583.611685
20
202.817325
70
0
0
VERTEX
8
0
10
584.319858
20
201.892175
70
0
0
VERTEX
8
0
10
585.258800
20
201.170210
70
0
0
VERTEX
8
0
10
586.353511
20
200.718045
70
0
0
VERTEX
8
0
10
587.508800
20
200.567324
70
0
0
VERTEX
8
0
10
588.664090
20
200.718045
70
0
0
VERTEX
8
0
10
589.758801
20
201.170210
70
0
0
VERTEX
8
0
10
590.697742
20
201.892175
70
0
0
VERTEX
8
0
10
591.405916
20
202.817325
70
0
0
VERTEX
8
0
10
591.853032
20
203.893195
70
0
0
VERTEX
8
0
10
592.008802
20
205.067325
70
0
0
VERTEX
8
0
10
592.008802
20
205.067325
70
0
0
SEQEND
8
0
0
POLYLINE
8
0
62
50
70
0
10
0.000000
20
0.000000
66
1
0
VERTEX
8
0
10
11.509803
20
505.067081
70
0
0
VERTEX
8
0
10
11.509803
20
5.068692
70
0
0
SEQEND
8
0
0
POLYLINE
8
0
62
50
70
0
10
0.000000
20
0.000000
66
1
0
VERTEX
8
0
10
811.508261
20
505.067081
70
0
0
VERTEX
8
0
10
11.509803
20
505.067081
70
0
0
SEQEND
8
0
0
POLYLINE
8
0
62
50
70
0
10
0.000000
20
0.000000
66
1
0
VERTEX
8
0
10
811.508261
20
505.067081
70
0
0
VERTEX
8
0
10
811.508261
20
5.068692
70
0
0
SEQEND
8
0
0
POLYLINE
8
0
62
50
70
0
10
0.000000
20
0.000000
66
1
0
VERTEX
8
0
10
11.509803
20
5.068692
70
0
0
VERTEX
8
0
10
811.508261
20
5.068692
70
0
0
SEQEND
8
0
0
POLYLINE
8
0
62
170
70
0
10
0.000000
20
0.000000
66
1
0
VERTEX
8
0
10
611.508913
20
5.068692
70
0
0
VERTEX
8
0
10
611.508913
20
477.066261
70
0
0
SEQEND
8
0
0
POLYLINE
8
0
62
170
70
0
10
0.000000
20
0.000000
66
1
0
VERTEX
8
0
10
611.508913
20
477.066261
70
0
0
VERTEX
8
0
10
811.508261
20
477.066261
70
0
0
SEQEND
8
0
0
POLYLINE
8
0
62
170
70
0
10
0.000000
20
0.000000
66
1
0
VERTEX
8
0
10
411.509036
20
405.067938
70
0
0
VERTEX
8
0
10
411.509036
20
5.068692
70
0
0
SEQEND
8
0
0
POLYLINE
8
0
62
170
70
0
10
0.000000
20
0.000000
66
1
0
VERTEX
8
0
10
611.508913
20
405.067938
70
0
0
VERTEX
8
0
10
411.509036
20
405.067938
70
0
0
SEQEND
8
0
 0 
ENDSEC
 0 
EOF