999
"DXF R12 Output" (www.mydxf.blogspot.com)
 0 
SECTION
 2 
HEADER
 9 
$ACADVER
 1 
AC1009
 9 
$EXTMIN
 10 
 0 
 20 
 0 
 9 
$EXTMAX
 10 
 8.5 
 20 
 11 
 0 
ENDSEC
 0 
SECTION
 2 
ENTITIES
0
POLYLINE
8
0
62
10
70
0
10
0.000000
20
0.000000
66
1
0
VERTEX
8
0
10
796.631420
20
493.474065
70
0
0
VERTEX
8
0
10
796.538678
20
494.379797
70
0
0
VERTEX
8
0
10
796.275615
20
495.223238
70
0
0
VERTEX
8
0
10
795.860283
20
495.986364
70
0
0
VERTEX
8
0
10
795.310735
20
496.651153
70
0
0
VERTEX
8
0
10
794.645023
20
497.199584
70
0
0
VERTEX
8
0
10
793.881200
20
497.613633
70
0
0
VERTEX
8
0
10
793.037319
20
497.875279
70
0
0
VERTEX
8
0
10
792.131432
20
497.966499
70
0
0
VERTEX
8
0
10
791.225545
20
497.875279
70
0
0
VERTEX
8
0
10
790.381664
20
497.613633
70
0
0
VERTEX
8
0
10
789.617841
20
497.199584
70
0
0
VERTEX
8
0
10
788.952130
20
496.651153
70
0
0
VERTEX
8
0
10
788.402581
20
495.986364
70
0
0
VERTEX
8
0
10
787.987249
20
495.223238
70
0
0
VERTEX
8
0
10
787.724186
20
494.379797
70
0
0
VERTEX
8
0
10
787.631444
20
493.474065
70
0
0
VERTEX
8
0
10
787.724186
20
492.568332
70
0
0
VERTEX
8
0
10
787.987249
20
491.724892
70
0
0
VERTEX
8
0
10
788.402581
20
490.961766
70
0
0
VERTEX
8
0
10
788.952130
20
490.296976
70
0
0
VERTEX
8
0
10
789.617841
20
489.748546
70
0
0
VERTEX
8
0
10
790.381664
20
489.334496
70
0
0
VERTEX
8
0
10
791.225545
20
489.072850
70
0
0
VERTEX
8
0
10
792.131432
20
488.981630
70
0
0
VERTEX
8
0
10
793.037319
20
489.072850
70
0
0
VERTEX
8
0
10
793.881200
20
489.334496
70
0
0
VERTEX
8
0
10
794.645023
20
489.748546
70
0
0
VERTEX
8
0
10
795.310735
20
490.296976
70
0
0
VERTEX
8
0
10
795.860283
20
490.961766
70
0
0
VERTEX
8
0
10
796.275615
20
491.724892
70
0
0
VERTEX
8
0
10
796.538678
20
492.568332
70
0
0
VERTEX
8
0
10
796.631420
20
493.474065
70
0
0
VERTEX
8
0
10
796.631420
20
493.474065
70
0
0
SEQEND
8
0
0
POLYLINE
8
0
62
10
70
0
10
0.000000
20
0.000000
66
1
0
VERTEX
8
0
10
796.631420
20
327.474272
70
0
0
VERTEX
8
0
10
796.538678
20
328.380005
70
0
0
VERTEX
8
0
10
796.275615
20
329.223445
70
0
0
VERTEX
8
0
10
795.860283
20
329.986571
70
0
0
VERTEX
8
0
10
795.310735
20
330.651361
70
0
0
VERTEX
8
0
10
794.645023
20
331.199791
70
0
0
VERTEX
8
0
10
793.881200
20
331.613841
70
0
0
VERTEX
8
0
10
793.037319
20
331.875487
70
0
0
VERTEX
8
0
10
792.131432
20
331.966707
70
0
0
VERTEX
8
0
10
791.225545
20
331.875487
70
0
0
VERTEX
8
0
10
790.381664
20
331.613841
70
0
0
VERTEX
8
0
10
789.617841
20
331.199791
70
0
0
VERTEX
8
0
10
788.952130
20
330.651361
70
0
0
VERTEX
8
0
10
788.402581
20
329.986571
70
0
0
VERTEX
8
0
10
787.987249
20
329.223445
70
0
0
VERTEX
8
0
10
787.724186
20
328.380005
70
0
0
VERTEX
8
0
10
787.631444
20
327.474272
70
0
0
VERTEX
8
0
10
787.724186
20
326.568540
70
0
0
VERTEX
8
0
10
787.987249
20
325.725099
70
0
0
VERTEX
8
0
10
788.402581
20
324.961973
70
0
0
VERTEX
8
0
10
788.952130
20
324.297184
70
0
0
VERTEX
8
0
10
789.617841
20
323.748753
70
0
0
VERTEX
8
0
10
790.381664
20
323.334704
70
0
0
VERTEX
8
0
10
791.225545
20
323.073058
70
0
0
VERTEX
8
0
10
792.131432
20
322.981838
70
0
0
VERTEX
8
0
10
793.037319
20
323.073058
70
0
0
VERTEX
8
0
10
793.881200
20
323.334704
70
0
0
VERTEX
8
0
10
794.645023
20
323.748753
70
0
0
VERTEX
8
0
10
795.310735
20
324.297184
70
0
0
VERTEX
8
0
10
795.860283
20
324.961973
70
0
0
VERTEX
8
0
10
796.275615
20
325.725099
70
0
0
VERTEX
8
0
10
796.538678
20
326.568540
70
0
0
VERTEX
8
0
10
796.631420
20
327.474272
70
0
0
VERTEX
8
0
10
796.631420
20
327.474272
70
0
0
SEQEND
8
0
0
POLYLINE
8
0
62
10
70
0
10
0.000000
20
0.000000
66
1
0
VERTEX
8
0
10
790.631419
20
28.474636
70
0
0
VERTEX
8
0
10
790.538677
20
29.380368
70
0
0
VERTEX
8
0
10
790.275613
20
30.223809
70
0
0
VERTEX
8
0
10
789.860281
20
30.986935
70
0
0
VERTEX
8
0
10
789.310733
20
31.651724
70
0
0
VERTEX
8
0
10
788.645021
20
32.200155
70
0
0
VERTEX
8
0
10
787.881199
20
32.614204
70
0
0
VERTEX
8
0
10
787.037318
20
32.875850
70
0
0
VERTEX
8
0
10
786.131431
20
32.967070
70
0
0
VERTEX
8
0
10
785.225544
20
32.875850
70
0
0
VERTEX
8
0
10
784.381662
20
32.614204
70
0
0
VERTEX
8
0
10
783.617840
20
32.200155
70
0
0
VERTEX
8
0
10
782.952128
20
31.651724
70
0
0
VERTEX
8
0
10
782.402580
20
30.986935
70
0
0
VERTEX
8
0
10
781.987248
20
30.223809
70
0
0
VERTEX
8
0
10
781.724185
20
29.380368
70
0
0
VERTEX
8
0
10
781.631443
20
28.474636
70
0
0
VERTEX
8
0
10
781.724185
20
27.568903
70
0
0
VERTEX
8
0
10
781.987248
20
26.725463
70
0
0
VERTEX
8
0
10
782.402580
20
25.962337
70
0
0
VERTEX
8
0
10
782.952128
20
25.297548
70
0
0
VERTEX
8
0
10
783.617840
20
24.749117
70
0
0
VERTEX
8
0
10
784.381662
20
24.335068
70
0
0
VERTEX
8
0
10
785.225544
20
24.073422
70
0
0
VERTEX
8
0
10
786.131431
20
23.982201
70
0
0
VERTEX
8
0
10
787.037318
20
24.073422
70
0
0
VERTEX
8
0
10
787.881199
20
24.335068
70
0
0
VERTEX
8
0
10
788.645021
20
24.749117
70
0
0
VERTEX
8
0
10
789.310733
20
25.297548
70
0
0
VERTEX
8
0
10
789.860281
20
25.962337
70
0
0
VERTEX
8
0
10
790.275613
20
26.725463
70
0
0
VERTEX
8
0
10
790.538677
20
27.568903
70
0
0
VERTEX
8
0
10
790.631419
20
28.474636
70
0
0
VERTEX
8
0
10
790.631419
20
28.474636
70
0
0
SEQEND
8
0
0
POLYLINE
8
0
62
10
70
0
10
0.000000
20
0.000000
66
1
0
VERTEX
8
0
10
564.631737
20
28.474636
70
0
0
VERTEX
8
0
10
564.475968
20
29.648766
70
0
0
VERTEX
8
0
10
564.028851
20
30.724637
70
0
0
VERTEX
8
0
10
563.320678
20
31.649786
70
0
0
VERTEX
8
0
10
562.381737
20
32.371751
70
0
0
VERTEX
8
0
10
561.287026
20
32.823916
70
0
0
VERTEX
8
0
10
560.131736
20
32.974637
70
0
0
VERTEX
8
0
10
558.976446
20
32.823916
70
0
0
VERTEX
8
0
10
557.881735
20
32.371751
70
0
0
VERTEX
8
0
10
556.942794
20
31.649786
70
0
0
VERTEX
8
0
10
556.234621
20
30.724637
70
0
0
VERTEX
8
0
10
555.787504
20
29.648766
70
0
0
VERTEX
8
0
10
555.631735
20
28.474636
70
0
0
VERTEX
8
0
10
555.787504
20
27.300506
70
0
0
VERTEX
8
0
10
556.234621
20
26.224635
70
0
0
VERTEX
8
0
10
556.942794
20
25.299486
70
0
0
VERTEX
8
0
10
557.881735
20
24.577521
70
0
0
VERTEX
8
0
10
558.976446
20
24.125356
70
0
0
VERTEX
8
0
10
560.131736
20
23.974635
70
0
0
VERTEX
8
0
10
561.287026
20
24.125356
70
0
0
VERTEX
8
0
10
562.381737
20
24.577521
70
0
0
VERTEX
8
0
10
563.320678
20
25.299486
70
0
0
VERTEX
8
0
10
564.028851
20
26.224635
70
0
0
VERTEX
8
0
10
564.475968
20
27.300506
70
0
0
VERTEX
8
0
10
564.631737
20
28.474636
70
0
0
VERTEX
8
0
10
564.631737
20
28.474636
70
0
0
SEQEND
8
0
0
POLYLINE
8
0
62
10
70
0
10
0.000000
20
0.000000
66
1
0
VERTEX
8
0
10
338.632003
20
28.474636
70
0
0
VERTEX
8
0
10
338.539234
20
29.380344
70
0
0
VERTEX
8
0
10
338.276153
20
30.223759
70
0
0
VERTEX
8
0
10
337.860812
20
30.986859
70
0
0
VERTEX
8
0
10
337.311263
20
31.651624
70
0
0
VERTEX
8
0
10
336.645557
20
32.200032
70
0
0
VERTEX
8
0
10
335.881745
20
32.614064
70
0
0
VERTEX
8
0
10
335.037881
20
32.875699
70
0
0
VERTEX
8
0
10
334.132015
20
32.966915
70
0
0
VERTEX
8
0
10
333.226149
20
32.875699
70
0
0
VERTEX
8
0
10
332.382284
20
32.614064
70
0
0
VERTEX
8
0
10
331.618473
20
32.200032
70
0
0
VERTEX
8
0
10
330.952767
20
31.651624
70
0
0
VERTEX
8
0
10
330.403218
20
30.986859
70
0
0
VERTEX
8
0
10
329.987877
20
30.223759
70
0
0
VERTEX
8
0
10
329.724796
20
29.380344
70
0
0
VERTEX
8
0
10
329.632027
20
28.474636
70
0
0
VERTEX
8
0
10
329.724796
20
27.568928
70
0
0
VERTEX
8
0
10
329.987877
20
26.725513
70
0
0
VERTEX
8
0
10
330.403218
20
25.962413
70
0
0
VERTEX
8
0
10
330.952767
20
25.297648
70
0
0
VERTEX
8
0
10
331.618473
20
24.749239
70
0
0
VERTEX
8
0
10
332.382284
20
24.335207
70
0
0
VERTEX
8
0
10
333.226149
20
24.073573
70
0
0
VERTEX
8
0
10
334.132015
20
23.982357
70
0
0
VERTEX
8
0
10
335.037881
20
24.073573
70
0
0
VERTEX
8
0
10
335.881745
20
24.335207
70
0
0
VERTEX
8
0
10
336.645557
20
24.749239
70
0
0
VERTEX
8
0
10
337.311263
20
25.297648
70
0
0
VERTEX
8
0
10
337.860812
20
25.962413
70
0
0
VERTEX
8
0
10
338.276153
20
26.725513
70
0
0
VERTEX
8
0
10
338.539234
20
27.568928
70
0
0
VERTEX
8
0
10
338.632003
20
28.474636
70
0
0
VERTEX
8
0
10
338.632003
20
28.474636
70
0
0
SEQEND
8
0
0
POLYLINE
8
0
62
10
70
0
10
0.000000
20
0.000000
66
1
0
VERTEX
8
0
10
416.181307
20
126.082427
70
0
0
VERTEX
8
0
10
416.089883
20
126.989334
70
0
0
VERTEX
8
0
10
415.827674
20
127.834030
70
0
0
VERTEX
8
0
10
415.412777
20
128.598420
70
0
0
VERTEX
8
0
10
414.863287
20
129.264408
70
0
0
VERTEX
8
0
10
414.197299
20
129.813898
70
0
0
VERTEX
8
0
10
413.432909
20
130.228795
70
0
0
VERTEX
8
0
10
412.588213
20
130.491003
70
0
0
VERTEX
8
0
10
411.681306
20
130.582427
70
0
0
VERTEX
8
0
10
410.774398
20
130.491003
70
0
0
VERTEX
8
0
10
409.929702
20
130.228795
70
0
0
VERTEX
8
0
10
409.165312
20
129.813898
70
0
0
VERTEX
8
0
10
408.499324
20
129.264408
70
0
0
VERTEX
8
0
10
407.949834
20
128.598420
70
0
0
VERTEX
8
0
10
407.534937
20
127.834030
70
0
0
VERTEX
8
0
10
407.272728
20
126.989334
70
0
0
VERTEX
8
0
10
407.181304
20
126.082427
70
0
0
VERTEX
8
0
10
407.272728
20
125.175520
70
0
0
VERTEX
8
0
10
407.534937
20
124.330823
70
0
0
VERTEX
8
0
10
407.949834
20
123.566433
70
0
0
VERTEX
8
0
10
408.499324
20
122.900446
70
0
0
VERTEX
8
0
10
409.165312
20
122.350955
70
0
0
VERTEX
8
0
10
409.929702
20
121.936058
70
0
0
VERTEX
8
0
10
410.774398
20
121.673850
70
0
0
VERTEX
8
0
10
411.681306
20
121.582426
70
0
0
VERTEX
8
0
10
412.588213
20
121.673850
70
0
0
VERTEX
8
0
10
413.432909
20
121.936058
70
0
0
VERTEX
8
0
10
414.197299
20
122.350955
70
0
0
VERTEX
8
0
10
414.863287
20
122.900446
70
0
0
VERTEX
8
0
10
415.412777
20
123.566433
70
0
0
VERTEX
8
0
10
415.827674
20
124.330823
70
0
0
VERTEX
8
0
10
416.089883
20
125.175520
70
0
0
VERTEX
8
0
10
416.181307
20
126.082427
70
0
0
VERTEX
8
0
10
416.181307
20
126.082427
70
0
0
SEQEND
8
0
0
POLYLINE
8
0
62
10
70
0
10
0.000000
20
0.000000
66
1
0
VERTEX
8
0
10
699.023629
20
408.924784
70
0
0
VERTEX
8
0
10
698.930887
20
409.830516
70
0
0
VERTEX
8
0
10
698.667824
20
410.673957
70
0
0
VERTEX
8
0
10
698.252492
20
411.437083
70
0
0
VERTEX
8
0
10
697.702944
20
412.101872
70
0
0
VERTEX
8
0
10
697.037232
20
412.650303
70
0
0
VERTEX
8
0
10
696.273410
20
413.064352
70
0
0
VERTEX
8
0
10
695.429528
20
413.325998
70
0
0
VERTEX
8
0
10
694.523641
20
413.417218
70
0
0
VERTEX
8
0
10
693.617754
20
413.325998
70
0
0
VERTEX
8
0
10
692.773873
20
413.064352
70
0
0
VERTEX
8
0
10
692.010050
20
412.650303
70
0
0
VERTEX
8
0
10
691.344339
20
412.101872
70
0
0
VERTEX
8
0
10
690.794791
20
411.437083
70
0
0
VERTEX
8
0
10
690.379459
20
410.673957
70
0
0
VERTEX
8
0
10
690.116395
20
409.830516
70
0
0
VERTEX
8
0
10
690.023653
20
408.924784
70
0
0
VERTEX
8
0
10
690.116395
20
408.019051
70
0
0
VERTEX
8
0
10
690.379459
20
407.175611
70
0
0
VERTEX
8
0
10
690.794791
20
406.412485
70
0
0
VERTEX
8
0
10
691.344339
20
405.747695
70
0
0
VERTEX
8
0
10
692.010050
20
405.199265
70
0
0
VERTEX
8
0
10
692.773873
20
404.785215
70
0
0
VERTEX
8
0
10
693.617754
20
404.523569
70
0
0
VERTEX
8
0
10
694.523641
20
404.432349
70
0
0
VERTEX
8
0
10
695.429528
20
404.523569
70
0
0
VERTEX
8
0
10
696.273410
20
404.785215
70
0
0
VERTEX
8
0
10
697.037232
20
405.199265
70
0
0
VERTEX
8
0
10
697.702944
20
405.747695
70
0
0
VERTEX
8
0
10
698.252492
20
406.412485
70
0
0
VERTEX
8
0
10
698.667824
20
407.175611
70
0
0
VERTEX
8
0
10
698.930887
20
408.019051
70
0
0
VERTEX
8
0
10
699.023629
20
408.924784
70
0
0
VERTEX
8
0
10
699.023629
20
408.924784
70
0
0
SEQEND
8
0
0
POLYLINE
8
0
62
10
70
0
10
0.000000
20
0.000000
66
1
0
VERTEX
8
0
10
481.391703
20
200.293196
70
0
0
VERTEX
8
0
10
481.193762
20
201.264655
70
0
0
VERTEX
8
0
10
480.657656
20
202.057635
70
0
0
VERTEX
8
0
10
479.863576
20
202.592108
70
0
0
VERTEX
8
0
10
478.891711
20
202.788049
70
0
0
VERTEX
8
0
10
477.919846
20
202.592108
70
0
0
VERTEX
8
0
10
477.125766
20
202.057635
70
0
0
VERTEX
8
0
10
476.589660
20
201.264655
70
0
0
VERTEX
8
0
10
476.391719
20
200.293196
70
0
0
VERTEX
8
0
10
476.589660
20
199.321736
70
0
0
VERTEX
8
0
10
477.125766
20
198.528757
70
0
0
VERTEX
8
0
10
477.919846
20
197.994284
70
0
0
VERTEX
8
0
10
478.891711
20
197.798342
70
0
0
VERTEX
8
0
10
479.863576
20
197.994284
70
0
0
VERTEX
8
0
10
480.657656
20
198.528757
70
0
0
VERTEX
8
0
10
481.193762
20
199.321736
70
0
0
VERTEX
8
0
10
481.391703
20
200.293196
70
0
0
VERTEX
8
0
10
481.391703
20
200.293196
70
0
0
SEQEND
8
0
0
POLYLINE
8
0
62
10
70
0
10
0.000000
20
0.000000
66
1
0
VERTEX
8
0
10
788.631436
20
141.003929
70
0
0
VERTEX
8
0
10
788.544897
20
141.656224
70
0
0
VERTEX
8
0
10
788.296498
20
142.253931
70
0
0
VERTEX
8
0
10
787.903068
20
142.767904
70
0
0
VERTEX
8
0
10
787.381433
20
143.168997
70
0
0
VERTEX
8
0
10
786.773259
20
143.420200
70
0
0
VERTEX
8
0
10
786.131431
20
143.503934
70
0
0
VERTEX
8
0
10
785.489602
20
143.420200
70
0
0
VERTEX
8
0
10
784.881428
20
143.168997
70
0
0
VERTEX
8
0
10
784.359793
20
142.767904
70
0
0
VERTEX
8
0
10
783.966363
20
142.253931
70
0
0
VERTEX
8
0
10
783.717964
20
141.656224
70
0
0
VERTEX
8
0
10
783.631425
20
141.003929
70
0
0
VERTEX
8
0
10
783.717964
20
140.351633
70
0
0
VERTEX
8
0
10
783.966363
20
139.753926
70
0
0
VERTEX
8
0
10
784.359793
20
139.239954
70
0
0
VERTEX
8
0
10
784.881428
20
138.838861
70
0
0
VERTEX
8
0
10
785.489602
20
138.587658
70
0
0
VERTEX
8
0
10
786.131431
20
138.503924
70
0
0
VERTEX
8
0
10
786.773259
20
138.587658
70
0
0
VERTEX
8
0
10
787.381433
20
138.838861
70
0
0
VERTEX
8
0
10
787.903068
20
139.239954
70
0
0
VERTEX
8
0
10
788.296498
20
139.753926
70
0
0
VERTEX
8
0
10
788.544897
20
140.351633
70
0
0
VERTEX
8
0
10
788.631436
20
141.003929
70
0
0
VERTEX
8
0
10
788.631436
20
141.003929
70
0
0
SEQEND
8
0
0
POLYLINE
8
0
62
10
70
0
10
0.000000
20
0.000000
66
1
0
VERTEX
8
0
10
788.631436
20
401.003618
70
0
0
VERTEX
8
0
10
788.544897
20
401.655914
70
0
0
VERTEX
8
0
10
788.296498
20
402.253621
70
0
0
VERTEX
8
0
10
787.903068
20
402.767594
70
0
0
VERTEX
8
0
10
787.381433
20
403.168686
70
0
0
VERTEX
8
0
10
786.773259
20
403.419889
70
0
0
VERTEX
8
0
10
786.131431
20
403.503624
70
0
0
VERTEX
8
0
10
785.489602
20
403.419889
70
0
0
VERTEX
8
0
10
784.881428
20
403.168686
70
0
0
VERTEX
8
0
10
784.359793
20
402.767594
70
0
0
VERTEX
8
0
10
783.966363
20
402.253621
70
0
0
VERTEX
8
0
10
783.717964
20
401.655914
70
0
0
VERTEX
8
0
10
783.631425
20
401.003618
70
0
0
VERTEX
8
0
10
783.717964
20
400.351323
70
0
0
VERTEX
8
0
10
783.966363
20
399.753616
70
0
0
VERTEX
8
0
10
784.359793
20
399.239643
70
0
0
VERTEX
8
0
10
784.881428
20
398.838551
70
0
0
VERTEX
8
0
10
785.489602
20
398.587348
70
0
0
VERTEX
8
0
10
786.131431
20
398.503613
70
0
0
VERTEX
8
0
10
786.773259
20
398.587348
70
0
0
VERTEX
8
0
10
787.381433
20
398.838551
70
0
0
VERTEX
8
0
10
787.903068
20
399.239643
70
0
0
VERTEX
8
0
10
788.296498
20
399.753616
70
0
0
VERTEX
8
0
10
788.544897
20
400.351323
70
0
0
VERTEX
8
0
10
788.631436
20
401.003618
70
0
0
VERTEX
8
0
10
788.631436
20
401.003618
70
0
0
SEQEND
8
0
0
POLYLINE
8
0
62
10
70
0
10
0.000000
20
0.000000
66
1
0
VERTEX
8
0
10
682.102118
20
34.474638
70
0
0
VERTEX
8
0
10
681.904215
20
35.446139
70
0
0
VERTEX
8
0
10
681.368117
20
36.239160
70
0
0
VERTEX
8
0
10
680.574022
20
36.773666
70
0
0
VERTEX
8
0
10
679.602126
20
36.969621
70
0
0
VERTEX
8
0
10
678.630230
20
36.773666
70
0
0
VERTEX
8
0
10
677.836135
20
36.239160
70
0
0
VERTEX
8
0
10
677.300037
20
35.446139
70
0
0
VERTEX
8
0
10
677.102134
20
34.474638
70
0
0
VERTEX
8
0
10
677.300037
20
33.503136
70
0
0
VERTEX
8
0
10
677.836135
20
32.710115
70
0
0
VERTEX
8
0
10
678.630230
20
32.175609
70
0
0
VERTEX
8
0
10
679.602126
20
31.979654
70
0
0
VERTEX
8
0
10
680.574022
20
32.175609
70
0
0
VERTEX
8
0
10
681.368117
20
32.710115
70
0
0
VERTEX
8
0
10
681.904215
20
33.503136
70
0
0
VERTEX
8
0
10
682.102118
20
34.474638
70
0
0
VERTEX
8
0
10
682.102118
20
34.474638
70
0
0
SEQEND
8
0
0
POLYLINE
8
0
62
10
70
0
10
0.000000
20
0.000000
66
1
0
VERTEX
8
0
10
422.102463
20
34.474638
70
0
0
VERTEX
8
0
10
421.904559
20
35.446139
70
0
0
VERTEX
8
0
10
421.368462
20
36.239160
70
0
0
VERTEX
8
0
10
420.574367
20
36.773666
70
0
0
VERTEX
8
0
10
419.602471
20
36.969621
70
0
0
VERTEX
8
0
10
418.630575
20
36.773666
70
0
0
VERTEX
8
0
10
417.836479
20
36.239160
70
0
0
VERTEX
8
0
10
417.300382
20
35.446139
70
0
0
VERTEX
8
0
10
417.102479
20
34.474638
70
0
0
VERTEX
8
0
10
417.300382
20
33.503136
70
0
0
VERTEX
8
0
10
417.836479
20
32.710115
70
0
0
VERTEX
8
0
10
418.630575
20
32.175609
70
0
0
VERTEX
8
0
10
419.602471
20
31.979654
70
0
0
VERTEX
8
0
10
420.574367
20
32.175609
70
0
0
VERTEX
8
0
10
421.368462
20
32.710115
70
0
0
VERTEX
8
0
10
421.904559
20
33.503136
70
0
0
VERTEX
8
0
10
422.102463
20
34.474638
70
0
0
VERTEX
8
0
10
422.102463
20
34.474638
70
0
0
SEQEND
8
0
0
POLYLINE
8
0
62
10
70
0
10
0.000000
20
0.000000
66
1
0
VERTEX
8
0
10
622.812904
20
341.714370
70
0
0
VERTEX
8
0
10
622.616441
20
342.687485
70
0
0
VERTEX
8
0
10
622.080669
20
343.482141
70
0
0
VERTEX
8
0
10
621.286014
20
344.017912
70
0
0
VERTEX
8
0
10
620.312899
20
344.214375
70
0
0
VERTEX
8
0
10
619.339784
20
344.017912
70
0
0
VERTEX
8
0
10
618.545128
20
343.482141
70
0
0
VERTEX
8
0
10
618.009357
20
342.687485
70
0
0
VERTEX
8
0
10
617.812894
20
341.714370
70
0
0
VERTEX
8
0
10
618.009357
20
340.741256
70
0
0
VERTEX
8
0
10
618.545128
20
339.946600
70
0
0
VERTEX
8
0
10
619.339784
20
339.410828
70
0
0
VERTEX
8
0
10
620.312899
20
339.214366
70
0
0
VERTEX
8
0
10
621.286014
20
339.410828
70
0
0
VERTEX
8
0
10
622.080669
20
339.946600
70
0
0
VERTEX
8
0
10
622.616441
20
340.741256
70
0
0
VERTEX
8
0
10
622.812904
20
341.714370
70
0
0
VERTEX
8
0
10
622.812904
20
341.714370
70
0
0
SEQEND
8
0
0
POLYLINE
8
0
62
10
70
0
10
0.000000
20
0.000000
66
1
0
VERTEX
8
0
10
687.631558
20
492.474065
70
0
0
VERTEX
8
0
10
687.475789
20
493.648195
70
0
0
VERTEX
8
0
10
687.028673
20
494.724066
70
0
0
VERTEX
8
0
10
686.320499
20
495.649215
70
0
0
VERTEX
8
0
10
685.381558
20
496.371181
70
0
0
VERTEX
8
0
10
684.286847
20
496.823345
70
0
0
VERTEX
8
0
10
683.131557
20
496.974066
70
0
0
VERTEX
8
0
10
681.976268
20
496.823345
70
0
0
VERTEX
8
0
10
680.881557
20
496.371181
70
0
0
VERTEX
8
0
10
679.942615
20
495.649215
70
0
0
VERTEX
8
0
10
679.234442
20
494.724066
70
0
0
VERTEX
8
0
10
678.787326
20
493.648195
70
0
0
VERTEX
8
0
10
678.631556
20
492.474065
70
0
0
VERTEX
8
0
10
678.787326
20
491.299936
70
0
0
VERTEX
8
0
10
679.234442
20
490.224065
70
0
0
VERTEX
8
0
10
679.942615
20
489.298915
70
0
0
VERTEX
8
0
10
680.881557
20
488.576950
70
0
0
VERTEX
8
0
10
681.976268
20
488.124786
70
0
0
VERTEX
8
0
10
683.131557
20
487.974064
70
0
0
VERTEX
8
0
10
684.286847
20
488.124786
70
0
0
VERTEX
8
0
10
685.381558
20
488.576950
70
0
0
VERTEX
8
0
10
686.320499
20
489.298915
70
0
0
VERTEX
8
0
10
687.028673
20
490.224065
70
0
0
VERTEX
8
0
10
687.475789
20
491.299936
70
0
0
VERTEX
8
0
10
687.631558
20
492.474065
70
0
0
VERTEX
8
0
10
687.631558
20
492.474065
70
0
0
SEQEND
8
0
0
POLYLINE
8
0
62
10
70
0
10
0.000000
20
0.000000
66
1
0
VERTEX
8
0
10
521.631787
20
492.474065
70
0
0
VERTEX
8
0
10
521.476018
20
493.648195
70
0
0
VERTEX
8
0
10
521.028902
20
494.724066
70
0
0
VERTEX
8
0
10
520.320728
20
495.649215
70
0
0
VERTEX
8
0
10
519.381787
20
496.371181
70
0
0
VERTEX
8
0
10
518.287076
20
496.823345
70
0
0
VERTEX
8
0
10
517.131786
20
496.974066
70
0
0
VERTEX
8
0
10
515.976497
20
496.823345
70
0
0
VERTEX
8
0
10
514.881786
20
496.371181
70
0
0
VERTEX
8
0
10
513.942844
20
495.649215
70
0
0
VERTEX
8
0
10
513.234671
20
494.724066
70
0
0
VERTEX
8
0
10
512.787555
20
493.648195
70
0
0
VERTEX
8
0
10
512.631785
20
492.474065
70
0
0
VERTEX
8
0
10
512.787555
20
491.299936
70
0
0
VERTEX
8
0
10
513.234671
20
490.224065
70
0
0
VERTEX
8
0
10
513.942844
20
489.298915
70
0
0
VERTEX
8
0
10
514.881786
20
488.576950
70
0
0
VERTEX
8
0
10
515.976497
20
488.124786
70
0
0
VERTEX
8
0
10
517.131786
20
487.974064
70
0
0
VERTEX
8
0
10
518.287076
20
488.124786
70
0
0
VERTEX
8
0
10
519.381787
20
488.576950
70
0
0
VERTEX
8
0
10
520.320728
20
489.298915
70
0
0
VERTEX
8
0
10
521.028902
20
490.224065
70
0
0
VERTEX
8
0
10
521.476018
20
491.299936
70
0
0
VERTEX
8
0
10
521.631787
20
492.474065
70
0
0
VERTEX
8
0
10
521.631787
20
492.474065
70
0
0
SEQEND
8
0
0
POLYLINE
8
0
62
10
70
0
10
0.000000
20
0.000000
66
1
0
VERTEX
8
0
10
222.632154
20
486.474072
70
0
0
VERTEX
8
0
10
222.540191
20
487.380499
70
0
0
VERTEX
8
0
10
222.277634
20
488.224682
70
0
0
VERTEX
8
0
10
221.862559
20
488.988555
70
0
0
VERTEX
8
0
10
221.313045
20
489.654053
70
0
0
VERTEX
8
0
10
220.647171
20
490.203110
70
0
0
VERTEX
8
0
10
219.883013
20
490.617660
70
0
0
VERTEX
8
0
10
219.038650
20
490.879639
70
0
0
VERTEX
8
0
10
218.132160
20
490.970980
70
0
0
VERTEX
8
0
10
217.225670
20
490.879639
70
0
0
VERTEX
8
0
10
216.381308
20
490.617660
70
0
0
VERTEX
8
0
10
215.617150
20
490.203110
70
0
0
VERTEX
8
0
10
214.951275
20
489.654053
70
0
0
VERTEX
8
0
10
214.401761
20
488.988555
70
0
0
VERTEX
8
0
10
213.986687
20
488.224682
70
0
0
VERTEX
8
0
10
213.724129
20
487.380499
70
0
0
VERTEX
8
0
10
213.632167
20
486.474072
70
0
0
VERTEX
8
0
10
213.724129
20
485.567645
70
0
0
VERTEX
8
0
10
213.986687
20
484.723462
70
0
0
VERTEX
8
0
10
214.401761
20
483.959588
70
0
0
VERTEX
8
0
10
214.951275
20
483.294090
70
0
0
VERTEX
8
0
10
215.617150
20
482.745033
70
0
0
VERTEX
8
0
10
216.381308
20
482.330483
70
0
0
VERTEX
8
0
10
217.225670
20
482.068504
70
0
0
VERTEX
8
0
10
218.132160
20
481.977164
70
0
0
VERTEX
8
0
10
219.038650
20
482.068504
70
0
0
VERTEX
8
0
10
219.883013
20
482.330483
70
0
0
VERTEX
8
0
10
220.647171
20
482.745033
70
0
0
VERTEX
8
0
10
221.313045
20
483.294090
70
0
0
VERTEX
8
0
10
221.862559
20
483.959588
70
0
0
VERTEX
8
0
10
222.277634
20
484.723462
70
0
0
VERTEX
8
0
10
222.540191
20
485.567645
70
0
0
VERTEX
8
0
10
222.632154
20
486.474072
70
0
0
VERTEX
8
0
10
222.632154
20
486.474072
70
0
0
SEQEND
8
0
0
POLYLINE
8
0
62
10
70
0
10
0.000000
20
0.000000
66
1
0
VERTEX
8
0
10
222.632154
20
260.474353
70
0
0
VERTEX
8
0
10
222.540191
20
261.380780
70
0
0
VERTEX
8
0
10
222.277634
20
262.224963
70
0
0
VERTEX
8
0
10
221.862559
20
262.988836
70
0
0
VERTEX
8
0
10
221.313045
20
263.654334
70
0
0
VERTEX
8
0
10
220.647171
20
264.203392
70
0
0
VERTEX
8
0
10
219.883013
20
264.617942
70
0
0
VERTEX
8
0
10
219.038650
20
264.879921
70
0
0
VERTEX
8
0
10
218.132160
20
264.971261
70
0
0
VERTEX
8
0
10
217.225670
20
264.879921
70
0
0
VERTEX
8
0
10
216.381308
20
264.617942
70
0
0
VERTEX
8
0
10
215.617150
20
264.203392
70
0
0
VERTEX
8
0
10
214.951275
20
263.654334
70
0
0
VERTEX
8
0
10
214.401761
20
262.988836
70
0
0
VERTEX
8
0
10
213.986687
20
262.224963
70
0
0
VERTEX
8
0
10
213.724129
20
261.380780
70
0
0
VERTEX
8
0
10
213.632167
20
260.474353
70
0
0
VERTEX
8
0
10
213.724129
20
259.567926
70
0
0
VERTEX
8
0
10
213.986687
20
258.723743
70
0
0
VERTEX
8
0
10
214.401761
20
257.959870
70
0
0
VERTEX
8
0
10
214.951275
20
257.294372
70
0
0
VERTEX
8
0
10
215.617150
20
256.745315
70
0
0
VERTEX
8
0
10
216.381308
20
256.330764
70
0
0
VERTEX
8
0
10
217.225670
20
256.068786
70
0
0
VERTEX
8
0
10
218.132160
20
255.977445
70
0
0
VERTEX
8
0
10
219.038650
20
256.068786
70
0
0
VERTEX
8
0
10
219.883013
20
256.330764
70
0
0
VERTEX
8
0
10
220.647171
20
256.745315
70
0
0
VERTEX
8
0
10
221.313045
20
257.294372
70
0
0
VERTEX
8
0
10
221.862559
20
257.959870
70
0
0
VERTEX
8
0
10
222.277634
20
258.723743
70
0
0
VERTEX
8
0
10
222.540191
20
259.567926
70
0
0
VERTEX
8
0
10
222.632154
20
260.474353
70
0
0
VERTEX
8
0
10
222.632154
20
260.474353
70
0
0
SEQEND
8
0
0
POLYLINE
8
0
62
10
70
0
10
0.000000
20
0.000000
66
1
0
VERTEX
8
0
10
222.632154
20
34.474638
70
0
0
VERTEX
8
0
10
222.540191
20
35.381065
70
0
0
VERTEX
8
0
10
222.277634
20
36.225247
70
0
0
VERTEX
8
0
10
221.862559
20
36.989121
70
0
0
VERTEX
8
0
10
221.313045
20
37.654619
70
0
0
VERTEX
8
0
10
220.647171
20
38.203676
70
0
0
VERTEX
8
0
10
219.883013
20
38.618226
70
0
0
VERTEX
8
0
10
219.038650
20
38.880205
70
0
0
VERTEX
8
0
10
218.132160
20
38.971546
70
0
0
VERTEX
8
0
10
217.225670
20
38.880205
70
0
0
VERTEX
8
0
10
216.381308
20
38.618226
70
0
0
VERTEX
8
0
10
215.617150
20
38.203676
70
0
0
VERTEX
8
0
10
214.951275
20
37.654619
70
0
0
VERTEX
8
0
10
214.401761
20
36.989121
70
0
0
VERTEX
8
0
10
213.986687
20
36.225247
70
0
0
VERTEX
8
0
10
213.724129
20
35.381065
70
0
0
VERTEX
8
0
10
213.632167
20
34.474638
70
0
0
VERTEX
8
0
10
213.724129
20
33.568211
70
0
0
VERTEX
8
0
10
213.986687
20
32.724028
70
0
0
VERTEX
8
0
10
214.401761
20
31.960154
70
0
0
VERTEX
8
0
10
214.951275
20
31.294656
70
0
0
VERTEX
8
0
10
215.617150
20
30.745599
70
0
0
VERTEX
8
0
10
216.381308
20
30.331049
70
0
0
VERTEX
8
0
10
217.225670
20
30.069070
70
0
0
VERTEX
8
0
10
218.132160
20
29.977729
70
0
0
VERTEX
8
0
10
219.038650
20
30.069070
70
0
0
VERTEX
8
0
10
219.883013
20
30.331049
70
0
0
VERTEX
8
0
10
220.647171
20
30.745599
70
0
0
VERTEX
8
0
10
221.313045
20
31.294656
70
0
0
VERTEX
8
0
10
221.862559
20
31.960154
70
0
0
VERTEX
8
0
10
222.277634
20
32.724028
70
0
0
VERTEX
8
0
10
222.540191
20
33.568211
70
0
0
VERTEX
8
0
10
222.632154
20
34.474638
70
0
0
VERTEX
8
0
10
222.632154
20
34.474638
70
0
0
SEQEND
8
0
0
POLYLINE
8
0
62
10
70
0
10
0.000000
20
0.000000
66
1
0
VERTEX
8
0
10
320.239939
20
112.023915
70
0
0
VERTEX
8
0
10
320.084169
20
113.198045
70
0
0
VERTEX
8
0
10
319.637053
20
114.273915
70
0
0
VERTEX
8
0
10
318.928880
20
115.199065
70
0
0
VERTEX
8
0
10
317.989938
20
115.921030
70
0
0
VERTEX
8
0
10
316.895227
20
116.373195
70
0
0
VERTEX
8
0
10
315.739938
20
116.523916
70
0
0
VERTEX
8
0
10
314.584648
20
116.373195
70
0
0
VERTEX
8
0
10
313.489937
20
115.921030
70
0
0
VERTEX
8
0
10
312.550996
20
115.199065
70
0
0
VERTEX
8
0
10
311.842822
20
114.273915
70
0
0
VERTEX
8
0
10
311.395706
20
113.198045
70
0
0
VERTEX
8
0
10
311.239937
20
112.023915
70
0
0
VERTEX
8
0
10
311.395706
20
110.849785
70
0
0
VERTEX
8
0
10
311.842822
20
109.773914
70
0
0
VERTEX
8
0
10
312.550996
20
108.848765
70
0
0
VERTEX
8
0
10
313.489937
20
108.126799
70
0
0
VERTEX
8
0
10
314.584648
20
107.674635
70
0
0
VERTEX
8
0
10
315.739938
20
107.523914
70
0
0
VERTEX
8
0
10
316.895227
20
107.674635
70
0
0
VERTEX
8
0
10
317.989938
20
108.126799
70
0
0
VERTEX
8
0
10
318.928880
20
108.848765
70
0
0
VERTEX
8
0
10
319.637053
20
109.773914
70
0
0
VERTEX
8
0
10
320.084169
20
110.849785
70
0
0
VERTEX
8
0
10
320.239939
20
112.023915
70
0
0
VERTEX
8
0
10
320.239939
20
112.023915
70
0
0
SEQEND
8
0
0
POLYLINE
8
0
62
10
70
0
10
0.000000
20
0.000000
66
1
0
VERTEX
8
0
10
603.082288
20
394.866285
70
0
0
VERTEX
8
0
10
602.989519
20
395.771993
70
0
0
VERTEX
8
0
10
602.726438
20
396.615408
70
0
0
VERTEX
8
0
10
602.311097
20
397.378508
70
0
0
VERTEX
8
0
10
601.761548
20
398.043273
70
0
0
VERTEX
8
0
10
601.095842
20
398.591682
70
0
0
VERTEX
8
0
10
600.332031
20
399.005714
70
0
0
VERTEX
8
0
10
599.488166
20
399.267348
70
0
0
VERTEX
8
0
10
598.582300
20
399.358564
70
0
0
VERTEX
8
0
10
597.676434
20
399.267348
70
0
0
VERTEX
8
0
10
596.832570
20
399.005714
70
0
0
VERTEX
8
0
10
596.068759
20
398.591682
70
0
0
VERTEX
8
0
10
595.403053
20
398.043273
70
0
0
VERTEX
8
0
10
594.853503
20
397.378508
70
0
0
VERTEX
8
0
10
594.438162
20
396.615408
70
0
0
VERTEX
8
0
10
594.175081
20
395.771993
70
0
0
VERTEX
8
0
10
594.082312
20
394.866285
70
0
0
VERTEX
8
0
10
594.175081
20
393.960577
70
0
0
VERTEX
8
0
10
594.438162
20
393.117162
70
0
0
VERTEX
8
0
10
594.853503
20
392.354062
70
0
0
VERTEX
8
0
10
595.403053
20
391.689297
70
0
0
VERTEX
8
0
10
596.068759
20
391.140889
70
0
0
VERTEX
8
0
10
596.832570
20
390.726857
70
0
0
VERTEX
8
0
10
597.676434
20
390.465222
70
0
0
VERTEX
8
0
10
598.582300
20
390.374006
70
0
0
VERTEX
8
0
10
599.488166
20
390.465222
70
0
0
VERTEX
8
0
10
600.332031
20
390.726857
70
0
0
VERTEX
8
0
10
601.095842
20
391.140889
70
0
0
VERTEX
8
0
10
601.761548
20
391.689297
70
0
0
VERTEX
8
0
10
602.311097
20
392.354062
70
0
0
VERTEX
8
0
10
602.726438
20
393.117162
70
0
0
VERTEX
8
0
10
602.989519
20
393.960577
70
0
0
VERTEX
8
0
10
603.082288
20
394.866285
70
0
0
VERTEX
8
0
10
603.082288
20
394.866285
70
0
0
SEQEND
8
0
0
POLYLINE
8
0
62
10
70
0
10
0.000000
20
0.000000
66
1
0
VERTEX
8
0
10
392.450699
20
179.234347
70
0
0
VERTEX
8
0
10
392.252796
20
180.205848
70
0
0
VERTEX
8
0
10
391.716698
20
180.998870
70
0
0
VERTEX
8
0
10
390.922603
20
181.533376
70
0
0
VERTEX
8
0
10
389.950707
20
181.729330
70
0
0
VERTEX
8
0
10
388.978811
20
181.533376
70
0
0
VERTEX
8
0
10
388.184716
20
180.998870
70
0
0
VERTEX
8
0
10
387.648618
20
180.205848
70
0
0
VERTEX
8
0
10
387.450715
20
179.234347
70
0
0
VERTEX
8
0
10
387.648618
20
178.262846
70
0
0
VERTEX
8
0
10
388.184716
20
177.469824
70
0
0
VERTEX
8
0
10
388.978811
20
176.935318
70
0
0
VERTEX
8
0
10
389.950707
20
176.739363
70
0
0
VERTEX
8
0
10
390.922603
20
176.935318
70
0
0
VERTEX
8
0
10
391.716698
20
177.469824
70
0
0
VERTEX
8
0
10
392.252796
20
178.262846
70
0
0
VERTEX
8
0
10
392.450699
20
179.234347
70
0
0
VERTEX
8
0
10
392.450699
20
179.234347
70
0
0
SEQEND
8
0
0
POLYLINE
8
0
62
10
70
0
10
0.000000
20
0.000000
66
1
0
VERTEX
8
0
10
333.161458
20
486.474072
70
0
0
VERTEX
8
0
10
332.964995
20
487.447186
70
0
0
VERTEX
8
0
10
332.429224
20
488.241842
70
0
0
VERTEX
8
0
10
331.634568
20
488.777614
70
0
0
VERTEX
8
0
10
330.661453
20
488.974076
70
0
0
VERTEX
8
0
10
329.688339
20
488.777614
70
0
0
VERTEX
8
0
10
328.893683
20
488.241842
70
0
0
VERTEX
8
0
10
328.357911
20
487.447186
70
0
0
VERTEX
8
0
10
328.161448
20
486.474072
70
0
0
VERTEX
8
0
10
328.247987
20
485.821776
70
0
0
VERTEX
8
0
10
328.496385
20
485.224069
70
0
0
VERTEX
8
0
10
328.889816
20
484.710096
70
0
0
VERTEX
8
0
10
329.411451
20
484.309004
70
0
0
VERTEX
8
0
10
330.019625
20
484.057801
70
0
0
VERTEX
8
0
10
330.661453
20
483.974067
70
0
0
VERTEX
8
0
10
331.303282
20
484.057801
70
0
0
VERTEX
8
0
10
331.911456
20
484.309004
70
0
0
VERTEX
8
0
10
332.433091
20
484.710096
70
0
0
VERTEX
8
0
10
332.826521
20
485.224069
70
0
0
VERTEX
8
0
10
333.074920
20
485.821776
70
0
0
VERTEX
8
0
10
333.161458
20
486.474072
70
0
0
VERTEX
8
0
10
333.161458
20
486.474072
70
0
0
SEQEND
8
0
0
POLYLINE
8
0
62
10
70
0
10
0.000000
20
0.000000
66
1
0
VERTEX
8
0
10
593.161114
20
486.474072
70
0
0
VERTEX
8
0
10
592.963173
20
487.445531
70
0
0
VERTEX
8
0
10
592.427067
20
488.238510
70
0
0
VERTEX
8
0
10
591.632986
20
488.772984
70
0
0
VERTEX
8
0
10
590.661122
20
488.968925
70
0
0
VERTEX
8
0
10
589.689257
20
488.772984
70
0
0
VERTEX
8
0
10
588.895176
20
488.238510
70
0
0
VERTEX
8
0
10
588.359070
20
487.445531
70
0
0
VERTEX
8
0
10
588.161130
20
486.474072
70
0
0
VERTEX
8
0
10
588.359070
20
485.502612
70
0
0
VERTEX
8
0
10
588.895176
20
484.709633
70
0
0
VERTEX
8
0
10
589.689257
20
484.175159
70
0
0
VERTEX
8
0
10
590.661122
20
483.979218
70
0
0
VERTEX
8
0
10
591.632986
20
484.175159
70
0
0
VERTEX
8
0
10
592.427067
20
484.709633
70
0
0
VERTEX
8
0
10
592.963173
20
485.502612
70
0
0
VERTEX
8
0
10
593.161114
20
486.474072
70
0
0
VERTEX
8
0
10
593.161114
20
486.474072
70
0
0
SEQEND
8
0
0
POLYLINE
8
0
62
10
70
0
10
0.000000
20
0.000000
66
1
0
VERTEX
8
0
10
226.632148
20
379.944770
70
0
0
VERTEX
8
0
10
226.545610
20
380.597063
70
0
0
VERTEX
8
0
10
226.297212
20
381.194768
70
0
0
VERTEX
8
0
10
225.903783
20
381.708739
70
0
0
VERTEX
8
0
10
225.382150
20
382.109831
70
0
0
VERTEX
8
0
10
224.773978
20
382.361033
70
0
0
VERTEX
8
0
10
224.132151
20
382.444767
70
0
0
VERTEX
8
0
10
223.490325
20
382.361033
70
0
0
VERTEX
8
0
10
222.882153
20
382.109831
70
0
0
VERTEX
8
0
10
222.360519
20
381.708739
70
0
0
VERTEX
8
0
10
221.967090
20
381.194768
70
0
0
VERTEX
8
0
10
221.718693
20
380.597063
70
0
0
VERTEX
8
0
10
221.632154
20
379.944770
70
0
0
VERTEX
8
0
10
221.718693
20
379.292476
70
0
0
VERTEX
8
0
10
221.967090
20
378.694771
70
0
0
VERTEX
8
0
10
222.360519
20
378.180800
70
0
0
VERTEX
8
0
10
222.882153
20
377.779709
70
0
0
VERTEX
8
0
10
223.490325
20
377.528506
70
0
0
VERTEX
8
0
10
224.132151
20
377.444772
70
0
0
VERTEX
8
0
10
224.773978
20
377.528506
70
0
0
VERTEX
8
0
10
225.382150
20
377.779709
70
0
0
VERTEX
8
0
10
225.903783
20
378.180800
70
0
0
VERTEX
8
0
10
226.297212
20
378.694771
70
0
0
VERTEX
8
0
10
226.545610
20
379.292476
70
0
0
VERTEX
8
0
10
226.632148
20
379.944770
70
0
0
VERTEX
8
0
10
226.632148
20
379.944770
70
0
0
SEQEND
8
0
0
POLYLINE
8
0
62
10
70
0
10
0.000000
20
0.000000
66
1
0
VERTEX
8
0
10
226.632148
20
119.945080
70
0
0
VERTEX
8
0
10
226.545610
20
120.597373
70
0
0
VERTEX
8
0
10
226.297212
20
121.195079
70
0
0
VERTEX
8
0
10
225.903783
20
121.709050
70
0
0
VERTEX
8
0
10
225.382150
20
122.110141
70
0
0
VERTEX
8
0
10
224.773978
20
122.361343
70
0
0
VERTEX
8
0
10
224.132151
20
122.445077
70
0
0
VERTEX
8
0
10
223.490325
20
122.361343
70
0
0
VERTEX
8
0
10
222.882153
20
122.110141
70
0
0
VERTEX
8
0
10
222.360519
20
121.709050
70
0
0
VERTEX
8
0
10
221.967090
20
121.195079
70
0
0
VERTEX
8
0
10
221.718693
20
120.597373
70
0
0
VERTEX
8
0
10
221.632154
20
119.945080
70
0
0
VERTEX
8
0
10
221.718693
20
119.292787
70
0
0
VERTEX
8
0
10
221.967090
20
118.695081
70
0
0
VERTEX
8
0
10
222.360519
20
118.181110
70
0
0
VERTEX
8
0
10
222.882153
20
117.780019
70
0
0
VERTEX
8
0
10
223.490325
20
117.528817
70
0
0
VERTEX
8
0
10
224.132151
20
117.445083
70
0
0
VERTEX
8
0
10
224.773978
20
117.528817
70
0
0
VERTEX
8
0
10
225.382150
20
117.780019
70
0
0
VERTEX
8
0
10
225.903783
20
118.181110
70
0
0
VERTEX
8
0
10
226.297212
20
118.695081
70
0
0
VERTEX
8
0
10
226.545610
20
119.292787
70
0
0
VERTEX
8
0
10
226.632148
20
119.945080
70
0
0
VERTEX
8
0
10
226.632148
20
119.945080
70
0
0
SEQEND
8
0
0
POLYLINE
8
0
62
10
70
0
10
0.000000
20
0.000000
66
1
0
VERTEX
8
0
10
533.871873
20
320.655521
70
0
0
VERTEX
8
0
10
533.673933
20
321.626981
70
0
0
VERTEX
8
0
10
533.137827
20
322.419960
70
0
0
VERTEX
8
0
10
532.343746
20
322.954433
70
0
0
VERTEX
8
0
10
531.371881
20
323.150375
70
0
0
VERTEX
8
0
10
530.400017
20
322.954433
70
0
0
VERTEX
8
0
10
529.605936
20
322.419960
70
0
0
VERTEX
8
0
10
529.069830
20
321.626981
70
0
0
VERTEX
8
0
10
528.871890
20
320.655521
70
0
0
VERTEX
8
0
10
529.069830
20
319.684062
70
0
0
VERTEX
8
0
10
529.605936
20
318.891083
70
0
0
VERTEX
8
0
10
530.400017
20
318.356609
70
0
0
VERTEX
8
0
10
531.371881
20
318.160668
70
0
0
VERTEX
8
0
10
532.343746
20
318.356609
70
0
0
VERTEX
8
0
10
533.137827
20
318.891083
70
0
0
VERTEX
8
0
10
533.673933
20
319.684062
70
0
0
VERTEX
8
0
10
533.871873
20
320.655521
70
0
0
VERTEX
8
0
10
533.871873
20
320.655521
70
0
0
SEQEND
8
0
0
POLYLINE
8
0
62
10
70
0
10
0.000000
20
0.000000
66
1
0
VERTEX
8
0
10
74.632340
20
146.474500
70
0
0
VERTEX
8
0
10
74.434437
20
147.446001
70
0
0
VERTEX
8
0
10
73.898339
20
148.239023
70
0
0
VERTEX
8
0
10
73.104244
20
148.773529
70
0
0
VERTEX
8
0
10
72.132348
20
148.969483
70
0
0
VERTEX
8
0
10
71.160452
20
148.773529
70
0
0
VERTEX
8
0
10
70.366357
20
148.239023
70
0
0
VERTEX
8
0
10
69.830259
20
147.446001
70
0
0
VERTEX
8
0
10
69.632356
20
146.474500
70
0
0
VERTEX
8
0
10
69.830259
20
145.502999
70
0
0
VERTEX
8
0
10
70.366357
20
144.709977
70
0
0
VERTEX
8
0
10
71.160452
20
144.175471
70
0
0
VERTEX
8
0
10
72.132348
20
143.979517
70
0
0
VERTEX
8
0
10
73.104244
20
144.175471
70
0
0
VERTEX
8
0
10
73.898339
20
144.709977
70
0
0
VERTEX
8
0
10
74.434437
20
145.502999
70
0
0
VERTEX
8
0
10
74.632340
20
146.474500
70
0
0
VERTEX
8
0
10
74.632340
20
146.474500
70
0
0
SEQEND
8
0
0
POLYLINE
8
0
62
10
70
0
10
0.000000
20
0.000000
66
1
0
VERTEX
8
0
10
74.632340
20
346.474248
70
0
0
VERTEX
8
0
10
74.434437
20
347.445749
70
0
0
VERTEX
8
0
10
73.898339
20
348.238770
70
0
0
VERTEX
8
0
10
73.104244
20
348.773276
70
0
0
VERTEX
8
0
10
72.132348
20
348.969231
70
0
0
VERTEX
8
0
10
71.160452
20
348.773276
70
0
0
VERTEX
8
0
10
70.366357
20
348.238770
70
0
0
VERTEX
8
0
10
69.830259
20
347.445749
70
0
0
VERTEX
8
0
10
69.632356
20
346.474248
70
0
0
VERTEX
8
0
10
69.830259
20
345.502746
70
0
0
VERTEX
8
0
10
70.366357
20
344.709725
70
0
0
VERTEX
8
0
10
71.160452
20
344.175219
70
0
0
VERTEX
8
0
10
72.132348
20
343.979264
70
0
0
VERTEX
8
0
10
73.104244
20
344.175219
70
0
0
VERTEX
8
0
10
73.898339
20
344.709725
70
0
0
VERTEX
8
0
10
74.434437
20
345.502746
70
0
0
VERTEX
8
0
10
74.632340
20
346.474248
70
0
0
VERTEX
8
0
10
74.632340
20
346.474248
70
0
0
SEQEND
8
0
0
POLYLINE
8
0
62
10
70
0
10
0.000000
20
0.000000
66
1
0
VERTEX
8
0
10
165.632226
20
246.474359
70
0
0
VERTEX
8
0
10
165.545687
20
247.126653
70
0
0
VERTEX
8
0
10
165.297289
20
247.724358
70
0
0
VERTEX
8
0
10
164.903860
20
248.238329
70
0
0
VERTEX
8
0
10
164.382227
20
248.639420
70
0
0
VERTEX
8
0
10
163.774055
20
248.890622
70
0
0
VERTEX
8
0
10
163.132228
20
248.974356
70
0
0
VERTEX
8
0
10
162.490402
20
248.890622
70
0
0
VERTEX
8
0
10
161.882230
20
248.639420
70
0
0
VERTEX
8
0
10
161.360597
20
248.238329
70
0
0
VERTEX
8
0
10
160.967167
20
247.724358
70
0
0
VERTEX
8
0
10
160.718770
20
247.126653
70
0
0
VERTEX
8
0
10
160.632231
20
246.474359
70
0
0
VERTEX
8
0
10
160.718770
20
245.822066
70
0
0
VERTEX
8
0
10
160.967167
20
245.224361
70
0
0
VERTEX
8
0
10
161.360597
20
244.710389
70
0
0
VERTEX
8
0
10
161.882230
20
244.309298
70
0
0
VERTEX
8
0
10
162.490402
20
244.058096
70
0
0
VERTEX
8
0
10
163.132228
20
243.974362
70
0
0
VERTEX
8
0
10
163.774055
20
244.058096
70
0
0
VERTEX
8
0
10
164.382227
20
244.309298
70
0
0
VERTEX
8
0
10
164.903860
20
244.710389
70
0
0
VERTEX
8
0
10
165.297289
20
245.224361
70
0
0
VERTEX
8
0
10
165.545687
20
245.822066
70
0
0
VERTEX
8
0
10
165.632226
20
246.474359
70
0
0
VERTEX
8
0
10
165.632226
20
246.474359
70
0
0
SEQEND
8
0
0
POLYLINE
8
0
62
10
70
0
10
0.000000
20
0.000000
66
1
0
VERTEX
8
0
10
165.632226
20
66.474602
70
0
0
VERTEX
8
0
10
165.545687
20
67.126895
70
0
0
VERTEX
8
0
10
165.297289
20
67.724601
70
0
0
VERTEX
8
0
10
164.903860
20
68.238572
70
0
0
VERTEX
8
0
10
164.382227
20
68.639663
70
0
0
VERTEX
8
0
10
163.774055
20
68.890865
70
0
0
VERTEX
8
0
10
163.132228
20
68.974599
70
0
0
VERTEX
8
0
10
162.490402
20
68.890865
70
0
0
VERTEX
8
0
10
161.882230
20
68.639663
70
0
0
VERTEX
8
0
10
161.360597
20
68.238572
70
0
0
VERTEX
8
0
10
160.967167
20
67.724601
70
0
0
VERTEX
8
0
10
160.718770
20
67.126895
70
0
0
VERTEX
8
0
10
160.632231
20
66.474602
70
0
0
VERTEX
8
0
10
160.718770
20
65.822309
70
0
0
VERTEX
8
0
10
160.967167
20
65.224603
70
0
0
VERTEX
8
0
10
161.360597
20
64.710632
70
0
0
VERTEX
8
0
10
161.882230
20
64.309541
70
0
0
VERTEX
8
0
10
162.490402
20
64.058339
70
0
0
VERTEX
8
0
10
163.132228
20
63.974605
70
0
0
VERTEX
8
0
10
163.774055
20
64.058339
70
0
0
VERTEX
8
0
10
164.382227
20
64.309541
70
0
0
VERTEX
8
0
10
164.903860
20
64.710632
70
0
0
VERTEX
8
0
10
165.297289
20
65.224603
70
0
0
VERTEX
8
0
10
165.545687
20
65.822309
70
0
0
VERTEX
8
0
10
165.632226
20
66.474602
70
0
0
VERTEX
8
0
10
165.632226
20
66.474602
70
0
0
SEQEND
8
0
0
POLYLINE
8
0
62
10
70
0
10
0.000000
20
0.000000
66
1
0
VERTEX
8
0
10
165.632226
20
426.474148
70
0
0
VERTEX
8
0
10
165.545687
20
427.126442
70
0
0
VERTEX
8
0
10
165.297289
20
427.724147
70
0
0
VERTEX
8
0
10
164.903860
20
428.238118
70
0
0
VERTEX
8
0
10
164.382227
20
428.639209
70
0
0
VERTEX
8
0
10
163.774055
20
428.890411
70
0
0
VERTEX
8
0
10
163.132228
20
428.974145
70
0
0
VERTEX
8
0
10
162.490402
20
428.890411
70
0
0
VERTEX
8
0
10
161.882230
20
428.639209
70
0
0
VERTEX
8
0
10
161.360597
20
428.238118
70
0
0
VERTEX
8
0
10
160.967167
20
427.724147
70
0
0
VERTEX
8
0
10
160.718770
20
427.126442
70
0
0
VERTEX
8
0
10
160.632231
20
426.474148
70
0
0
VERTEX
8
0
10
160.718770
20
425.821855
70
0
0
VERTEX
8
0
10
160.967167
20
425.224150
70
0
0
VERTEX
8
0
10
161.360597
20
424.710178
70
0
0
VERTEX
8
0
10
161.882230
20
424.309087
70
0
0
VERTEX
8
0
10
162.490402
20
424.057885
70
0
0
VERTEX
8
0
10
163.132228
20
423.974151
70
0
0
VERTEX
8
0
10
163.774055
20
424.057885
70
0
0
VERTEX
8
0
10
164.382227
20
424.309087
70
0
0
VERTEX
8
0
10
164.903860
20
424.710178
70
0
0
VERTEX
8
0
10
165.297289
20
425.224150
70
0
0
VERTEX
8
0
10
165.545687
20
425.821855
70
0
0
VERTEX
8
0
10
165.632226
20
426.474148
70
0
0
VERTEX
8
0
10
165.632226
20
426.474148
70
0
0
SEQEND
8
0
0
POLYLINE
8
0
62
10
70
0
10
0.000000
20
0.000000
66
1
0
VERTEX
8
0
10
110.632296
20
426.474148
70
0
0
VERTEX
8
0
10
110.434393
20
427.445649
70
0
0
VERTEX
8
0
10
109.898296
20
428.238671
70
0
0
VERTEX
8
0
10
109.104201
20
428.773177
70
0
0
VERTEX
8
0
10
108.132305
20
428.969131
70
0
0
VERTEX
8
0
10
107.160408
20
428.773177
70
0
0
VERTEX
8
0
10
106.366313
20
428.238671
70
0
0
VERTEX
8
0
10
105.830216
20
427.445649
70
0
0
VERTEX
8
0
10
105.632313
20
426.474148
70
0
0
VERTEX
8
0
10
105.830216
20
425.502647
70
0
0
VERTEX
8
0
10
106.366313
20
424.709625
70
0
0
VERTEX
8
0
10
107.160408
20
424.175119
70
0
0
VERTEX
8
0
10
108.132305
20
423.979165
70
0
0
VERTEX
8
0
10
109.104201
20
424.175119
70
0
0
VERTEX
8
0
10
109.898296
20
424.709625
70
0
0
VERTEX
8
0
10
110.434393
20
425.502647
70
0
0
VERTEX
8
0
10
110.632296
20
426.474148
70
0
0
VERTEX
8
0
10
110.632296
20
426.474148
70
0
0
SEQEND
8
0
0
POLYLINE
8
0
62
10
70
0
10
0.000000
20
0.000000
66
1
0
VERTEX
8
0
10
110.632296
20
246.474359
70
0
0
VERTEX
8
0
10
110.434393
20
247.445860
70
0
0
VERTEX
8
0
10
109.898296
20
248.238882
70
0
0
VERTEX
8
0
10
109.104201
20
248.773388
70
0
0
VERTEX
8
0
10
108.132305
20
248.969343
70
0
0
VERTEX
8
0
10
107.160408
20
248.773388
70
0
0
VERTEX
8
0
10
106.366313
20
248.238882
70
0
0
VERTEX
8
0
10
105.830216
20
247.445860
70
0
0
VERTEX
8
0
10
105.632313
20
246.474359
70
0
0
VERTEX
8
0
10
105.830216
20
245.502858
70
0
0
VERTEX
8
0
10
106.366313
20
244.709836
70
0
0
VERTEX
8
0
10
107.160408
20
244.175330
70
0
0
VERTEX
8
0
10
108.132305
20
243.979376
70
0
0
VERTEX
8
0
10
109.104201
20
244.175330
70
0
0
VERTEX
8
0
10
109.898296
20
244.709836
70
0
0
VERTEX
8
0
10
110.434393
20
245.502858
70
0
0
VERTEX
8
0
10
110.632296
20
246.474359
70
0
0
VERTEX
8
0
10
110.632296
20
246.474359
70
0
0
SEQEND
8
0
0
POLYLINE
8
0
62
10
70
0
10
0.000000
20
0.000000
66
1
0
VERTEX
8
0
10
110.632296
20
66.474602
70
0
0
VERTEX
8
0
10
110.434393
20
67.446103
70
0
0
VERTEX
8
0
10
109.898296
20
68.239125
70
0
0
VERTEX
8
0
10
109.104201
20
68.773631
70
0
0
VERTEX
8
0
10
108.132305
20
68.969585
70
0
0
VERTEX
8
0
10
107.160408
20
68.773631
70
0
0
VERTEX
8
0
10
106.366313
20
68.239125
70
0
0
VERTEX
8
0
10
105.830216
20
67.446103
70
0
0
VERTEX
8
0
10
105.632313
20
66.474602
70
0
0
VERTEX
8
0
10
105.830216
20
65.503101
70
0
0
VERTEX
8
0
10
106.366313
20
64.710079
70
0
0
VERTEX
8
0
10
107.160408
20
64.175573
70
0
0
VERTEX
8
0
10
108.132305
20
63.979619
70
0
0
VERTEX
8
0
10
109.104201
20
64.175573
70
0
0
VERTEX
8
0
10
109.898296
20
64.710079
70
0
0
VERTEX
8
0
10
110.434393
20
65.503101
70
0
0
VERTEX
8
0
10
110.632296
20
66.474602
70
0
0
VERTEX
8
0
10
110.632296
20
66.474602
70
0
0
SEQEND
8
0
0
POLYLINE
8
0
62
50
70
0
10
0.000000
20
0.000000
66
1
0
VERTEX
8
0
10
10.132694
20
10.475081
70
0
0
VERTEX
8
0
10
810.131133
20
10.475081
70
0
0
SEQEND
8
0
0
POLYLINE
8
0
62
50
70
0
10
0.000000
20
0.000000
66
1
0
VERTEX
8
0
10
10.132694
20
510.473987
70
0
0
VERTEX
8
0
10
10.132694
20
10.475081
70
0
0
SEQEND
8
0
0
POLYLINE
8
0
62
50
70
0
10
0.000000
20
0.000000
66
1
0
VERTEX
8
0
10
10.132694
20
510.473987
70
0
0
VERTEX
8
0
10
810.131133
20
510.473987
70
0
0
SEQEND
8
0
0
POLYLINE
8
0
62
170
70
0
10
0.000000
20
0.000000
66
1
0
VERTEX
8
0
10
310.131969
20
65.473949
70
0
0
VERTEX
8
0
10
310.131969
20
10.475081
70
0
0
SEQEND
8
0
0
POLYLINE
8
0
62
170
70
0
10
0.000000
20
0.000000
66
1
0
VERTEX
8
0
10
755.132264
20
510.473987
70
0
0
VERTEX
8
0
10
255.132053
20
10.475081
70
0
0
SEQEND
8
0
0
POLYLINE
8
0
62
50
70
0
10
0.000000
20
0.000000
66
1
0
VERTEX
8
0
10
810.131133
20
10.475081
70
0
0
VERTEX
8
0
10
810.131133
20
510.473987
70
0
0
SEQEND
8
0
0
POLYLINE
8
0
62
170
70
0
10
0.000000
20
0.000000
66
1
0
VERTEX
8
0
10
700.130750
20
510.473987
70
0
0
VERTEX
8
0
10
700.130750
20
455.474062
70
0
0
SEQEND
8
0
0
POLYLINE
8
0
62
170
70
0
10
0.000000
20
0.000000
66
1
0
VERTEX
8
0
10
200.132126
20
10.475081
70
0
0
VERTEX
8
0
10
200.132126
20
510.473987
70
0
0
SEQEND
8
0
0
POLYLINE
8
0
62
170
70
0
10
0.000000
20
0.000000
66
1
0
VERTEX
8
0
10
90.132009
20
10.475081
70
0
0
VERTEX
8
0
10
90.132009
20
482.473963
70
0
0
SEQEND
8
0
0
POLYLINE
8
0
62
170
70
0
10
0.000000
20
0.000000
66
1
0
VERTEX
8
0
10
54.132846
20
482.473963
70
0
0
VERTEX
8
0
10
54.132846
20
10.475081
70
0
0
SEQEND
8
0
0
POLYLINE
8
0
62
170
70
0
10
0.000000
20
0.000000
66
1
0
VERTEX
8
0
10
54.132846
20
482.473963
70
0
0
VERTEX
8
0
10
200.132126
20
482.473963
70
0
0
SEQEND
8
0
0
POLYLINE
8
0
62
170
70
0
10
0.000000
20
0.000000
66
1
0
VERTEX
8
0
10
145.133523
20
10.475081
70
0
0
VERTEX
8
0
10
145.133523
20
482.473963
70
0
0
SEQEND
8
0
 0 
ENDSEC
 0 
EOF