999
"DXF R12 Output" (www.mydxf.blogspot.com)
 0 
SECTION
 2 
HEADER
 9 
$ACADVER
 1 
AC1009
 9 
$EXTMIN
 10 
 0 
 20 
 0 
 9 
$EXTMAX
 10 
 8.5 
 20 
 11 
 0 
ENDSEC
 0 
SECTION
 2 
ENTITIES
0
POLYLINE
8
0
62
10
70
0
10
0.000000
20
0.000000
66
1
0
VERTEX
8
0
10
193.349004
20
99.258425
70
0
0
VERTEX
8
0
10
193.262466
20
99.910719
70
0
0
VERTEX
8
0
10
193.014068
20
100.508424
70
0
0
VERTEX
8
0
10
192.620639
20
101.022395
70
0
0
VERTEX
8
0
10
192.099006
20
101.423486
70
0
0
SEQEND
8
0
0
POLYLINE
8
0
62
10
70
0
10
0.000000
20
0.000000
66
1
0
VERTEX
8
0
10
192.099006
20
101.423486
70
0
0
VERTEX
8
0
10
191.490834
20
101.674689
70
0
0
VERTEX
8
0
10
190.849008
20
101.758423
70
0
0
VERTEX
8
0
10
190.207181
20
101.674689
70
0
0
VERTEX
8
0
10
189.599009
20
101.423486
70
0
0
SEQEND
8
0
0
POLYLINE
8
0
62
10
70
0
10
0.000000
20
0.000000
66
1
0
VERTEX
8
0
10
189.599009
20
101.423486
70
0
0
VERTEX
8
0
10
189.077376
20
101.022395
70
0
0
VERTEX
8
0
10
188.683947
20
100.508424
70
0
0
VERTEX
8
0
10
188.435549
20
99.910719
70
0
0
VERTEX
8
0
10
188.349011
20
99.258425
70
0
0
SEQEND
8
0
0
POLYLINE
8
0
62
10
70
0
10
0.000000
20
0.000000
66
1
0
VERTEX
8
0
10
188.349011
20
99.258425
70
0
0
VERTEX
8
0
10
188.435549
20
98.606132
70
0
0
VERTEX
8
0
10
188.683947
20
98.008427
70
0
0
VERTEX
8
0
10
189.077376
20
97.494455
70
0
0
VERTEX
8
0
10
189.599009
20
97.093364
70
0
0
SEQEND
8
0
0
POLYLINE
8
0
62
10
70
0
10
0.000000
20
0.000000
66
1
0
VERTEX
8
0
10
189.599009
20
97.093364
70
0
0
VERTEX
8
0
10
190.207181
20
96.842162
70
0
0
VERTEX
8
0
10
190.849008
20
96.758428
70
0
0
VERTEX
8
0
10
191.490834
20
96.842162
70
0
0
VERTEX
8
0
10
192.099006
20
97.093364
70
0
0
SEQEND
8
0
0
POLYLINE
8
0
62
10
70
0
10
0.000000
20
0.000000
66
1
0
VERTEX
8
0
10
192.099006
20
97.093364
70
0
0
VERTEX
8
0
10
192.620639
20
97.494455
70
0
0
VERTEX
8
0
10
193.014068
20
98.008427
70
0
0
VERTEX
8
0
10
193.262466
20
98.606132
70
0
0
VERTEX
8
0
10
193.349004
20
99.258425
70
0
0
SEQEND
8
0
0
POLYLINE
8
0
62
10
70
0
10
0.000000
20
0.000000
66
1
0
VERTEX
8
0
10
67.349163
20
385.258066
70
0
0
VERTEX
8
0
10
67.262624
20
385.910361
70
0
0
VERTEX
8
0
10
67.014226
20
386.508068
70
0
0
VERTEX
8
0
10
66.620796
20
387.022041
70
0
0
VERTEX
8
0
10
66.099161
20
387.423133
70
0
0
SEQEND
8
0
0
POLYLINE
8
0
62
10
70
0
10
0.000000
20
0.000000
66
1
0
VERTEX
8
0
10
66.099161
20
387.423133
70
0
0
VERTEX
8
0
10
65.490986
20
387.674336
70
0
0
VERTEX
8
0
10
64.849158
20
387.758071
70
0
0
VERTEX
8
0
10
64.207329
20
387.674336
70
0
0
VERTEX
8
0
10
63.599155
20
387.423133
70
0
0
SEQEND
8
0
0
POLYLINE
8
0
62
10
70
0
10
0.000000
20
0.000000
66
1
0
VERTEX
8
0
10
63.599155
20
387.423133
70
0
0
VERTEX
8
0
10
63.077520
20
387.022041
70
0
0
VERTEX
8
0
10
62.684090
20
386.508068
70
0
0
VERTEX
8
0
10
62.435691
20
385.910361
70
0
0
VERTEX
8
0
10
62.349152
20
385.258066
70
0
0
SEQEND
8
0
0
POLYLINE
8
0
62
10
70
0
10
0.000000
20
0.000000
66
1
0
VERTEX
8
0
10
62.349152
20
385.258066
70
0
0
VERTEX
8
0
10
62.545615
20
384.284951
70
0
0
VERTEX
8
0
10
63.081387
20
383.490295
70
0
0
VERTEX
8
0
10
63.876043
20
382.954524
70
0
0
VERTEX
8
0
10
64.849157
20
382.758061
70
0
0
SEQEND
8
0
0
POLYLINE
8
0
62
10
70
0
10
0.000000
20
0.000000
66
1
0
VERTEX
8
0
10
64.849157
20
382.758061
70
0
0
VERTEX
8
0
10
65.822272
20
382.954524
70
0
0
VERTEX
8
0
10
66.616928
20
383.490295
70
0
0
VERTEX
8
0
10
67.152700
20
384.284951
70
0
0
VERTEX
8
0
10
67.349163
20
385.258066
70
0
0
SEQEND
8
0
0
POLYLINE
8
0
62
10
70
0
10
0.000000
20
0.000000
66
1
0
VERTEX
8
0
10
167.349036
20
33.258511
70
0
0
VERTEX
8
0
10
167.262498
20
33.910805
70
0
0
VERTEX
8
0
10
167.014100
20
34.508510
70
0
0
VERTEX
8
0
10
166.620671
20
35.022481
70
0
0
VERTEX
8
0
10
166.099038
20
35.423573
70
0
0
SEQEND
8
0
0
POLYLINE
8
0
62
10
70
0
10
0.000000
20
0.000000
66
1
0
VERTEX
8
0
10
166.099038
20
35.423573
70
0
0
VERTEX
8
0
10
165.490866
20
35.674775
70
0
0
VERTEX
8
0
10
164.849039
20
35.758509
70
0
0
VERTEX
8
0
10
164.207212
20
35.674775
70
0
0
VERTEX
8
0
10
163.599040
20
35.423573
70
0
0
SEQEND
8
0
0
POLYLINE
8
0
62
10
70
0
10
0.000000
20
0.000000
66
1
0
VERTEX
8
0
10
163.599040
20
35.423573
70
0
0
VERTEX
8
0
10
163.077406
20
35.022481
70
0
0
VERTEX
8
0
10
162.683977
20
34.508510
70
0
0
VERTEX
8
0
10
162.435580
20
33.910805
70
0
0
VERTEX
8
0
10
162.349041
20
33.258511
70
0
0
SEQEND
8
0
0
POLYLINE
8
0
62
10
70
0
10
0.000000
20
0.000000
66
1
0
VERTEX
8
0
10
162.349041
20
33.258511
70
0
0
VERTEX
8
0
10
162.435580
20
32.606218
70
0
0
VERTEX
8
0
10
162.683977
20
32.008513
70
0
0
VERTEX
8
0
10
163.077406
20
31.494541
70
0
0
VERTEX
8
0
10
163.599040
20
31.093450
70
0
0
SEQEND
8
0
0
POLYLINE
8
0
62
10
70
0
10
0.000000
20
0.000000
66
1
0
VERTEX
8
0
10
163.599040
20
31.093450
70
0
0
VERTEX
8
0
10
164.207212
20
30.842248
70
0
0
VERTEX
8
0
10
164.849039
20
30.758514
70
0
0
VERTEX
8
0
10
165.490866
20
30.842248
70
0
0
VERTEX
8
0
10
166.099038
20
31.093450
70
0
0
SEQEND
8
0
0
POLYLINE
8
0
62
10
70
0
10
0.000000
20
0.000000
66
1
0
VERTEX
8
0
10
166.099038
20
31.093450
70
0
0
VERTEX
8
0
10
166.620671
20
31.494541
70
0
0
VERTEX
8
0
10
167.014100
20
32.008513
70
0
0
VERTEX
8
0
10
167.262498
20
32.606218
70
0
0
VERTEX
8
0
10
167.349036
20
33.258511
70
0
0
SEQEND
8
0
0
POLYLINE
8
0
62
10
70
0
10
0.000000
20
0.000000
66
1
0
VERTEX
8
0
10
167.349036
20
385.258066
70
0
0
VERTEX
8
0
10
167.262498
20
385.910359
70
0
0
VERTEX
8
0
10
167.014100
20
386.508064
70
0
0
VERTEX
8
0
10
166.620671
20
387.022035
70
0
0
VERTEX
8
0
10
166.099038
20
387.423127
70
0
0
SEQEND
8
0
0
POLYLINE
8
0
62
10
70
0
10
0.000000
20
0.000000
66
1
0
VERTEX
8
0
10
166.099038
20
387.423127
70
0
0
VERTEX
8
0
10
165.490866
20
387.674329
70
0
0
VERTEX
8
0
10
164.849039
20
387.758063
70
0
0
VERTEX
8
0
10
164.207212
20
387.674329
70
0
0
VERTEX
8
0
10
163.599040
20
387.423127
70
0
0
SEQEND
8
0
0
POLYLINE
8
0
62
10
70
0
10
0.000000
20
0.000000
66
1
0
VERTEX
8
0
10
163.599040
20
387.423127
70
0
0
VERTEX
8
0
10
163.077406
20
387.022035
70
0
0
VERTEX
8
0
10
162.683977
20
386.508064
70
0
0
VERTEX
8
0
10
162.435580
20
385.910359
70
0
0
VERTEX
8
0
10
162.349041
20
385.258066
70
0
0
SEQEND
8
0
0
POLYLINE
8
0
62
10
70
0
10
0.000000
20
0.000000
66
1
0
VERTEX
8
0
10
162.349041
20
385.258066
70
0
0
VERTEX
8
0
10
162.435580
20
384.605772
70
0
0
VERTEX
8
0
10
162.683977
20
384.008067
70
0
0
VERTEX
8
0
10
163.077406
20
383.494096
70
0
0
VERTEX
8
0
10
163.599040
20
383.093004
70
0
0
SEQEND
8
0
0
POLYLINE
8
0
62
10
70
0
10
0.000000
20
0.000000
66
1
0
VERTEX
8
0
10
163.599040
20
383.093004
70
0
0
VERTEX
8
0
10
164.207212
20
382.841802
70
0
0
VERTEX
8
0
10
164.849039
20
382.758068
70
0
0
VERTEX
8
0
10
165.490866
20
382.841802
70
0
0
VERTEX
8
0
10
166.099038
20
383.093004
70
0
0
SEQEND
8
0
0
POLYLINE
8
0
62
10
70
0
10
0.000000
20
0.000000
66
1
0
VERTEX
8
0
10
166.099038
20
383.093004
70
0
0
VERTEX
8
0
10
166.620671
20
383.494096
70
0
0
VERTEX
8
0
10
167.014100
20
384.008067
70
0
0
VERTEX
8
0
10
167.262498
20
384.605772
70
0
0
VERTEX
8
0
10
167.349036
20
385.258066
70
0
0
SEQEND
8
0
0
POLYLINE
8
0
62
10
70
0
10
0.000000
20
0.000000
66
1
0
VERTEX
8
0
10
67.349163
20
33.258511
70
0
0
VERTEX
8
0
10
67.262624
20
33.910807
70
0
0
VERTEX
8
0
10
67.014226
20
34.508514
70
0
0
VERTEX
8
0
10
66.620796
20
35.022487
70
0
0
VERTEX
8
0
10
66.099161
20
35.423580
70
0
0
SEQEND
8
0
0
POLYLINE
8
0
62
10
70
0
10
0.000000
20
0.000000
66
1
0
VERTEX
8
0
10
66.099161
20
35.423580
70
0
0
VERTEX
8
0
10
65.490986
20
35.674782
70
0
0
VERTEX
8
0
10
64.849158
20
35.758516
70
0
0
VERTEX
8
0
10
64.207329
20
35.674782
70
0
0
VERTEX
8
0
10
63.599155
20
35.423580
70
0
0
SEQEND
8
0
0
POLYLINE
8
0
62
10
70
0
10
0.000000
20
0.000000
66
1
0
VERTEX
8
0
10
63.599155
20
35.423580
70
0
0
VERTEX
8
0
10
63.077520
20
35.022487
70
0
0
VERTEX
8
0
10
62.684090
20
34.508514
70
0
0
VERTEX
8
0
10
62.435691
20
33.910807
70
0
0
VERTEX
8
0
10
62.349152
20
33.258511
70
0
0
SEQEND
8
0
0
POLYLINE
8
0
62
10
70
0
10
0.000000
20
0.000000
66
1
0
VERTEX
8
0
10
62.349152
20
33.258511
70
0
0
VERTEX
8
0
10
62.545615
20
32.285397
70
0
0
VERTEX
8
0
10
63.081387
20
31.490741
70
0
0
VERTEX
8
0
10
63.876043
20
30.954969
70
0
0
VERTEX
8
0
10
64.849157
20
30.758506
70
0
0
SEQEND
8
0
0
POLYLINE
8
0
62
10
70
0
10
0.000000
20
0.000000
66
1
0
VERTEX
8
0
10
64.849157
20
30.758506
70
0
0
VERTEX
8
0
10
65.822272
20
30.954969
70
0
0
VERTEX
8
0
10
66.616928
20
31.490741
70
0
0
VERTEX
8
0
10
67.152700
20
32.285397
70
0
0
VERTEX
8
0
10
67.349163
20
33.258511
70
0
0
SEQEND
8
0
0
POLYLINE
8
0
62
10
70
0
10
0.000000
20
0.000000
66
1
0
VERTEX
8
0
10
41.349199
20
99.258425
70
0
0
VERTEX
8
0
10
41.262660
20
99.910721
70
0
0
VERTEX
8
0
10
41.014262
20
100.508428
70
0
0
VERTEX
8
0
10
40.620831
20
101.022401
70
0
0
VERTEX
8
0
10
40.099196
20
101.423493
70
0
0
SEQEND
8
0
0
POLYLINE
8
0
62
10
70
0
10
0.000000
20
0.000000
66
1
0
VERTEX
8
0
10
40.099196
20
101.423493
70
0
0
VERTEX
8
0
10
39.491023
20
101.674696
70
0
0
VERTEX
8
0
10
38.849194
20
101.758430
70
0
0
VERTEX
8
0
10
38.207365
20
101.674696
70
0
0
VERTEX
8
0
10
37.599192
20
101.423493
70
0
0
SEQEND
8
0
0
POLYLINE
8
0
62
10
70
0
10
0.000000
20
0.000000
66
1
0
VERTEX
8
0
10
37.599192
20
101.423493
70
0
0
VERTEX
8
0
10
37.077557
20
101.022401
70
0
0
VERTEX
8
0
10
36.684126
20
100.508428
70
0
0
VERTEX
8
0
10
36.435728
20
99.910721
70
0
0
VERTEX
8
0
10
36.349189
20
99.258425
70
0
0
SEQEND
8
0
0
POLYLINE
8
0
62
10
70
0
10
0.000000
20
0.000000
66
1
0
VERTEX
8
0
10
36.349189
20
99.258425
70
0
0
VERTEX
8
0
10
36.435728
20
98.606130
70
0
0
VERTEX
8
0
10
36.684126
20
98.008423
70
0
0
VERTEX
8
0
10
37.077557
20
97.494450
70
0
0
VERTEX
8
0
10
37.599192
20
97.093357
70
0
0
SEQEND
8
0
0
POLYLINE
8
0
62
10
70
0
10
0.000000
20
0.000000
66
1
0
VERTEX
8
0
10
37.599192
20
97.093357
70
0
0
VERTEX
8
0
10
38.207365
20
96.842154
70
0
0
VERTEX
8
0
10
38.849194
20
96.758420
70
0
0
VERTEX
8
0
10
39.491023
20
96.842154
70
0
0
VERTEX
8
0
10
40.099196
20
97.093357
70
0
0
SEQEND
8
0
0
POLYLINE
8
0
62
10
70
0
10
0.000000
20
0.000000
66
1
0
VERTEX
8
0
10
40.099196
20
97.093357
70
0
0
VERTEX
8
0
10
40.620831
20
97.494450
70
0
0
VERTEX
8
0
10
41.014262
20
98.008423
70
0
0
VERTEX
8
0
10
41.262660
20
98.606130
70
0
0
VERTEX
8
0
10
41.349199
20
99.258425
70
0
0
SEQEND
8
0
0
POLYLINE
8
0
62
10
70
0
10
0.000000
20
0.000000
66
1
0
VERTEX
8
0
10
41.349199
20
319.258152
70
0
0
VERTEX
8
0
10
41.262660
20
319.910447
70
0
0
VERTEX
8
0
10
41.014262
20
320.508154
70
0
0
VERTEX
8
0
10
40.620831
20
321.022127
70
0
0
VERTEX
8
0
10
40.099196
20
321.423219
70
0
0
SEQEND
8
0
0
POLYLINE
8
0
62
10
70
0
10
0.000000
20
0.000000
66
1
0
VERTEX
8
0
10
40.099196
20
321.423219
70
0
0
VERTEX
8
0
10
39.491023
20
321.674422
70
0
0
VERTEX
8
0
10
38.849194
20
321.758157
70
0
0
VERTEX
8
0
10
38.207365
20
321.674422
70
0
0
VERTEX
8
0
10
37.599192
20
321.423219
70
0
0
SEQEND
8
0
0
POLYLINE
8
0
62
10
70
0
10
0.000000
20
0.000000
66
1
0
VERTEX
8
0
10
37.599192
20
321.423219
70
0
0
VERTEX
8
0
10
37.077557
20
321.022127
70
0
0
VERTEX
8
0
10
36.684126
20
320.508154
70
0
0
VERTEX
8
0
10
36.435728
20
319.910447
70
0
0
VERTEX
8
0
10
36.349189
20
319.258152
70
0
0
SEQEND
8
0
0
POLYLINE
8
0
62
10
70
0
10
0.000000
20
0.000000
66
1
0
VERTEX
8
0
10
36.349189
20
319.258152
70
0
0
VERTEX
8
0
10
36.435728
20
318.605856
70
0
0
VERTEX
8
0
10
36.684126
20
318.008149
70
0
0
VERTEX
8
0
10
37.077557
20
317.494176
70
0
0
VERTEX
8
0
10
37.599192
20
317.093084
70
0
0
SEQEND
8
0
0
POLYLINE
8
0
62
10
70
0
10
0.000000
20
0.000000
66
1
0
VERTEX
8
0
10
37.599192
20
317.093084
70
0
0
VERTEX
8
0
10
38.207365
20
316.841881
70
0
0
VERTEX
8
0
10
38.849194
20
316.758146
70
0
0
VERTEX
8
0
10
39.491023
20
316.841881
70
0
0
VERTEX
8
0
10
40.099196
20
317.093084
70
0
0
SEQEND
8
0
0
POLYLINE
8
0
62
10
70
0
10
0.000000
20
0.000000
66
1
0
VERTEX
8
0
10
40.099196
20
317.093084
70
0
0
VERTEX
8
0
10
40.620831
20
317.494176
70
0
0
VERTEX
8
0
10
41.014262
20
318.008149
70
0
0
VERTEX
8
0
10
41.262660
20
318.605856
70
0
0
VERTEX
8
0
10
41.349199
20
319.258152
70
0
0
SEQEND
8
0
0
POLYLINE
8
0
62
10
70
0
10
0.000000
20
0.000000
66
1
0
VERTEX
8
0
10
193.349004
20
319.258152
70
0
0
VERTEX
8
0
10
193.262466
20
319.910445
70
0
0
VERTEX
8
0
10
193.014068
20
320.508150
70
0
0
VERTEX
8
0
10
192.620639
20
321.022121
70
0
0
VERTEX
8
0
10
192.099006
20
321.423212
70
0
0
SEQEND
8
0
0
POLYLINE
8
0
62
10
70
0
10
0.000000
20
0.000000
66
1
0
VERTEX
8
0
10
192.099006
20
321.423212
70
0
0
VERTEX
8
0
10
191.490834
20
321.674415
70
0
0
VERTEX
8
0
10
190.849008
20
321.758149
70
0
0
VERTEX
8
0
10
190.207181
20
321.674415
70
0
0
VERTEX
8
0
10
189.599009
20
321.423212
70
0
0
SEQEND
8
0
0
POLYLINE
8
0
62
10
70
0
10
0.000000
20
0.000000
66
1
0
VERTEX
8
0
10
189.599009
20
321.423212
70
0
0
VERTEX
8
0
10
189.077376
20
321.022121
70
0
0
VERTEX
8
0
10
188.683947
20
320.508150
70
0
0
VERTEX
8
0
10
188.435549
20
319.910445
70
0
0
VERTEX
8
0
10
188.349011
20
319.258152
70
0
0
SEQEND
8
0
0
POLYLINE
8
0
62
10
70
0
10
0.000000
20
0.000000
66
1
0
VERTEX
8
0
10
188.349011
20
319.258152
70
0
0
VERTEX
8
0
10
188.435549
20
318.605859
70
0
0
VERTEX
8
0
10
188.683947
20
318.008153
70
0
0
VERTEX
8
0
10
189.077376
20
317.494182
70
0
0
VERTEX
8
0
10
189.599009
20
317.093091
70
0
0
SEQEND
8
0
0
POLYLINE
8
0
62
10
70
0
10
0.000000
20
0.000000
66
1
0
VERTEX
8
0
10
189.599009
20
317.093091
70
0
0
VERTEX
8
0
10
190.207181
20
316.841889
70
0
0
VERTEX
8
0
10
190.849008
20
316.758155
70
0
0
VERTEX
8
0
10
191.490834
20
316.841889
70
0
0
VERTEX
8
0
10
192.099006
20
317.093091
70
0
0
SEQEND
8
0
0
POLYLINE
8
0
62
10
70
0
10
0.000000
20
0.000000
66
1
0
VERTEX
8
0
10
192.099006
20
317.093091
70
0
0
VERTEX
8
0
10
192.620639
20
317.494182
70
0
0
VERTEX
8
0
10
193.014068
20
318.008153
70
0
0
VERTEX
8
0
10
193.262466
20
318.605859
70
0
0
VERTEX
8
0
10
193.349004
20
319.258152
70
0
0
SEQEND
8
0
0
POLYLINE
8
0
62
10
70
0
10
0.000000
20
0.000000
66
1
0
VERTEX
8
0
10
332.348828
20
27.258510
70
0
0
VERTEX
8
0
10
332.256059
20
28.164218
70
0
0
VERTEX
8
0
10
331.992978
20
29.007633
70
0
0
VERTEX
8
0
10
331.577638
20
29.770733
70
0
0
VERTEX
8
0
10
331.028088
20
30.435497
70
0
0
VERTEX
8
0
10
330.362382
20
30.983906
70
0
0
VERTEX
8
0
10
329.598571
20
31.397938
70
0
0
VERTEX
8
0
10
328.754707
20
31.659572
70
0
0
VERTEX
8
0
10
327.848841
20
31.750788
70
0
0
SEQEND
8
0
0
POLYLINE
8
0
62
10
70
0
10
0.000000
20
0.000000
66
1
0
VERTEX
8
0
10
327.848841
20
31.750788
70
0
0
VERTEX
8
0
10
326.942975
20
31.659572
70
0
0
VERTEX
8
0
10
326.099110
20
31.397938
70
0
0
VERTEX
8
0
10
325.335299
20
30.983906
70
0
0
VERTEX
8
0
10
324.669593
20
30.435497
70
0
0
VERTEX
8
0
10
324.120044
20
29.770733
70
0
0
VERTEX
8
0
10
323.704703
20
29.007633
70
0
0
VERTEX
8
0
10
323.441622
20
28.164218
70
0
0
VERTEX
8
0
10
323.348853
20
27.258510
70
0
0
SEQEND
8
0
0
POLYLINE
8
0
62
10
70
0
10
0.000000
20
0.000000
66
1
0
VERTEX
8
0
10
323.348853
20
27.258510
70
0
0
VERTEX
8
0
10
323.441622
20
26.352801
70
0
0
VERTEX
8
0
10
323.704703
20
25.509387
70
0
0
VERTEX
8
0
10
324.120044
20
24.746286
70
0
0
VERTEX
8
0
10
324.669593
20
24.081522
70
0
0
VERTEX
8
0
10
325.335299
20
23.533113
70
0
0
VERTEX
8
0
10
326.099110
20
23.119081
70
0
0
VERTEX
8
0
10
326.942975
20
22.857447
70
0
0
VERTEX
8
0
10
327.848841
20
22.766231
70
0
0
SEQEND
8
0
0
POLYLINE
8
0
62
10
70
0
10
0.000000
20
0.000000
66
1
0
VERTEX
8
0
10
327.848841
20
22.766231
70
0
0
VERTEX
8
0
10
328.754707
20
22.857447
70
0
0
VERTEX
8
0
10
329.598571
20
23.119081
70
0
0
VERTEX
8
0
10
330.362382
20
23.533113
70
0
0
VERTEX
8
0
10
331.028088
20
24.081522
70
0
0
VERTEX
8
0
10
331.577638
20
24.746286
70
0
0
VERTEX
8
0
10
331.992978
20
25.509387
70
0
0
VERTEX
8
0
10
332.256059
20
26.352801
70
0
0
VERTEX
8
0
10
332.348828
20
27.258510
70
0
0
SEQEND
8
0
0
POLYLINE
8
0
62
10
70
0
10
0.000000
20
0.000000
66
1
0
VERTEX
8
0
10
498.348631
20
27.258510
70
0
0
VERTEX
8
0
10
498.192858
20
28.432638
70
0
0
VERTEX
8
0
10
497.745741
20
29.508507
70
0
0
VERTEX
8
0
10
497.037568
20
30.433655
70
0
0
VERTEX
8
0
10
496.098628
20
31.155619
70
0
0
SEQEND
8
0
0
POLYLINE
8
0
62
10
70
0
10
0.000000
20
0.000000
66
1
0
VERTEX
8
0
10
496.098628
20
31.155619
70
0
0
VERTEX
8
0
10
495.003919
20
31.607783
70
0
0
VERTEX
8
0
10
493.848630
20
31.758504
70
0
0
VERTEX
8
0
10
492.693342
20
31.607783
70
0
0
VERTEX
8
0
10
491.598633
20
31.155619
70
0
0
SEQEND
8
0
0
POLYLINE
8
0
62
10
70
0
10
0.000000
20
0.000000
66
1
0
VERTEX
8
0
10
491.598633
20
31.155619
70
0
0
VERTEX
8
0
10
490.659693
20
30.433655
70
0
0
VERTEX
8
0
10
489.951520
20
29.508507
70
0
0
VERTEX
8
0
10
489.504405
20
28.432638
70
0
0
VERTEX
8
0
10
489.348636
20
27.258510
70
0
0
SEQEND
8
0
0
POLYLINE
8
0
62
10
70
0
10
0.000000
20
0.000000
66
1
0
VERTEX
8
0
10
489.348636
20
27.258510
70
0
0
VERTEX
8
0
10
489.504409
20
26.084381
70
0
0
VERTEX
8
0
10
489.951526
20
25.008512
70
0
0
VERTEX
8
0
10
490.659699
20
24.083364
70
0
0
VERTEX
8
0
10
491.598640
20
23.361400
70
0
0
SEQEND
8
0
0
POLYLINE
8
0
62
10
70
0
10
0.000000
20
0.000000
66
1
0
VERTEX
8
0
10
491.598640
20
23.361400
70
0
0
VERTEX
8
0
10
492.693349
20
22.909236
70
0
0
VERTEX
8
0
10
493.848637
20
22.758514
70
0
0
VERTEX
8
0
10
495.003925
20
22.909236
70
0
0
VERTEX
8
0
10
496.098634
20
23.361400
70
0
0
SEQEND
8
0
0
POLYLINE
8
0
62
10
70
0
10
0.000000
20
0.000000
66
1
0
VERTEX
8
0
10
496.098634
20
23.361400
70
0
0
VERTEX
8
0
10
497.037574
20
24.083364
70
0
0
VERTEX
8
0
10
497.745746
20
25.008512
70
0
0
VERTEX
8
0
10
498.192862
20
26.084381
70
0
0
VERTEX
8
0
10
498.348631
20
27.258510
70
0
0
SEQEND
8
0
0
POLYLINE
8
0
62
10
70
0
10
0.000000
20
0.000000
66
1
0
VERTEX
8
0
10
797.348254
20
33.258511
70
0
0
VERTEX
8
0
10
797.255512
20
34.164244
70
0
0
VERTEX
8
0
10
796.992448
20
35.007684
70
0
0
VERTEX
8
0
10
796.577116
20
35.770810
70
0
0
VERTEX
8
0
10
796.027568
20
36.435600
70
0
0
VERTEX
8
0
10
795.361856
20
36.984030
70
0
0
VERTEX
8
0
10
794.598033
20
37.398079
70
0
0
VERTEX
8
0
10
793.754152
20
37.659725
70
0
0
VERTEX
8
0
10
792.848265
20
37.750946
70
0
0
SEQEND
8
0
0
POLYLINE
8
0
62
10
70
0
10
0.000000
20
0.000000
66
1
0
VERTEX
8
0
10
792.848265
20
37.750946
70
0
0
VERTEX
8
0
10
791.942378
20
37.659725
70
0
0
VERTEX
8
0
10
791.098497
20
37.398079
70
0
0
VERTEX
8
0
10
790.334675
20
36.984030
70
0
0
VERTEX
8
0
10
789.668963
20
36.435600
70
0
0
VERTEX
8
0
10
789.119415
20
35.770810
70
0
0
VERTEX
8
0
10
788.704083
20
35.007684
70
0
0
VERTEX
8
0
10
788.441020
20
34.164244
70
0
0
VERTEX
8
0
10
788.348278
20
33.258511
70
0
0
SEQEND
8
0
0
POLYLINE
8
0
62
10
70
0
10
0.000000
20
0.000000
66
1
0
VERTEX
8
0
10
788.348278
20
33.258511
70
0
0
VERTEX
8
0
10
788.441020
20
32.352779
70
0
0
VERTEX
8
0
10
788.704083
20
31.509338
70
0
0
VERTEX
8
0
10
789.119415
20
30.746212
70
0
0
VERTEX
8
0
10
789.668963
20
30.081423
70
0
0
VERTEX
8
0
10
790.334675
20
29.532992
70
0
0
VERTEX
8
0
10
791.098497
20
29.118943
70
0
0
VERTEX
8
0
10
791.942378
20
28.857297
70
0
0
VERTEX
8
0
10
792.848265
20
28.766077
70
0
0
SEQEND
8
0
0
POLYLINE
8
0
62
10
70
0
10
0.000000
20
0.000000
66
1
0
VERTEX
8
0
10
792.848265
20
28.766077
70
0
0
VERTEX
8
0
10
793.754152
20
28.857297
70
0
0
VERTEX
8
0
10
794.598033
20
29.118943
70
0
0
VERTEX
8
0
10
795.361856
20
29.532992
70
0
0
VERTEX
8
0
10
796.027568
20
30.081423
70
0
0
VERTEX
8
0
10
796.577116
20
30.746212
70
0
0
VERTEX
8
0
10
796.992448
20
31.509338
70
0
0
VERTEX
8
0
10
797.255512
20
32.352779
70
0
0
VERTEX
8
0
10
797.348254
20
33.258511
70
0
0
SEQEND
8
0
0
POLYLINE
8
0
62
10
70
0
10
0.000000
20
0.000000
66
1
0
VERTEX
8
0
10
797.348254
20
259.258226
70
0
0
VERTEX
8
0
10
797.255512
20
260.163959
70
0
0
VERTEX
8
0
10
796.992448
20
261.007399
70
0
0
VERTEX
8
0
10
796.577116
20
261.770525
70
0
0
VERTEX
8
0
10
796.027568
20
262.435315
70
0
0
VERTEX
8
0
10
795.361856
20
262.983745
70
0
0
VERTEX
8
0
10
794.598033
20
263.397795
70
0
0
VERTEX
8
0
10
793.754152
20
263.659441
70
0
0
VERTEX
8
0
10
792.848265
20
263.750661
70
0
0
SEQEND
8
0
0
POLYLINE
8
0
62
10
70
0
10
0.000000
20
0.000000
66
1
0
VERTEX
8
0
10
792.848265
20
263.750661
70
0
0
VERTEX
8
0
10
791.942378
20
263.659441
70
0
0
VERTEX
8
0
10
791.098497
20
263.397795
70
0
0
VERTEX
8
0
10
790.334675
20
262.983745
70
0
0
VERTEX
8
0
10
789.668963
20
262.435315
70
0
0
VERTEX
8
0
10
789.119415
20
261.770525
70
0
0
VERTEX
8
0
10
788.704083
20
261.007399
70
0
0
VERTEX
8
0
10
788.441020
20
260.163959
70
0
0
VERTEX
8
0
10
788.348278
20
259.258226
70
0
0
SEQEND
8
0
0
POLYLINE
8
0
62
10
70
0
10
0.000000
20
0.000000
66
1
0
VERTEX
8
0
10
788.348278
20
259.258226
70
0
0
VERTEX
8
0
10
788.441020
20
258.352494
70
0
0
VERTEX
8
0
10
788.704083
20
257.509053
70
0
0
VERTEX
8
0
10
789.119415
20
256.745927
70
0
0
VERTEX
8
0
10
789.668963
20
256.081137
70
0
0
VERTEX
8
0
10
790.334675
20
255.532707
70
0
0
VERTEX
8
0
10
791.098497
20
255.118657
70
0
0
VERTEX
8
0
10
791.942378
20
254.857012
70
0
0
VERTEX
8
0
10
792.848265
20
254.765791
70
0
0
SEQEND
8
0
0
POLYLINE
8
0
62
10
70
0
10
0.000000
20
0.000000
66
1
0
VERTEX
8
0
10
792.848265
20
254.765791
70
0
0
VERTEX
8
0
10
793.754152
20
254.857012
70
0
0
VERTEX
8
0
10
794.598033
20
255.118657
70
0
0
VERTEX
8
0
10
795.361856
20
255.532707
70
0
0
VERTEX
8
0
10
796.027568
20
256.081137
70
0
0
VERTEX
8
0
10
796.577116
20
256.745927
70
0
0
VERTEX
8
0
10
796.992448
20
257.509053
70
0
0
VERTEX
8
0
10
797.255512
20
258.352494
70
0
0
VERTEX
8
0
10
797.348254
20
259.258226
70
0
0
SEQEND
8
0
0
POLYLINE
8
0
62
10
70
0
10
0.000000
20
0.000000
66
1
0
VERTEX
8
0
10
634.100776
20
344.069318
70
0
0
VERTEX
8
0
10
633.902873
20
345.040819
70
0
0
VERTEX
8
0
10
633.366775
20
345.833840
70
0
0
VERTEX
8
0
10
632.572680
20
346.368346
70
0
0
VERTEX
8
0
10
631.600783
20
346.564301
70
0
0
SEQEND
8
0
0
POLYLINE
8
0
62
10
70
0
10
0.000000
20
0.000000
66
1
0
VERTEX
8
0
10
631.600783
20
346.564301
70
0
0
VERTEX
8
0
10
630.628887
20
346.368346
70
0
0
VERTEX
8
0
10
629.834792
20
345.833840
70
0
0
VERTEX
8
0
10
629.298695
20
345.040819
70
0
0
VERTEX
8
0
10
629.100791
20
344.069318
70
0
0
SEQEND
8
0
0
POLYLINE
8
0
62
10
70
0
10
0.000000
20
0.000000
66
1
0
VERTEX
8
0
10
629.100791
20
344.069318
70
0
0
VERTEX
8
0
10
629.298695
20
343.097816
70
0
0
VERTEX
8
0
10
629.834792
20
342.304794
70
0
0
VERTEX
8
0
10
630.628887
20
341.770288
70
0
0
VERTEX
8
0
10
631.600783
20
341.574334
70
0
0
SEQEND
8
0
0
POLYLINE
8
0
62
10
70
0
10
0.000000
20
0.000000
66
1
0
VERTEX
8
0
10
631.600783
20
341.574334
70
0
0
VERTEX
8
0
10
632.572680
20
341.770288
70
0
0
VERTEX
8
0
10
633.366775
20
342.304794
70
0
0
VERTEX
8
0
10
633.902873
20
343.097816
70
0
0
VERTEX
8
0
10
634.100776
20
344.069318
70
0
0
SEQEND
8
0
0
POLYLINE
8
0
62
10
70
0
10
0.000000
20
0.000000
66
1
0
VERTEX
8
0
10
696.318952
20
33.258511
70
0
0
VERTEX
8
0
10
696.232413
20
33.910807
70
0
0
VERTEX
8
0
10
695.984015
20
34.508514
70
0
0
VERTEX
8
0
10
695.590584
20
35.022487
70
0
0
VERTEX
8
0
10
695.068949
20
35.423580
70
0
0
SEQEND
8
0
0
POLYLINE
8
0
62
10
70
0
10
0.000000
20
0.000000
66
1
0
VERTEX
8
0
10
695.068949
20
35.423580
70
0
0
VERTEX
8
0
10
694.460776
20
35.674782
70
0
0
VERTEX
8
0
10
693.818947
20
35.758516
70
0
0
VERTEX
8
0
10
693.177118
20
35.674782
70
0
0
VERTEX
8
0
10
692.568944
20
35.423580
70
0
0
SEQEND
8
0
0
POLYLINE
8
0
62
10
70
0
10
0.000000
20
0.000000
66
1
0
VERTEX
8
0
10
692.568944
20
35.423580
70
0
0
VERTEX
8
0
10
692.047309
20
35.022487
70
0
0
VERTEX
8
0
10
691.653878
20
34.508514
70
0
0
VERTEX
8
0
10
691.405480
20
33.910807
70
0
0
VERTEX
8
0
10
691.318941
20
33.258511
70
0
0
SEQEND
8
0
0
POLYLINE
8
0
62
10
70
0
10
0.000000
20
0.000000
66
1
0
VERTEX
8
0
10
691.318941
20
33.258511
70
0
0
VERTEX
8
0
10
691.405480
20
32.606216
70
0
0
VERTEX
8
0
10
691.653878
20
32.008509
70
0
0
VERTEX
8
0
10
692.047309
20
31.494536
70
0
0
VERTEX
8
0
10
692.568944
20
31.093443
70
0
0
SEQEND
8
0
0
POLYLINE
8
0
62
10
70
0
10
0.000000
20
0.000000
66
1
0
VERTEX
8
0
10
692.568944
20
31.093443
70
0
0
VERTEX
8
0
10
693.177118
20
30.842240
70
0
0
VERTEX
8
0
10
693.818947
20
30.758506
70
0
0
VERTEX
8
0
10
694.460776
20
30.842240
70
0
0
VERTEX
8
0
10
695.068949
20
31.093443
70
0
0
SEQEND
8
0
0
POLYLINE
8
0
62
10
70
0
10
0.000000
20
0.000000
66
1
0
VERTEX
8
0
10
695.068949
20
31.093443
70
0
0
VERTEX
8
0
10
695.590584
20
31.494536
70
0
0
VERTEX
8
0
10
695.984015
20
32.008509
70
0
0
VERTEX
8
0
10
696.232413
20
32.606216
70
0
0
VERTEX
8
0
10
696.318952
20
33.258511
70
0
0
SEQEND
8
0
0
POLYLINE
8
0
62
10
70
0
10
0.000000
20
0.000000
66
1
0
VERTEX
8
0
10
416.319299
20
33.258511
70
0
0
VERTEX
8
0
10
416.232756
20
33.910805
70
0
0
VERTEX
8
0
10
415.984357
20
34.508510
70
0
0
VERTEX
8
0
10
415.590927
20
35.022481
70
0
0
VERTEX
8
0
10
415.069293
20
35.423573
70
0
0
SEQEND
8
0
0
POLYLINE
8
0
62
10
70
0
10
0.000000
20
0.000000
66
1
0
VERTEX
8
0
10
415.069293
20
35.423573
70
0
0
VERTEX
8
0
10
414.461121
20
35.674775
70
0
0
VERTEX
8
0
10
413.819295
20
35.758509
70
0
0
VERTEX
8
0
10
413.177468
20
35.674775
70
0
0
VERTEX
8
0
10
412.569296
20
35.423573
70
0
0
SEQEND
8
0
0
POLYLINE
8
0
62
10
70
0
10
0.000000
20
0.000000
66
1
0
VERTEX
8
0
10
412.569296
20
35.423573
70
0
0
VERTEX
8
0
10
412.047663
20
35.022481
70
0
0
VERTEX
8
0
10
411.654234
20
34.508510
70
0
0
VERTEX
8
0
10
411.405836
20
33.910805
70
0
0
VERTEX
8
0
10
411.319298
20
33.258511
70
0
0
SEQEND
8
0
0
POLYLINE
8
0
62
10
70
0
10
0.000000
20
0.000000
66
1
0
VERTEX
8
0
10
411.319298
20
33.258511
70
0
0
VERTEX
8
0
10
411.405841
20
32.606218
70
0
0
VERTEX
8
0
10
411.654241
20
32.008513
70
0
0
VERTEX
8
0
10
412.047671
20
31.494541
70
0
0
VERTEX
8
0
10
412.569304
20
31.093450
70
0
0
SEQEND
8
0
0
POLYLINE
8
0
62
10
70
0
10
0.000000
20
0.000000
66
1
0
VERTEX
8
0
10
412.569304
20
31.093450
70
0
0
VERTEX
8
0
10
413.177476
20
30.842248
70
0
0
VERTEX
8
0
10
413.819303
20
30.758514
70
0
0
VERTEX
8
0
10
414.461130
20
30.842248
70
0
0
VERTEX
8
0
10
415.069301
20
31.093450
70
0
0
SEQEND
8
0
0
POLYLINE
8
0
62
10
70
0
10
0.000000
20
0.000000
66
1
0
VERTEX
8
0
10
415.069301
20
31.093450
70
0
0
VERTEX
8
0
10
415.590935
20
31.494541
70
0
0
VERTEX
8
0
10
415.984364
20
32.008513
70
0
0
VERTEX
8
0
10
416.232761
20
32.606218
70
0
0
VERTEX
8
0
10
416.319299
20
33.258511
70
0
0
SEQEND
8
0
0
POLYLINE
8
0
62
10
70
0
10
0.000000
20
0.000000
66
1
0
VERTEX
8
0
10
478.537476
20
188.506005
70
0
0
VERTEX
8
0
10
478.450933
20
189.158298
70
0
0
VERTEX
8
0
10
478.202533
20
189.756003
70
0
0
VERTEX
8
0
10
477.809103
20
190.269975
70
0
0
VERTEX
8
0
10
477.287470
20
190.671066
70
0
0
SEQEND
8
0
0
POLYLINE
8
0
62
10
70
0
10
0.000000
20
0.000000
66
1
0
VERTEX
8
0
10
477.287470
20
190.671066
70
0
0
VERTEX
8
0
10
476.679298
20
190.922268
70
0
0
VERTEX
8
0
10
476.037471
20
191.006002
70
0
0
VERTEX
8
0
10
475.395644
20
190.922268
70
0
0
VERTEX
8
0
10
474.787472
20
190.671066
70
0
0
SEQEND
8
0
0
POLYLINE
8
0
62
10
70
0
10
0.000000
20
0.000000
66
1
0
VERTEX
8
0
10
474.787472
20
190.671066
70
0
0
VERTEX
8
0
10
474.265839
20
190.269975
70
0
0
VERTEX
8
0
10
473.872410
20
189.756003
70
0
0
VERTEX
8
0
10
473.624012
20
189.158298
70
0
0
VERTEX
8
0
10
473.537473
20
188.506005
70
0
0
SEQEND
8
0
0
POLYLINE
8
0
62
10
70
0
10
0.000000
20
0.000000
66
1
0
VERTEX
8
0
10
473.537473
20
188.506005
70
0
0
VERTEX
8
0
10
473.624017
20
187.853711
70
0
0
VERTEX
8
0
10
473.872417
20
187.256006
70
0
0
VERTEX
8
0
10
474.265847
20
186.742035
70
0
0
VERTEX
8
0
10
474.787480
20
186.340943
70
0
0
SEQEND
8
0
0
POLYLINE
8
0
62
10
70
0
10
0.000000
20
0.000000
66
1
0
VERTEX
8
0
10
474.787480
20
186.340943
70
0
0
VERTEX
8
0
10
475.395652
20
186.089741
70
0
0
VERTEX
8
0
10
476.037479
20
186.006007
70
0
0
VERTEX
8
0
10
476.679306
20
186.089741
70
0
0
VERTEX
8
0
10
477.287478
20
186.340943
70
0
0
SEQEND
8
0
0
POLYLINE
8
0
62
10
70
0
10
0.000000
20
0.000000
66
1
0
VERTEX
8
0
10
477.287478
20
186.340943
70
0
0
VERTEX
8
0
10
477.809111
20
186.742035
70
0
0
VERTEX
8
0
10
478.202540
20
187.256006
70
0
0
VERTEX
8
0
10
478.450938
20
187.853711
70
0
0
VERTEX
8
0
10
478.537476
20
188.506005
70
0
0
SEQEND
8
0
0
POLYLINE
8
0
62
10
70
0
10
0.000000
20
0.000000
66
1
0
VERTEX
8
0
10
789.348268
20
126.287828
70
0
0
VERTEX
8
0
10
789.261730
20
126.940124
70
0
0
VERTEX
8
0
10
789.013332
20
127.537831
70
0
0
VERTEX
8
0
10
788.619901
20
128.051804
70
0
0
VERTEX
8
0
10
788.098266
20
128.452896
70
0
0
SEQEND
8
0
0
POLYLINE
8
0
62
10
70
0
10
0.000000
20
0.000000
66
1
0
VERTEX
8
0
10
788.098266
20
128.452896
70
0
0
VERTEX
8
0
10
787.490092
20
128.704100
70
0
0
VERTEX
8
0
10
786.848264
20
128.787834
70
0
0
VERTEX
8
0
10
786.206435
20
128.704100
70
0
0
VERTEX
8
0
10
785.598261
20
128.452896
70
0
0
SEQEND
8
0
0
POLYLINE
8
0
62
10
70
0
10
0.000000
20
0.000000
66
1
0
VERTEX
8
0
10
785.598261
20
128.452896
70
0
0
VERTEX
8
0
10
785.076626
20
128.051804
70
0
0
VERTEX
8
0
10
784.683196
20
127.537831
70
0
0
VERTEX
8
0
10
784.434798
20
126.940124
70
0
0
VERTEX
8
0
10
784.348259
20
126.287828
70
0
0
SEQEND
8
0
0
POLYLINE
8
0
62
10
70
0
10
0.000000
20
0.000000
66
1
0
VERTEX
8
0
10
784.348259
20
126.287828
70
0
0
VERTEX
8
0
10
784.434798
20
125.635533
70
0
0
VERTEX
8
0
10
784.683196
20
125.037826
70
0
0
VERTEX
8
0
10
785.076626
20
124.523853
70
0
0
VERTEX
8
0
10
785.598261
20
124.122761
70
0
0
SEQEND
8
0
0
POLYLINE
8
0
62
10
70
0
10
0.000000
20
0.000000
66
1
0
VERTEX
8
0
10
785.598261
20
124.122761
70
0
0
VERTEX
8
0
10
786.206435
20
123.871558
70
0
0
VERTEX
8
0
10
786.848264
20
123.787823
70
0
0
VERTEX
8
0
10
787.490092
20
123.871558
70
0
0
VERTEX
8
0
10
788.098266
20
124.122761
70
0
0
SEQEND
8
0
0
POLYLINE
8
0
62
10
70
0
10
0.000000
20
0.000000
66
1
0
VERTEX
8
0
10
788.098266
20
124.122761
70
0
0
VERTEX
8
0
10
788.619901
20
124.523853
70
0
0
VERTEX
8
0
10
789.013332
20
125.037826
70
0
0
VERTEX
8
0
10
789.261730
20
125.635533
70
0
0
VERTEX
8
0
10
789.348268
20
126.287828
70
0
0
SEQEND
8
0
0
POLYLINE
8
0
62
10
70
0
10
0.000000
20
0.000000
66
1
0
VERTEX
8
0
10
797.348254
20
485.257955
70
0
0
VERTEX
8
0
10
797.255512
20
486.163687
70
0
0
VERTEX
8
0
10
796.992448
20
487.007128
70
0
0
VERTEX
8
0
10
796.577116
20
487.770254
70
0
0
VERTEX
8
0
10
796.027568
20
488.435043
70
0
0
VERTEX
8
0
10
795.361856
20
488.983474
70
0
0
VERTEX
8
0
10
794.598033
20
489.397523
70
0
0
VERTEX
8
0
10
793.754152
20
489.659169
70
0
0
VERTEX
8
0
10
792.848265
20
489.750389
70
0
0
SEQEND
8
0
0
POLYLINE
8
0
62
10
70
0
10
0.000000
20
0.000000
66
1
0
VERTEX
8
0
10
792.848265
20
489.750389
70
0
0
VERTEX
8
0
10
791.942378
20
489.659169
70
0
0
VERTEX
8
0
10
791.098497
20
489.397523
70
0
0
VERTEX
8
0
10
790.334675
20
488.983474
70
0
0
VERTEX
8
0
10
789.668963
20
488.435043
70
0
0
VERTEX
8
0
10
789.119415
20
487.770254
70
0
0
VERTEX
8
0
10
788.704083
20
487.007128
70
0
0
VERTEX
8
0
10
788.441020
20
486.163687
70
0
0
VERTEX
8
0
10
788.348278
20
485.257955
70
0
0
SEQEND
8
0
0
POLYLINE
8
0
62
10
70
0
10
0.000000
20
0.000000
66
1
0
VERTEX
8
0
10
788.348278
20
485.257955
70
0
0
VERTEX
8
0
10
788.441020
20
484.352222
70
0
0
VERTEX
8
0
10
788.704083
20
483.508781
70
0
0
VERTEX
8
0
10
789.119415
20
482.745655
70
0
0
VERTEX
8
0
10
789.668963
20
482.080866
70
0
0
VERTEX
8
0
10
790.334675
20
481.532435
70
0
0
VERTEX
8
0
10
791.098497
20
481.118386
70
0
0
VERTEX
8
0
10
791.942378
20
480.856740
70
0
0
VERTEX
8
0
10
792.848265
20
480.765519
70
0
0
SEQEND
8
0
0
POLYLINE
8
0
62
10
70
0
10
0.000000
20
0.000000
66
1
0
VERTEX
8
0
10
792.848265
20
480.765519
70
0
0
VERTEX
8
0
10
793.754152
20
480.856740
70
0
0
VERTEX
8
0
10
794.598033
20
481.118386
70
0
0
VERTEX
8
0
10
795.361856
20
481.532435
70
0
0
VERTEX
8
0
10
796.027568
20
482.080866
70
0
0
VERTEX
8
0
10
796.577116
20
482.745655
70
0
0
VERTEX
8
0
10
796.992448
20
483.508781
70
0
0
VERTEX
8
0
10
797.255512
20
484.352222
70
0
0
VERTEX
8
0
10
797.348254
20
485.257955
70
0
0
SEQEND
8
0
0
POLYLINE
8
0
62
10
70
0
10
0.000000
20
0.000000
66
1
0
VERTEX
8
0
10
789.348268
20
406.287493
70
0
0
VERTEX
8
0
10
789.261730
20
406.939789
70
0
0
VERTEX
8
0
10
789.013332
20
407.537496
70
0
0
VERTEX
8
0
10
788.619901
20
408.051469
70
0
0
VERTEX
8
0
10
788.098266
20
408.452562
70
0
0
SEQEND
8
0
0
POLYLINE
8
0
62
10
70
0
10
0.000000
20
0.000000
66
1
0
VERTEX
8
0
10
788.098266
20
408.452562
70
0
0
VERTEX
8
0
10
787.490092
20
408.703764
70
0
0
VERTEX
8
0
10
786.848264
20
408.787498
70
0
0
VERTEX
8
0
10
786.206435
20
408.703764
70
0
0
VERTEX
8
0
10
785.598261
20
408.452562
70
0
0
SEQEND
8
0
0
POLYLINE
8
0
62
10
70
0
10
0.000000
20
0.000000
66
1
0
VERTEX
8
0
10
785.598261
20
408.452562
70
0
0
VERTEX
8
0
10
785.076626
20
408.051469
70
0
0
VERTEX
8
0
10
784.683196
20
407.537496
70
0
0
VERTEX
8
0
10
784.434798
20
406.939789
70
0
0
VERTEX
8
0
10
784.348259
20
406.287493
70
0
0
SEQEND
8
0
0
POLYLINE
8
0
62
10
70
0
10
0.000000
20
0.000000
66
1
0
VERTEX
8
0
10
784.348259
20
406.287493
70
0
0
VERTEX
8
0
10
784.434798
20
405.635198
70
0
0
VERTEX
8
0
10
784.683196
20
405.037491
70
0
0
VERTEX
8
0
10
785.076626
20
404.523518
70
0
0
VERTEX
8
0
10
785.598261
20
404.122425
70
0
0
SEQEND
8
0
0
POLYLINE
8
0
62
10
70
0
10
0.000000
20
0.000000
66
1
0
VERTEX
8
0
10
785.598261
20
404.122425
70
0
0
VERTEX
8
0
10
786.206435
20
403.871222
70
0
0
VERTEX
8
0
10
786.848264
20
403.787488
70
0
0
VERTEX
8
0
10
787.490092
20
403.871222
70
0
0
VERTEX
8
0
10
788.098266
20
404.122425
70
0
0
SEQEND
8
0
0
POLYLINE
8
0
62
10
70
0
10
0.000000
20
0.000000
66
1
0
VERTEX
8
0
10
788.098266
20
404.122425
70
0
0
VERTEX
8
0
10
788.619901
20
404.523518
70
0
0
VERTEX
8
0
10
789.013332
20
405.037491
70
0
0
VERTEX
8
0
10
789.261730
20
405.635198
70
0
0
VERTEX
8
0
10
789.348268
20
406.287493
70
0
0
SEQEND
8
0
0
POLYLINE
8
0
62
10
70
0
10
0.000000
20
0.000000
66
1
0
VERTEX
8
0
10
237.348950
20
26.258518
70
0
0
VERTEX
8
0
10
237.193181
20
27.432646
70
0
0
VERTEX
8
0
10
236.746065
20
28.508515
70
0
0
VERTEX
8
0
10
236.037893
20
29.433664
70
0
0
VERTEX
8
0
10
235.098953
20
30.155628
70
0
0
SEQEND
8
0
0
POLYLINE
8
0
62
10
70
0
10
0.000000
20
0.000000
66
1
0
VERTEX
8
0
10
235.098953
20
30.155628
70
0
0
VERTEX
8
0
10
234.004243
20
30.607792
70
0
0
VERTEX
8
0
10
232.848956
20
30.758513
70
0
0
VERTEX
8
0
10
231.693668
20
30.607792
70
0
0
VERTEX
8
0
10
230.598959
20
30.155628
70
0
0
SEQEND
8
0
0
POLYLINE
8
0
62
10
70
0
10
0.000000
20
0.000000
66
1
0
VERTEX
8
0
10
230.598959
20
30.155628
70
0
0
VERTEX
8
0
10
229.660018
20
29.433664
70
0
0
VERTEX
8
0
10
228.951846
20
28.508515
70
0
0
VERTEX
8
0
10
228.504730
20
27.432646
70
0
0
VERTEX
8
0
10
228.348960
20
26.258518
70
0
0
SEQEND
8
0
0
POLYLINE
8
0
62
10
70
0
10
0.000000
20
0.000000
66
1
0
VERTEX
8
0
10
228.348960
20
26.258518
70
0
0
VERTEX
8
0
10
228.504730
20
25.084390
70
0
0
VERTEX
8
0
10
228.951846
20
24.008521
70
0
0
VERTEX
8
0
10
229.660018
20
23.083373
70
0
0
VERTEX
8
0
10
230.598959
20
22.361408
70
0
0
SEQEND
8
0
0
POLYLINE
8
0
62
10
70
0
10
0.000000
20
0.000000
66
1
0
VERTEX
8
0
10
230.598959
20
22.361408
70
0
0
VERTEX
8
0
10
231.693668
20
21.909245
70
0
0
VERTEX
8
0
10
232.848956
20
21.758523
70
0
0
VERTEX
8
0
10
234.004243
20
21.909245
70
0
0
VERTEX
8
0
10
235.098953
20
22.361408
70
0
0
SEQEND
8
0
0
POLYLINE
8
0
62
10
70
0
10
0.000000
20
0.000000
66
1
0
VERTEX
8
0
10
235.098953
20
22.361408
70
0
0
VERTEX
8
0
10
236.037893
20
23.083373
70
0
0
VERTEX
8
0
10
236.746065
20
24.008521
70
0
0
VERTEX
8
0
10
237.193181
20
25.084390
70
0
0
VERTEX
8
0
10
237.348950
20
26.258518
70
0
0
SEQEND
8
0
0
POLYLINE
8
0
62
10
70
0
10
0.000000
20
0.000000
66
1
0
VERTEX
8
0
10
237.348950
20
192.258294
70
0
0
VERTEX
8
0
10
237.193181
20
193.432422
70
0
0
VERTEX
8
0
10
236.746065
20
194.508292
70
0
0
VERTEX
8
0
10
236.037893
20
195.433440
70
0
0
VERTEX
8
0
10
235.098953
20
196.155404
70
0
0
SEQEND
8
0
0
POLYLINE
8
0
62
10
70
0
10
0.000000
20
0.000000
66
1
0
VERTEX
8
0
10
235.098953
20
196.155404
70
0
0
VERTEX
8
0
10
234.004243
20
196.607568
70
0
0
VERTEX
8
0
10
232.848956
20
196.758289
70
0
0
VERTEX
8
0
10
231.693668
20
196.607568
70
0
0
VERTEX
8
0
10
230.598959
20
196.155404
70
0
0
SEQEND
8
0
0
POLYLINE
8
0
62
10
70
0
10
0.000000
20
0.000000
66
1
0
VERTEX
8
0
10
230.598959
20
196.155404
70
0
0
VERTEX
8
0
10
229.660018
20
195.433440
70
0
0
VERTEX
8
0
10
228.951846
20
194.508292
70
0
0
VERTEX
8
0
10
228.504730
20
193.432422
70
0
0
VERTEX
8
0
10
228.348960
20
192.258294
70
0
0
SEQEND
8
0
0
POLYLINE
8
0
62
10
70
0
10
0.000000
20
0.000000
66
1
0
VERTEX
8
0
10
228.348960
20
192.258294
70
0
0
VERTEX
8
0
10
228.504730
20
191.084166
70
0
0
VERTEX
8
0
10
228.951846
20
190.008297
70
0
0
VERTEX
8
0
10
229.660018
20
189.083149
70
0
0
VERTEX
8
0
10
230.598959
20
188.361185
70
0
0
SEQEND
8
0
0
POLYLINE
8
0
62
10
70
0
10
0.000000
20
0.000000
66
1
0
VERTEX
8
0
10
230.598959
20
188.361185
70
0
0
VERTEX
8
0
10
231.693668
20
187.909021
70
0
0
VERTEX
8
0
10
232.848956
20
187.758300
70
0
0
VERTEX
8
0
10
234.004243
20
187.909021
70
0
0
VERTEX
8
0
10
235.098953
20
188.361185
70
0
0
SEQEND
8
0
0
POLYLINE
8
0
62
10
70
0
10
0.000000
20
0.000000
66
1
0
VERTEX
8
0
10
235.098953
20
188.361185
70
0
0
VERTEX
8
0
10
236.037893
20
189.083149
70
0
0
VERTEX
8
0
10
236.746065
20
190.008297
70
0
0
VERTEX
8
0
10
237.193181
20
191.084166
70
0
0
VERTEX
8
0
10
237.348950
20
192.258294
70
0
0
SEQEND
8
0
0
POLYLINE
8
0
62
10
70
0
10
0.000000
20
0.000000
66
1
0
VERTEX
8
0
10
243.348941
20
491.257929
70
0
0
VERTEX
8
0
10
243.256979
20
492.164356
70
0
0
VERTEX
8
0
10
242.994421
20
493.008539
70
0
0
VERTEX
8
0
10
242.579347
20
493.772413
70
0
0
VERTEX
8
0
10
242.029833
20
494.437911
70
0
0
VERTEX
8
0
10
241.363958
20
494.986968
70
0
0
VERTEX
8
0
10
240.599801
20
495.401519
70
0
0
VERTEX
8
0
10
239.755438
20
495.663497
70
0
0
VERTEX
8
0
10
238.848948
20
495.754838
70
0
0
SEQEND
8
0
0
POLYLINE
8
0
62
10
70
0
10
0.000000
20
0.000000
66
1
0
VERTEX
8
0
10
238.848948
20
495.754838
70
0
0
VERTEX
8
0
10
237.942458
20
495.663497
70
0
0
VERTEX
8
0
10
237.098095
20
495.401519
70
0
0
VERTEX
8
0
10
236.333937
20
494.986968
70
0
0
VERTEX
8
0
10
235.668063
20
494.437911
70
0
0
VERTEX
8
0
10
235.118549
20
493.772413
70
0
0
VERTEX
8
0
10
234.703474
20
493.008539
70
0
0
VERTEX
8
0
10
234.440917
20
492.164356
70
0
0
VERTEX
8
0
10
234.348955
20
491.257929
70
0
0
SEQEND
8
0
0
POLYLINE
8
0
62
10
70
0
10
0.000000
20
0.000000
66
1
0
VERTEX
8
0
10
234.348955
20
491.257929
70
0
0
VERTEX
8
0
10
234.440917
20
490.351502
70
0
0
VERTEX
8
0
10
234.703474
20
489.507320
70
0
0
VERTEX
8
0
10
235.118549
20
488.743447
70
0
0
VERTEX
8
0
10
235.668063
20
488.077949
70
0
0
VERTEX
8
0
10
236.333937
20
487.528892
70
0
0
VERTEX
8
0
10
237.098095
20
487.114341
70
0
0
VERTEX
8
0
10
237.942458
20
486.852363
70
0
0
VERTEX
8
0
10
238.848948
20
486.761022
70
0
0
SEQEND
8
0
0
POLYLINE
8
0
62
10
70
0
10
0.000000
20
0.000000
66
1
0
VERTEX
8
0
10
238.848948
20
486.761022
70
0
0
VERTEX
8
0
10
239.755438
20
486.852363
70
0
0
VERTEX
8
0
10
240.599801
20
487.114341
70
0
0
VERTEX
8
0
10
241.363958
20
487.528892
70
0
0
VERTEX
8
0
10
242.029833
20
488.077949
70
0
0
VERTEX
8
0
10
242.579347
20
488.743447
70
0
0
VERTEX
8
0
10
242.994421
20
489.507320
70
0
0
VERTEX
8
0
10
243.256979
20
490.351502
70
0
0
VERTEX
8
0
10
243.348941
20
491.257929
70
0
0
SEQEND
8
0
0
POLYLINE
8
0
62
10
70
0
10
0.000000
20
0.000000
66
1
0
VERTEX
8
0
10
469.348667
20
491.257929
70
0
0
VERTEX
8
0
10
469.192894
20
492.432058
70
0
0
VERTEX
8
0
10
468.745776
20
493.507927
70
0
0
VERTEX
8
0
10
468.037603
20
494.433075
70
0
0
VERTEX
8
0
10
467.098663
20
495.155039
70
0
0
SEQEND
8
0
0
POLYLINE
8
0
62
10
70
0
10
0.000000
20
0.000000
66
1
0
VERTEX
8
0
10
467.098663
20
495.155039
70
0
0
VERTEX
8
0
10
466.003953
20
495.607203
70
0
0
VERTEX
8
0
10
464.848665
20
495.757925
70
0
0
VERTEX
8
0
10
463.693378
20
495.607203
70
0
0
VERTEX
8
0
10
462.598668
20
495.155039
70
0
0
SEQEND
8
0
0
POLYLINE
8
0
62
10
70
0
10
0.000000
20
0.000000
66
1
0
VERTEX
8
0
10
462.598668
20
495.155039
70
0
0
VERTEX
8
0
10
461.659728
20
494.433075
70
0
0
VERTEX
8
0
10
460.951556
20
493.507927
70
0
0
VERTEX
8
0
10
460.504440
20
492.432058
70
0
0
VERTEX
8
0
10
460.348671
20
491.257929
70
0
0
SEQEND
8
0
0
POLYLINE
8
0
62
10
70
0
10
0.000000
20
0.000000
66
1
0
VERTEX
8
0
10
460.348671
20
491.257929
70
0
0
VERTEX
8
0
10
460.504444
20
490.083801
70
0
0
VERTEX
8
0
10
460.951562
20
489.007932
70
0
0
VERTEX
8
0
10
461.659735
20
488.082784
70
0
0
VERTEX
8
0
10
462.598675
20
487.360820
70
0
0
SEQEND
8
0
0
POLYLINE
8
0
62
10
70
0
10
0.000000
20
0.000000
66
1
0
VERTEX
8
0
10
462.598675
20
487.360820
70
0
0
VERTEX
8
0
10
463.693385
20
486.908656
70
0
0
VERTEX
8
0
10
464.848672
20
486.757935
70
0
0
VERTEX
8
0
10
466.003960
20
486.908656
70
0
0
VERTEX
8
0
10
467.098669
20
487.360820
70
0
0
SEQEND
8
0
0
POLYLINE
8
0
62
10
70
0
10
0.000000
20
0.000000
66
1
0
VERTEX
8
0
10
467.098669
20
487.360820
70
0
0
VERTEX
8
0
10
468.037610
20
488.082784
70
0
0
VERTEX
8
0
10
468.745782
20
489.007932
70
0
0
VERTEX
8
0
10
469.192897
20
490.083801
70
0
0
VERTEX
8
0
10
469.348667
20
491.257929
70
0
0
SEQEND
8
0
0
POLYLINE
8
0
62
10
70
0
10
0.000000
20
0.000000
66
1
0
VERTEX
8
0
10
695.348382
20
491.257929
70
0
0
VERTEX
8
0
10
695.192612
20
492.432059
70
0
0
VERTEX
8
0
10
694.745496
20
493.507930
70
0
0
VERTEX
8
0
10
694.037322
20
494.433080
70
0
0
VERTEX
8
0
10
693.098381
20
495.155045
70
0
0
SEQEND
8
0
0
POLYLINE
8
0
62
10
70
0
10
0.000000
20
0.000000
66
1
0
VERTEX
8
0
10
693.098381
20
495.155045
70
0
0
VERTEX
8
0
10
692.003670
20
495.607210
70
0
0
VERTEX
8
0
10
690.848380
20
495.757931
70
0
0
VERTEX
8
0
10
689.693091
20
495.607210
70
0
0
VERTEX
8
0
10
688.598379
20
495.155045
70
0
0
SEQEND
8
0
0
POLYLINE
8
0
62
10
70
0
10
0.000000
20
0.000000
66
1
0
VERTEX
8
0
10
688.598379
20
495.155045
70
0
0
VERTEX
8
0
10
687.659438
20
494.433080
70
0
0
VERTEX
8
0
10
686.951265
20
493.507930
70
0
0
VERTEX
8
0
10
686.504149
20
492.432059
70
0
0
VERTEX
8
0
10
686.348379
20
491.257929
70
0
0
SEQEND
8
0
0
POLYLINE
8
0
62
10
70
0
10
0.000000
20
0.000000
66
1
0
VERTEX
8
0
10
686.348379
20
491.257929
70
0
0
VERTEX
8
0
10
686.504149
20
490.083800
70
0
0
VERTEX
8
0
10
686.951265
20
489.007929
70
0
0
VERTEX
8
0
10
687.659438
20
488.082780
70
0
0
VERTEX
8
0
10
688.598379
20
487.360814
70
0
0
SEQEND
8
0
0
POLYLINE
8
0
62
10
70
0
10
0.000000
20
0.000000
66
1
0
VERTEX
8
0
10
688.598379
20
487.360814
70
0
0
VERTEX
8
0
10
689.693091
20
486.908650
70
0
0
VERTEX
8
0
10
690.848380
20
486.757928
70
0
0
VERTEX
8
0
10
692.003670
20
486.908650
70
0
0
VERTEX
8
0
10
693.098381
20
487.360814
70
0
0
SEQEND
8
0
0
POLYLINE
8
0
62
10
70
0
10
0.000000
20
0.000000
66
1
0
VERTEX
8
0
10
693.098381
20
487.360814
70
0
0
VERTEX
8
0
10
694.037322
20
488.082780
70
0
0
VERTEX
8
0
10
694.745496
20
489.007929
70
0
0
VERTEX
8
0
10
695.192612
20
490.083800
70
0
0
VERTEX
8
0
10
695.348382
20
491.257929
70
0
0
SEQEND
8
0
0
POLYLINE
8
0
62
10
70
0
10
0.000000
20
0.000000
66
1
0
VERTEX
8
0
10
552.159735
20
330.010434
70
0
0
VERTEX
8
0
10
551.961795
20
330.981894
70
0
0
VERTEX
8
0
10
551.425689
20
331.774874
70
0
0
VERTEX
8
0
10
550.631608
20
332.309347
70
0
0
VERTEX
8
0
10
549.659744
20
332.505288
70
0
0
SEQEND
8
0
0
POLYLINE
8
0
62
10
70
0
10
0.000000
20
0.000000
66
1
0
VERTEX
8
0
10
549.659744
20
332.505288
70
0
0
VERTEX
8
0
10
548.687879
20
332.309347
70
0
0
VERTEX
8
0
10
547.893798
20
331.774874
70
0
0
VERTEX
8
0
10
547.357692
20
330.981894
70
0
0
VERTEX
8
0
10
547.159752
20
330.010434
70
0
0
SEQEND
8
0
0
POLYLINE
8
0
62
10
70
0
10
0.000000
20
0.000000
66
1
0
VERTEX
8
0
10
547.159752
20
330.010434
70
0
0
VERTEX
8
0
10
547.357692
20
329.038975
70
0
0
VERTEX
8
0
10
547.893798
20
328.245996
70
0
0
VERTEX
8
0
10
548.687879
20
327.711523
70
0
0
VERTEX
8
0
10
549.659744
20
327.515582
70
0
0
SEQEND
8
0
0
POLYLINE
8
0
62
10
70
0
10
0.000000
20
0.000000
66
1
0
VERTEX
8
0
10
549.659744
20
327.515582
70
0
0
VERTEX
8
0
10
550.631608
20
327.711523
70
0
0
VERTEX
8
0
10
551.425689
20
328.245996
70
0
0
VERTEX
8
0
10
551.961795
20
329.038975
70
0
0
VERTEX
8
0
10
552.159735
20
330.010434
70
0
0
SEQEND
8
0
0
POLYLINE
8
0
62
10
70
0
10
0.000000
20
0.000000
66
1
0
VERTEX
8
0
10
241.348945
20
392.228637
70
0
0
VERTEX
8
0
10
241.262406
20
392.880930
70
0
0
VERTEX
8
0
10
241.014009
20
393.478636
70
0
0
VERTEX
8
0
10
240.620580
20
393.992607
70
0
0
VERTEX
8
0
10
240.098947
20
394.393698
70
0
0
SEQEND
8
0
0
POLYLINE
8
0
62
10
70
0
10
0.000000
20
0.000000
66
1
0
VERTEX
8
0
10
240.098947
20
394.393698
70
0
0
VERTEX
8
0
10
239.490775
20
394.644900
70
0
0
VERTEX
8
0
10
238.848948
20
394.728635
70
0
0
VERTEX
8
0
10
238.207122
20
394.644900
70
0
0
VERTEX
8
0
10
237.598950
20
394.393698
70
0
0
SEQEND
8
0
0
POLYLINE
8
0
62
10
70
0
10
0.000000
20
0.000000
66
1
0
VERTEX
8
0
10
237.598950
20
394.393698
70
0
0
VERTEX
8
0
10
237.077316
20
393.992607
70
0
0
VERTEX
8
0
10
236.683887
20
393.478636
70
0
0
VERTEX
8
0
10
236.435490
20
392.880930
70
0
0
VERTEX
8
0
10
236.348951
20
392.228637
70
0
0
SEQEND
8
0
0
POLYLINE
8
0
62
10
70
0
10
0.000000
20
0.000000
66
1
0
VERTEX
8
0
10
236.348951
20
392.228637
70
0
0
VERTEX
8
0
10
236.435490
20
391.576344
70
0
0
VERTEX
8
0
10
236.683887
20
390.978638
70
0
0
VERTEX
8
0
10
237.077316
20
390.464667
70
0
0
VERTEX
8
0
10
237.598950
20
390.063576
70
0
0
SEQEND
8
0
0
POLYLINE
8
0
62
10
70
0
10
0.000000
20
0.000000
66
1
0
VERTEX
8
0
10
237.598950
20
390.063576
70
0
0
VERTEX
8
0
10
238.207122
20
389.812374
70
0
0
VERTEX
8
0
10
238.848948
20
389.728640
70
0
0
VERTEX
8
0
10
239.490775
20
389.812374
70
0
0
VERTEX
8
0
10
240.098947
20
390.063576
70
0
0
SEQEND
8
0
0
POLYLINE
8
0
62
10
70
0
10
0.000000
20
0.000000
66
1
0
VERTEX
8
0
10
240.098947
20
390.063576
70
0
0
VERTEX
8
0
10
240.620580
20
390.464667
70
0
0
VERTEX
8
0
10
241.014009
20
390.978638
70
0
0
VERTEX
8
0
10
241.262406
20
391.576344
70
0
0
VERTEX
8
0
10
241.348945
20
392.228637
70
0
0
SEQEND
8
0
0
POLYLINE
8
0
62
10
70
0
10
0.000000
20
0.000000
66
1
0
VERTEX
8
0
10
241.348945
20
112.228972
70
0
0
VERTEX
8
0
10
241.262406
20
112.881266
70
0
0
VERTEX
8
0
10
241.014009
20
113.478971
70
0
0
VERTEX
8
0
10
240.620580
20
113.992942
70
0
0
VERTEX
8
0
10
240.098947
20
114.394033
70
0
0
SEQEND
8
0
0
POLYLINE
8
0
62
10
70
0
10
0.000000
20
0.000000
66
1
0
VERTEX
8
0
10
240.098947
20
114.394033
70
0
0
VERTEX
8
0
10
239.490775
20
114.645235
70
0
0
VERTEX
8
0
10
238.848948
20
114.728969
70
0
0
VERTEX
8
0
10
238.207122
20
114.645235
70
0
0
VERTEX
8
0
10
237.598950
20
114.394033
70
0
0
SEQEND
8
0
0
POLYLINE
8
0
62
10
70
0
10
0.000000
20
0.000000
66
1
0
VERTEX
8
0
10
237.598950
20
114.394033
70
0
0
VERTEX
8
0
10
237.077316
20
113.992942
70
0
0
VERTEX
8
0
10
236.683887
20
113.478971
70
0
0
VERTEX
8
0
10
236.435490
20
112.881266
70
0
0
VERTEX
8
0
10
236.348951
20
112.228972
70
0
0
SEQEND
8
0
0
POLYLINE
8
0
62
10
70
0
10
0.000000
20
0.000000
66
1
0
VERTEX
8
0
10
236.348951
20
112.228972
70
0
0
VERTEX
8
0
10
236.435490
20
111.576679
70
0
0
VERTEX
8
0
10
236.683887
20
110.978974
70
0
0
VERTEX
8
0
10
237.077316
20
110.465003
70
0
0
VERTEX
8
0
10
237.598950
20
110.063912
70
0
0
SEQEND
8
0
0
POLYLINE
8
0
62
10
70
0
10
0.000000
20
0.000000
66
1
0
VERTEX
8
0
10
237.598950
20
110.063912
70
0
0
VERTEX
8
0
10
238.207122
20
109.812710
70
0
0
VERTEX
8
0
10
238.848948
20
109.728976
70
0
0
VERTEX
8
0
10
239.490775
20
109.812710
70
0
0
VERTEX
8
0
10
240.098947
20
110.063912
70
0
0
SEQEND
8
0
0
POLYLINE
8
0
62
10
70
0
10
0.000000
20
0.000000
66
1
0
VERTEX
8
0
10
240.098947
20
110.063912
70
0
0
VERTEX
8
0
10
240.620580
20
110.465003
70
0
0
VERTEX
8
0
10
241.014009
20
110.978974
70
0
0
VERTEX
8
0
10
241.262406
20
111.576679
70
0
0
VERTEX
8
0
10
241.348945
20
112.228972
70
0
0
SEQEND
8
0
0
POLYLINE
8
0
62
10
70
0
10
0.000000
20
0.000000
66
1
0
VERTEX
8
0
10
334.378260
20
485.257955
70
0
0
VERTEX
8
0
10
334.180319
20
486.229414
70
0
0
VERTEX
8
0
10
333.644213
20
487.022393
70
0
0
VERTEX
8
0
10
332.850133
20
487.556866
70
0
0
VERTEX
8
0
10
331.878268
20
487.752808
70
0
0
SEQEND
8
0
0
POLYLINE
8
0
62
10
70
0
10
0.000000
20
0.000000
66
1
0
VERTEX
8
0
10
331.878268
20
487.752808
70
0
0
VERTEX
8
0
10
330.906403
20
487.556866
70
0
0
VERTEX
8
0
10
330.112323
20
487.022393
70
0
0
VERTEX
8
0
10
329.576217
20
486.229414
70
0
0
VERTEX
8
0
10
329.378276
20
485.257955
70
0
0
SEQEND
8
0
0
POLYLINE
8
0
62
10
70
0
10
0.000000
20
0.000000
66
1
0
VERTEX
8
0
10
329.378276
20
485.257955
70
0
0
VERTEX
8
0
10
329.576217
20
484.286495
70
0
0
VERTEX
8
0
10
330.112323
20
483.493516
70
0
0
VERTEX
8
0
10
330.906403
20
482.959042
70
0
0
VERTEX
8
0
10
331.878268
20
482.763101
70
0
0
SEQEND
8
0
0
POLYLINE
8
0
62
10
70
0
10
0.000000
20
0.000000
66
1
0
VERTEX
8
0
10
331.878268
20
482.763101
70
0
0
VERTEX
8
0
10
332.850133
20
482.959042
70
0
0
VERTEX
8
0
10
333.644213
20
483.493516
70
0
0
VERTEX
8
0
10
334.180319
20
484.286495
70
0
0
VERTEX
8
0
10
334.378260
20
485.257955
70
0
0
SEQEND
8
0
0
POLYLINE
8
0
62
10
70
0
10
0.000000
20
0.000000
66
1
0
VERTEX
8
0
10
614.377938
20
485.257955
70
0
0
VERTEX
8
0
10
614.291395
20
485.910248
70
0
0
VERTEX
8
0
10
614.042995
20
486.507953
70
0
0
VERTEX
8
0
10
613.649565
20
487.021924
70
0
0
VERTEX
8
0
10
613.127932
20
487.423015
70
0
0
SEQEND
8
0
0
POLYLINE
8
0
62
10
70
0
10
0.000000
20
0.000000
66
1
0
VERTEX
8
0
10
613.127932
20
487.423015
70
0
0
VERTEX
8
0
10
612.519759
20
487.674217
70
0
0
VERTEX
8
0
10
611.877933
20
487.757951
70
0
0
VERTEX
8
0
10
611.236106
20
487.674217
70
0
0
VERTEX
8
0
10
610.627935
20
487.423015
70
0
0
SEQEND
8
0
0
POLYLINE
8
0
62
10
70
0
10
0.000000
20
0.000000
66
1
0
VERTEX
8
0
10
610.627935
20
487.423015
70
0
0
VERTEX
8
0
10
610.106301
20
487.021924
70
0
0
VERTEX
8
0
10
609.712872
20
486.507953
70
0
0
VERTEX
8
0
10
609.464474
20
485.910248
70
0
0
VERTEX
8
0
10
609.377935
20
485.257955
70
0
0
SEQEND
8
0
0
POLYLINE
8
0
62
10
70
0
10
0.000000
20
0.000000
66
1
0
VERTEX
8
0
10
609.377935
20
485.257955
70
0
0
VERTEX
8
0
10
609.464479
20
484.605661
70
0
0
VERTEX
8
0
10
609.712879
20
484.007956
70
0
0
VERTEX
8
0
10
610.106309
20
483.493985
70
0
0
VERTEX
8
0
10
610.627942
20
483.092894
70
0
0
SEQEND
8
0
0
POLYLINE
8
0
62
10
70
0
10
0.000000
20
0.000000
66
1
0
VERTEX
8
0
10
610.627942
20
483.092894
70
0
0
VERTEX
8
0
10
611.236114
20
482.841692
70
0
0
VERTEX
8
0
10
611.877941
20
482.757958
70
0
0
VERTEX
8
0
10
612.519767
20
482.841692
70
0
0
VERTEX
8
0
10
613.127939
20
483.092894
70
0
0
SEQEND
8
0
0
POLYLINE
8
0
62
10
70
0
10
0.000000
20
0.000000
66
1
0
VERTEX
8
0
10
613.127939
20
483.092894
70
0
0
VERTEX
8
0
10
613.649573
20
483.493985
70
0
0
VERTEX
8
0
10
614.043002
20
484.007956
70
0
0
VERTEX
8
0
10
614.291400
20
484.605661
70
0
0
VERTEX
8
0
10
614.377938
20
485.257955
70
0
0
SEQEND
8
0
0
POLYLINE
8
0
62
10
70
0
10
0.000000
20
0.000000
66
1
0
VERTEX
8
0
10
396.596436
20
174.447148
70
0
0
VERTEX
8
0
10
396.398533
20
175.418650
70
0
0
VERTEX
8
0
10
395.862435
20
176.211671
70
0
0
VERTEX
8
0
10
395.068340
20
176.746177
70
0
0
VERTEX
8
0
10
394.096444
20
176.942131
70
0
0
SEQEND
8
0
0
POLYLINE
8
0
62
10
70
0
10
0.000000
20
0.000000
66
1
0
VERTEX
8
0
10
394.096444
20
176.942131
70
0
0
VERTEX
8
0
10
393.124548
20
176.746177
70
0
0
VERTEX
8
0
10
392.330452
20
176.211671
70
0
0
VERTEX
8
0
10
391.794355
20
175.418650
70
0
0
VERTEX
8
0
10
391.596452
20
174.447148
70
0
0
SEQEND
8
0
0
POLYLINE
8
0
62
10
70
0
10
0.000000
20
0.000000
66
1
0
VERTEX
8
0
10
391.596452
20
174.447148
70
0
0
VERTEX
8
0
10
391.794355
20
173.475647
70
0
0
VERTEX
8
0
10
392.330452
20
172.682625
70
0
0
VERTEX
8
0
10
393.124548
20
172.148119
70
0
0
VERTEX
8
0
10
394.096444
20
171.952164
70
0
0
SEQEND
8
0
0
POLYLINE
8
0
62
10
70
0
10
0.000000
20
0.000000
66
1
0
VERTEX
8
0
10
394.096444
20
171.952164
70
0
0
VERTEX
8
0
10
395.068340
20
172.148119
70
0
0
VERTEX
8
0
10
395.862435
20
172.682625
70
0
0
VERTEX
8
0
10
396.398533
20
173.475647
70
0
0
VERTEX
8
0
10
396.596436
20
174.447148
70
0
0
SEQEND
8
0
0
POLYLINE
8
0
62
50
70
0
10
0.000000
20
0.000000
66
1
0
VERTEX
8
0
10
810.847966
20
9.258583
70
0
0
VERTEX
8
0
10
10.849499
20
9.258583
70
0
0
SEQEND
8
0
0
POLYLINE
8
0
62
50
70
0
10
0.000000
20
0.000000
66
1
0
VERTEX
8
0
10
10.849499
20
509.258835
70
0
0
VERTEX
8
0
10
10.849499
20
9.258583
70
0
0
SEQEND
8
0
0
POLYLINE
8
0
62
50
70
0
10
0.000000
20
0.000000
66
1
0
VERTEX
8
0
10
810.847966
20
509.258835
70
0
0
VERTEX
8
0
10
10.849499
20
509.258835
70
0
0
SEQEND
8
0
0
POLYLINE
8
0
62
170
70
0
10
0.000000
20
0.000000
66
1
0
VERTEX
8
0
10
214.849083
20
509.258835
70
0
0
VERTEX
8
0
10
214.849083
20
9.258583
70
0
0
SEQEND
8
0
0
POLYLINE
8
0
62
170
70
0
10
0.000000
20
0.000000
66
1
0
VERTEX
8
0
10
14.849994
20
409.257041
70
0
0
VERTEX
8
0
10
214.849083
20
409.257041
70
0
0
SEQEND
8
0
0
POLYLINE
8
0
62
170
70
0
10
0.000000
20
0.000000
66
1
0
VERTEX
8
0
10
14.849994
20
9.258583
70
0
0
VERTEX
8
0
10
14.849994
20
409.257041
70
0
0
SEQEND
8
0
0
POLYLINE
8
0
62
170
70
0
10
0.000000
20
0.000000
66
1
0
VERTEX
8
0
10
310.848787
20
9.258583
70
0
0
VERTEX
8
0
10
310.848787
20
57.258465
70
0
0
SEQEND
8
0
0
POLYLINE
8
0
62
170
70
0
10
0.000000
20
0.000000
66
1
0
VERTEX
8
0
10
262.848939
20
9.258583
70
0
0
VERTEX
8
0
10
762.847317
20
509.258835
70
0
0
SEQEND
8
0
0
POLYLINE
8
0
62
50
70
0
10
0.000000
20
0.000000
66
1
0
VERTEX
8
0
10
810.847966
20
509.258835
70
0
0
VERTEX
8
0
10
810.847966
20
9.258583
70
0
0
SEQEND
8
0
0
POLYLINE
8
0
62
170
70
0
10
0.000000
20
0.000000
66
1
0
VERTEX
8
0
10
714.849313
20
461.258185
70
0
0
VERTEX
8
0
10
714.849313
20
509.258835
70
0
0
SEQEND
8
0
 0 
ENDSEC
 0 
EOF