999
"DXF R12 Output" (www.mydxf.blogspot.com)
 0 
SECTION
 2 
HEADER
 9 
$ACADVER
 1 
AC1009
 9 
$EXTMIN
 10 
 0 
 20 
 0 
 9 
$EXTMAX
 10 
 8.5 
 20 
 11 
 0 
ENDSEC
 0 
SECTION
 2 
ENTITIES
0
POLYLINE
8
0
62
10
70
0
10
0.000000
20
0.000000
66
1
0
VERTEX
8
0
10
40.254674
20
401.617403
70
0
0
VERTEX
8
0
10
40.058211
20
402.590518
70
0
0
VERTEX
8
0
10
39.522439
20
403.385174
70
0
0
VERTEX
8
0
10
38.727783
20
403.920946
70
0
0
VERTEX
8
0
10
37.754669
20
404.117408
70
0
0
VERTEX
8
0
10
36.781554
20
403.920946
70
0
0
VERTEX
8
0
10
35.986898
20
403.385174
70
0
0
VERTEX
8
0
10
35.451126
20
402.590518
70
0
0
VERTEX
8
0
10
35.254663
20
401.617403
70
0
0
VERTEX
8
0
10
35.451126
20
400.644289
70
0
0
VERTEX
8
0
10
35.986898
20
399.849633
70
0
0
VERTEX
8
0
10
36.781554
20
399.313861
70
0
0
VERTEX
8
0
10
37.754669
20
399.117398
70
0
0
VERTEX
8
0
10
38.727783
20
399.313861
70
0
0
VERTEX
8
0
10
39.522439
20
399.849633
70
0
0
VERTEX
8
0
10
40.058211
20
400.644289
70
0
0
VERTEX
8
0
10
40.254674
20
401.617403
70
0
0
VERTEX
8
0
10
40.254674
20
401.617403
70
0
0
SEQEND
8
0
0
POLYLINE
8
0
62
10
70
0
10
0.000000
20
0.000000
66
1
0
VERTEX
8
0
10
341.254285
20
487.617303
70
0
0
VERTEX
8
0
10
341.167746
20
488.269598
70
0
0
VERTEX
8
0
10
340.919348
20
488.867306
70
0
0
VERTEX
8
0
10
340.525918
20
489.381278
70
0
0
VERTEX
8
0
10
340.004283
20
489.782371
70
0
0
VERTEX
8
0
10
339.396109
20
490.033574
70
0
0
VERTEX
8
0
10
338.754280
20
490.117308
70
0
0
VERTEX
8
0
10
338.112451
20
490.033574
70
0
0
VERTEX
8
0
10
337.504277
20
489.782371
70
0
0
VERTEX
8
0
10
336.982642
20
489.381278
70
0
0
VERTEX
8
0
10
336.589212
20
488.867306
70
0
0
VERTEX
8
0
10
336.340814
20
488.269598
70
0
0
VERTEX
8
0
10
336.254275
20
487.617303
70
0
0
VERTEX
8
0
10
336.340814
20
486.965008
70
0
0
VERTEX
8
0
10
336.589212
20
486.367300
70
0
0
VERTEX
8
0
10
336.982642
20
485.853328
70
0
0
VERTEX
8
0
10
337.504277
20
485.452235
70
0
0
VERTEX
8
0
10
338.112451
20
485.201032
70
0
0
VERTEX
8
0
10
338.754280
20
485.117298
70
0
0
VERTEX
8
0
10
339.396109
20
485.201032
70
0
0
VERTEX
8
0
10
340.004283
20
485.452235
70
0
0
VERTEX
8
0
10
340.525918
20
485.853328
70
0
0
VERTEX
8
0
10
340.919348
20
486.367300
70
0
0
VERTEX
8
0
10
341.167746
20
486.965008
70
0
0
VERTEX
8
0
10
341.254285
20
487.617303
70
0
0
VERTEX
8
0
10
341.254285
20
487.617303
70
0
0
SEQEND
8
0
0
POLYLINE
8
0
62
10
70
0
10
0.000000
20
0.000000
66
1
0
VERTEX
8
0
10
91.254608
20
35.617848
70
0
0
VERTEX
8
0
10
91.168069
20
36.270143
70
0
0
VERTEX
8
0
10
90.919671
20
36.867850
70
0
0
VERTEX
8
0
10
90.526240
20
37.381823
70
0
0
VERTEX
8
0
10
90.004605
20
37.782916
70
0
0
VERTEX
8
0
10
89.396432
20
38.034119
70
0
0
VERTEX
8
0
10
88.754603
20
38.117853
70
0
0
VERTEX
8
0
10
88.112774
20
38.034119
70
0
0
VERTEX
8
0
10
87.504600
20
37.782916
70
0
0
VERTEX
8
0
10
86.982965
20
37.381823
70
0
0
VERTEX
8
0
10
86.589535
20
36.867850
70
0
0
VERTEX
8
0
10
86.341137
20
36.270143
70
0
0
VERTEX
8
0
10
86.254598
20
35.617848
70
0
0
VERTEX
8
0
10
86.341137
20
34.965552
70
0
0
VERTEX
8
0
10
86.589535
20
34.367845
70
0
0
VERTEX
8
0
10
86.982965
20
33.853872
70
0
0
VERTEX
8
0
10
87.504600
20
33.452780
70
0
0
VERTEX
8
0
10
88.112774
20
33.201577
70
0
0
VERTEX
8
0
10
88.754603
20
33.117843
70
0
0
VERTEX
8
0
10
89.396432
20
33.201577
70
0
0
VERTEX
8
0
10
90.004605
20
33.452780
70
0
0
VERTEX
8
0
10
90.526240
20
33.853872
70
0
0
VERTEX
8
0
10
90.919671
20
34.367845
70
0
0
VERTEX
8
0
10
91.168069
20
34.965552
70
0
0
VERTEX
8
0
10
91.254608
20
35.617848
70
0
0
VERTEX
8
0
10
91.254608
20
35.617848
70
0
0
SEQEND
8
0
0
POLYLINE
8
0
62
10
70
0
10
0.000000
20
0.000000
66
1
0
VERTEX
8
0
10
341.254285
20
35.617848
70
0
0
VERTEX
8
0
10
341.167746
20
36.270143
70
0
0
VERTEX
8
0
10
340.919348
20
36.867850
70
0
0
VERTEX
8
0
10
340.525918
20
37.381823
70
0
0
VERTEX
8
0
10
340.004283
20
37.782916
70
0
0
VERTEX
8
0
10
339.396109
20
38.034119
70
0
0
VERTEX
8
0
10
338.754280
20
38.117853
70
0
0
VERTEX
8
0
10
338.112451
20
38.034119
70
0
0
VERTEX
8
0
10
337.504277
20
37.782916
70
0
0
VERTEX
8
0
10
336.982642
20
37.381823
70
0
0
VERTEX
8
0
10
336.589212
20
36.867850
70
0
0
VERTEX
8
0
10
336.340814
20
36.270143
70
0
0
VERTEX
8
0
10
336.254275
20
35.617848
70
0
0
VERTEX
8
0
10
336.340814
20
34.965552
70
0
0
VERTEX
8
0
10
336.589212
20
34.367845
70
0
0
VERTEX
8
0
10
336.982642
20
33.853872
70
0
0
VERTEX
8
0
10
337.504277
20
33.452780
70
0
0
VERTEX
8
0
10
338.112451
20
33.201577
70
0
0
VERTEX
8
0
10
338.754280
20
33.117843
70
0
0
VERTEX
8
0
10
339.396109
20
33.201577
70
0
0
VERTEX
8
0
10
340.004283
20
33.452780
70
0
0
VERTEX
8
0
10
340.525918
20
33.853872
70
0
0
VERTEX
8
0
10
340.919348
20
34.367845
70
0
0
VERTEX
8
0
10
341.167746
20
34.965552
70
0
0
VERTEX
8
0
10
341.254285
20
35.617848
70
0
0
VERTEX
8
0
10
341.254285
20
35.617848
70
0
0
SEQEND
8
0
0
POLYLINE
8
0
62
10
70
0
10
0.000000
20
0.000000
66
1
0
VERTEX
8
0
10
392.254219
20
401.617403
70
0
0
VERTEX
8
0
10
392.167681
20
402.269699
70
0
0
VERTEX
8
0
10
391.919282
20
402.867406
70
0
0
VERTEX
8
0
10
391.525852
20
403.381379
70
0
0
VERTEX
8
0
10
391.004217
20
403.782471
70
0
0
VERTEX
8
0
10
390.396043
20
404.033674
70
0
0
VERTEX
8
0
10
389.754214
20
404.117408
70
0
0
VERTEX
8
0
10
389.112386
20
404.033674
70
0
0
VERTEX
8
0
10
388.504212
20
403.782471
70
0
0
VERTEX
8
0
10
387.982577
20
403.381379
70
0
0
VERTEX
8
0
10
387.589146
20
402.867406
70
0
0
VERTEX
8
0
10
387.340748
20
402.269699
70
0
0
VERTEX
8
0
10
387.254209
20
401.617403
70
0
0
VERTEX
8
0
10
387.340748
20
400.965108
70
0
0
VERTEX
8
0
10
387.589146
20
400.367401
70
0
0
VERTEX
8
0
10
387.982577
20
399.853428
70
0
0
VERTEX
8
0
10
388.504212
20
399.452336
70
0
0
VERTEX
8
0
10
389.112386
20
399.201133
70
0
0
VERTEX
8
0
10
389.754214
20
399.117398
70
0
0
VERTEX
8
0
10
390.396043
20
399.201133
70
0
0
VERTEX
8
0
10
391.004217
20
399.452336
70
0
0
VERTEX
8
0
10
391.525852
20
399.853428
70
0
0
VERTEX
8
0
10
391.919282
20
400.367401
70
0
0
VERTEX
8
0
10
392.167681
20
400.965108
70
0
0
VERTEX
8
0
10
392.254219
20
401.617403
70
0
0
VERTEX
8
0
10
392.254219
20
401.617403
70
0
0
SEQEND
8
0
0
POLYLINE
8
0
62
10
70
0
10
0.000000
20
0.000000
66
1
0
VERTEX
8
0
10
40.254674
20
121.617747
70
0
0
VERTEX
8
0
10
40.058211
20
122.590862
70
0
0
VERTEX
8
0
10
39.522439
20
123.385518
70
0
0
VERTEX
8
0
10
38.727783
20
123.921290
70
0
0
VERTEX
8
0
10
37.754669
20
124.117752
70
0
0
VERTEX
8
0
10
36.781554
20
123.921290
70
0
0
VERTEX
8
0
10
35.986898
20
123.385518
70
0
0
VERTEX
8
0
10
35.451126
20
122.590862
70
0
0
VERTEX
8
0
10
35.254663
20
121.617747
70
0
0
VERTEX
8
0
10
35.451126
20
120.644633
70
0
0
VERTEX
8
0
10
35.986898
20
119.849977
70
0
0
VERTEX
8
0
10
36.781554
20
119.314205
70
0
0
VERTEX
8
0
10
37.754669
20
119.117742
70
0
0
VERTEX
8
0
10
38.727783
20
119.314205
70
0
0
VERTEX
8
0
10
39.522439
20
119.849977
70
0
0
VERTEX
8
0
10
40.058211
20
120.644633
70
0
0
VERTEX
8
0
10
40.254674
20
121.617747
70
0
0
VERTEX
8
0
10
40.254674
20
121.617747
70
0
0
SEQEND
8
0
0
POLYLINE
8
0
62
10
70
0
10
0.000000
20
0.000000
66
1
0
VERTEX
8
0
10
392.254219
20
121.617747
70
0
0
VERTEX
8
0
10
392.167681
20
122.270043
70
0
0
VERTEX
8
0
10
391.919282
20
122.867750
70
0
0
VERTEX
8
0
10
391.525852
20
123.381723
70
0
0
VERTEX
8
0
10
391.004217
20
123.782815
70
0
0
VERTEX
8
0
10
390.396043
20
124.034018
70
0
0
VERTEX
8
0
10
389.754214
20
124.117752
70
0
0
VERTEX
8
0
10
389.112386
20
124.034018
70
0
0
VERTEX
8
0
10
388.504212
20
123.782815
70
0
0
VERTEX
8
0
10
387.982577
20
123.381723
70
0
0
VERTEX
8
0
10
387.589146
20
122.867750
70
0
0
VERTEX
8
0
10
387.340748
20
122.270043
70
0
0
VERTEX
8
0
10
387.254209
20
121.617747
70
0
0
VERTEX
8
0
10
387.340748
20
120.965452
70
0
0
VERTEX
8
0
10
387.589146
20
120.367745
70
0
0
VERTEX
8
0
10
387.982577
20
119.853772
70
0
0
VERTEX
8
0
10
388.504212
20
119.452679
70
0
0
VERTEX
8
0
10
389.112386
20
119.201477
70
0
0
VERTEX
8
0
10
389.754214
20
119.117742
70
0
0
VERTEX
8
0
10
390.396043
20
119.201477
70
0
0
VERTEX
8
0
10
391.004217
20
119.452679
70
0
0
VERTEX
8
0
10
391.525852
20
119.853772
70
0
0
VERTEX
8
0
10
391.919282
20
120.367745
70
0
0
VERTEX
8
0
10
392.167681
20
120.965452
70
0
0
VERTEX
8
0
10
392.254219
20
121.617747
70
0
0
VERTEX
8
0
10
392.254219
20
121.617747
70
0
0
SEQEND
8
0
0
POLYLINE
8
0
62
10
70
0
10
0.000000
20
0.000000
66
1
0
VERTEX
8
0
10
91.254608
20
487.617303
70
0
0
VERTEX
8
0
10
91.168069
20
488.269598
70
0
0
VERTEX
8
0
10
90.919671
20
488.867306
70
0
0
VERTEX
8
0
10
90.526240
20
489.381278
70
0
0
VERTEX
8
0
10
90.004605
20
489.782371
70
0
0
VERTEX
8
0
10
89.396432
20
490.033574
70
0
0
VERTEX
8
0
10
88.754603
20
490.117308
70
0
0
VERTEX
8
0
10
88.112774
20
490.033574
70
0
0
VERTEX
8
0
10
87.504600
20
489.782371
70
0
0
VERTEX
8
0
10
86.982965
20
489.381278
70
0
0
VERTEX
8
0
10
86.589535
20
488.867306
70
0
0
VERTEX
8
0
10
86.341137
20
488.269598
70
0
0
VERTEX
8
0
10
86.254598
20
487.617303
70
0
0
VERTEX
8
0
10
86.341137
20
486.965008
70
0
0
VERTEX
8
0
10
86.589535
20
486.367300
70
0
0
VERTEX
8
0
10
86.982965
20
485.853328
70
0
0
VERTEX
8
0
10
87.504600
20
485.452235
70
0
0
VERTEX
8
0
10
88.112774
20
485.201032
70
0
0
VERTEX
8
0
10
88.754603
20
485.117298
70
0
0
VERTEX
8
0
10
89.396432
20
485.201032
70
0
0
VERTEX
8
0
10
90.004605
20
485.452235
70
0
0
VERTEX
8
0
10
90.526240
20
485.853328
70
0
0
VERTEX
8
0
10
90.919671
20
486.367300
70
0
0
VERTEX
8
0
10
91.168069
20
486.965008
70
0
0
VERTEX
8
0
10
91.254608
20
487.617303
70
0
0
VERTEX
8
0
10
91.254608
20
487.617303
70
0
0
SEQEND
8
0
0
POLYLINE
8
0
62
10
70
0
10
0.000000
20
0.000000
66
1
0
VERTEX
8
0
10
440.254153
20
131.617741
70
0
0
VERTEX
8
0
10
440.056250
20
132.589242
70
0
0
VERTEX
8
0
10
439.520152
20
133.382264
70
0
0
VERTEX
8
0
10
438.726057
20
133.916770
70
0
0
VERTEX
8
0
10
437.754161
20
134.112725
70
0
0
VERTEX
8
0
10
436.782265
20
133.916770
70
0
0
VERTEX
8
0
10
435.988170
20
133.382264
70
0
0
VERTEX
8
0
10
435.452072
20
132.589242
70
0
0
VERTEX
8
0
10
435.254169
20
131.617741
70
0
0
VERTEX
8
0
10
435.452072
20
130.646240
70
0
0
VERTEX
8
0
10
435.988170
20
129.853218
70
0
0
VERTEX
8
0
10
436.782265
20
129.318712
70
0
0
VERTEX
8
0
10
437.754161
20
129.122758
70
0
0
VERTEX
8
0
10
438.726057
20
129.318712
70
0
0
VERTEX
8
0
10
439.520152
20
129.853218
70
0
0
VERTEX
8
0
10
440.056250
20
130.646240
70
0
0
VERTEX
8
0
10
440.254153
20
131.617741
70
0
0
VERTEX
8
0
10
440.254153
20
131.617741
70
0
0
SEQEND
8
0
0
POLYLINE
8
0
62
10
70
0
10
0.000000
20
0.000000
66
1
0
VERTEX
8
0
10
731.253781
20
35.617848
70
0
0
VERTEX
8
0
10
731.055878
20
36.589349
70
0
0
VERTEX
8
0
10
730.519780
20
37.382371
70
0
0
VERTEX
8
0
10
729.725685
20
37.916877
70
0
0
VERTEX
8
0
10
728.753789
20
38.112831
70
0
0
VERTEX
8
0
10
727.781893
20
37.916877
70
0
0
VERTEX
8
0
10
726.987798
20
37.382371
70
0
0
VERTEX
8
0
10
726.451700
20
36.589349
70
0
0
VERTEX
8
0
10
726.253797
20
35.617848
70
0
0
VERTEX
8
0
10
726.451700
20
34.646346
70
0
0
VERTEX
8
0
10
726.987798
20
33.853325
70
0
0
VERTEX
8
0
10
727.781893
20
33.318819
70
0
0
VERTEX
8
0
10
728.753789
20
33.122864
70
0
0
VERTEX
8
0
10
729.725685
20
33.318819
70
0
0
VERTEX
8
0
10
730.519780
20
33.853325
70
0
0
VERTEX
8
0
10
731.055878
20
34.646346
70
0
0
VERTEX
8
0
10
731.253781
20
35.617848
70
0
0
VERTEX
8
0
10
731.253781
20
35.617848
70
0
0
SEQEND
8
0
0
POLYLINE
8
0
62
10
70
0
10
0.000000
20
0.000000
66
1
0
VERTEX
8
0
10
501.254081
20
487.617303
70
0
0
VERTEX
8
0
10
501.167542
20
488.269598
70
0
0
VERTEX
8
0
10
500.919144
20
488.867306
70
0
0
VERTEX
8
0
10
500.525713
20
489.381278
70
0
0
VERTEX
8
0
10
500.004078
20
489.782371
70
0
0
VERTEX
8
0
10
499.395905
20
490.033574
70
0
0
VERTEX
8
0
10
498.754076
20
490.117308
70
0
0
VERTEX
8
0
10
498.112247
20
490.033574
70
0
0
VERTEX
8
0
10
497.504073
20
489.782371
70
0
0
VERTEX
8
0
10
496.982438
20
489.381278
70
0
0
VERTEX
8
0
10
496.589008
20
488.867306
70
0
0
VERTEX
8
0
10
496.340610
20
488.269598
70
0
0
VERTEX
8
0
10
496.254071
20
487.617303
70
0
0
VERTEX
8
0
10
496.450534
20
486.644188
70
0
0
VERTEX
8
0
10
496.986306
20
485.849533
70
0
0
VERTEX
8
0
10
497.780961
20
485.313761
70
0
0
VERTEX
8
0
10
498.754076
20
485.117298
70
0
0
VERTEX
8
0
10
499.727191
20
485.313761
70
0
0
VERTEX
8
0
10
500.521846
20
485.849533
70
0
0
VERTEX
8
0
10
501.057618
20
486.644188
70
0
0
VERTEX
8
0
10
501.254081
20
487.617303
70
0
0
VERTEX
8
0
10
501.254081
20
487.617303
70
0
0
SEQEND
8
0
0
POLYLINE
8
0
62
10
70
0
10
0.000000
20
0.000000
66
1
0
VERTEX
8
0
10
440.254153
20
391.617436
70
0
0
VERTEX
8
0
10
440.056250
20
392.588937
70
0
0
VERTEX
8
0
10
439.520152
20
393.381959
70
0
0
VERTEX
8
0
10
438.726057
20
393.916465
70
0
0
VERTEX
8
0
10
437.754161
20
394.112419
70
0
0
VERTEX
8
0
10
436.782265
20
393.916465
70
0
0
VERTEX
8
0
10
435.988170
20
393.381959
70
0
0
VERTEX
8
0
10
435.452072
20
392.588937
70
0
0
VERTEX
8
0
10
435.254169
20
391.617436
70
0
0
VERTEX
8
0
10
435.452072
20
390.645935
70
0
0
VERTEX
8
0
10
435.988170
20
389.852913
70
0
0
VERTEX
8
0
10
436.782265
20
389.318407
70
0
0
VERTEX
8
0
10
437.754161
20
389.122453
70
0
0
VERTEX
8
0
10
438.726057
20
389.318407
70
0
0
VERTEX
8
0
10
439.520152
20
389.852913
70
0
0
VERTEX
8
0
10
440.056250
20
390.645935
70
0
0
VERTEX
8
0
10
440.254153
20
391.617436
70
0
0
VERTEX
8
0
10
440.254153
20
391.617436
70
0
0
SEQEND
8
0
0
POLYLINE
8
0
62
10
70
0
10
0.000000
20
0.000000
66
1
0
VERTEX
8
0
10
792.253709
20
391.617436
70
0
0
VERTEX
8
0
10
792.057246
20
392.590551
70
0
0
VERTEX
8
0
10
791.521474
20
393.385206
70
0
0
VERTEX
8
0
10
790.726819
20
393.920978
70
0
0
VERTEX
8
0
10
789.753704
20
394.117440
70
0
0
VERTEX
8
0
10
788.780589
20
393.920978
70
0
0
VERTEX
8
0
10
787.985934
20
393.385206
70
0
0
VERTEX
8
0
10
787.450162
20
392.590551
70
0
0
VERTEX
8
0
10
787.253699
20
391.617436
70
0
0
VERTEX
8
0
10
787.340238
20
390.965141
70
0
0
VERTEX
8
0
10
787.588636
20
390.367433
70
0
0
VERTEX
8
0
10
787.982067
20
389.853461
70
0
0
VERTEX
8
0
10
788.503702
20
389.452368
70
0
0
VERTEX
8
0
10
789.111875
20
389.201165
70
0
0
VERTEX
8
0
10
789.753704
20
389.117431
70
0
0
VERTEX
8
0
10
790.395533
20
389.201165
70
0
0
VERTEX
8
0
10
791.003707
20
389.452368
70
0
0
VERTEX
8
0
10
791.525342
20
389.853461
70
0
0
VERTEX
8
0
10
791.918772
20
390.367433
70
0
0
VERTEX
8
0
10
792.167170
20
390.965141
70
0
0
VERTEX
8
0
10
792.253709
20
391.617436
70
0
0
VERTEX
8
0
10
792.253709
20
391.617436
70
0
0
SEQEND
8
0
0
POLYLINE
8
0
62
10
70
0
10
0.000000
20
0.000000
66
1
0
VERTEX
8
0
10
501.254081
20
35.617848
70
0
0
VERTEX
8
0
10
501.167542
20
36.270143
70
0
0
VERTEX
8
0
10
500.919144
20
36.867850
70
0
0
VERTEX
8
0
10
500.525713
20
37.381823
70
0
0
VERTEX
8
0
10
500.004078
20
37.782916
70
0
0
VERTEX
8
0
10
499.395905
20
38.034119
70
0
0
VERTEX
8
0
10
498.754076
20
38.117853
70
0
0
VERTEX
8
0
10
498.112247
20
38.034119
70
0
0
VERTEX
8
0
10
497.504073
20
37.782916
70
0
0
VERTEX
8
0
10
496.982438
20
37.381823
70
0
0
VERTEX
8
0
10
496.589008
20
36.867850
70
0
0
VERTEX
8
0
10
496.340610
20
36.270143
70
0
0
VERTEX
8
0
10
496.254071
20
35.617848
70
0
0
VERTEX
8
0
10
496.450534
20
34.644733
70
0
0
VERTEX
8
0
10
496.986306
20
33.850077
70
0
0
VERTEX
8
0
10
497.780961
20
33.314306
70
0
0
VERTEX
8
0
10
498.754076
20
33.117843
70
0
0
VERTEX
8
0
10
499.727191
20
33.314306
70
0
0
VERTEX
8
0
10
500.521846
20
33.850077
70
0
0
VERTEX
8
0
10
501.057618
20
34.644733
70
0
0
VERTEX
8
0
10
501.254081
20
35.617848
70
0
0
VERTEX
8
0
10
501.254081
20
35.617848
70
0
0
SEQEND
8
0
0
POLYLINE
8
0
62
10
70
0
10
0.000000
20
0.000000
66
1
0
VERTEX
8
0
10
792.253709
20
131.617741
70
0
0
VERTEX
8
0
10
792.057246
20
132.590856
70
0
0
VERTEX
8
0
10
791.521474
20
133.385511
70
0
0
VERTEX
8
0
10
790.726819
20
133.921283
70
0
0
VERTEX
8
0
10
789.753704
20
134.117746
70
0
0
VERTEX
8
0
10
788.780589
20
133.921283
70
0
0
VERTEX
8
0
10
787.985934
20
133.385511
70
0
0
VERTEX
8
0
10
787.450162
20
132.590856
70
0
0
VERTEX
8
0
10
787.253699
20
131.617741
70
0
0
VERTEX
8
0
10
787.340238
20
130.965446
70
0
0
VERTEX
8
0
10
787.588636
20
130.367739
70
0
0
VERTEX
8
0
10
787.982067
20
129.853766
70
0
0
VERTEX
8
0
10
788.503702
20
129.452673
70
0
0
VERTEX
8
0
10
789.111875
20
129.201470
70
0
0
VERTEX
8
0
10
789.753704
20
129.117736
70
0
0
VERTEX
8
0
10
790.395533
20
129.201470
70
0
0
VERTEX
8
0
10
791.003707
20
129.452673
70
0
0
VERTEX
8
0
10
791.525342
20
129.853766
70
0
0
VERTEX
8
0
10
791.918772
20
130.367739
70
0
0
VERTEX
8
0
10
792.167170
20
130.965446
70
0
0
VERTEX
8
0
10
792.253709
20
131.617741
70
0
0
VERTEX
8
0
10
792.253709
20
131.617741
70
0
0
SEQEND
8
0
0
POLYLINE
8
0
62
10
70
0
10
0.000000
20
0.000000
66
1
0
VERTEX
8
0
10
731.253781
20
487.617303
70
0
0
VERTEX
8
0
10
731.055878
20
488.588804
70
0
0
VERTEX
8
0
10
730.519780
20
489.381826
70
0
0
VERTEX
8
0
10
729.725685
20
489.916332
70
0
0
VERTEX
8
0
10
728.753789
20
490.112286
70
0
0
VERTEX
8
0
10
727.781893
20
489.916332
70
0
0
VERTEX
8
0
10
726.987798
20
489.381826
70
0
0
VERTEX
8
0
10
726.451700
20
488.588804
70
0
0
VERTEX
8
0
10
726.253797
20
487.617303
70
0
0
VERTEX
8
0
10
726.451700
20
486.645802
70
0
0
VERTEX
8
0
10
726.987798
20
485.852780
70
0
0
VERTEX
8
0
10
727.781893
20
485.318274
70
0
0
VERTEX
8
0
10
728.753789
20
485.122320
70
0
0
VERTEX
8
0
10
729.725685
20
485.318274
70
0
0
VERTEX
8
0
10
730.519780
20
485.852780
70
0
0
VERTEX
8
0
10
731.055878
20
486.645802
70
0
0
VERTEX
8
0
10
731.253781
20
487.617303
70
0
0
VERTEX
8
0
10
731.253781
20
487.617303
70
0
0
SEQEND
8
0
0
POLYLINE
8
0
62
50
70
0
10
0.000000
20
0.000000
66
1
0
VERTEX
8
0
10
13.754968
20
11.618662
70
0
0
VERTEX
8
0
10
813.753406
20
11.618662
70
0
0
SEQEND
8
0
0
POLYLINE
8
0
62
50
70
0
10
0.000000
20
0.000000
66
1
0
VERTEX
8
0
10
13.754968
20
511.617044
70
0
0
VERTEX
8
0
10
13.754968
20
11.618662
70
0
0
SEQEND
8
0
0
POLYLINE
8
0
62
170
70
0
10
0.000000
20
0.000000
66
1
0
VERTEX
8
0
10
413.754181
20
11.618662
70
0
0
VERTEX
8
0
10
413.754181
20
511.617044
70
0
0
SEQEND
8
0
0
POLYLINE
8
0
62
50
70
0
10
0.000000
20
0.000000
66
1
0
VERTEX
8
0
10
813.753406
20
511.617044
70
0
0
VERTEX
8
0
10
13.754968
20
511.617044
70
0
0
SEQEND
8
0
0
POLYLINE
8
0
62
50
70
0
10
0.000000
20
0.000000
66
1
0
VERTEX
8
0
10
813.753406
20
511.617044
70
0
0
VERTEX
8
0
10
813.753406
20
11.618662
70
0
0
SEQEND
8
0
 0 
ENDSEC
 0 
EOF